<?xml version="1.0" encoding="iso-8859-1"?>
<!-- Generator: Adobe Illustrator 19.0.0, SVG Export Plug-In . SVG Version: 6.00 Build 0)  -->
<svg version="1.1" id="Capa_1" xmlns="http://www.w3.org/2000/svg" xmlns:xlink="http://www.w3.org/1999/xlink" x="0px" y="0px"
	 viewBox="0 0 451.396 451.396" style="enable-background:new 0 0 451.396 451.396;" xml:space="preserve">
<path style="fill:#4DCFE0;" d="M203.494,77.322h-31.347v-23.51C172.147,24.033,196.18,0,225.959,0s53.812,24.033,53.812,53.812V76.8
	h-31.347V53.812c0-12.016-10.449-22.465-22.465-22.465s-22.465,10.449-22.465,22.465V77.322z"/>
<path style="fill:#1185E0;" d="M387.396,298.841h-31.347v-79.412c0-72.62-58.514-131.657-130.09-131.657
	s-130.09,59.037-130.09,131.657v79.412H64.522v-79.412c0-89.861,72.62-163.004,161.437-163.004s161.437,73.143,161.437,163.004
	V298.841z"/>
<path style="fill:#4DCFE0;" d="M301.714,260.702c-8.882,0-15.673-6.792-15.673-15.673v-43.363c0-8.882,6.792-15.673,15.673-15.673
	s15.673,6.792,15.673,15.673v43.363C317.388,253.91,310.596,260.702,301.714,260.702z"/>
<path style="fill:#1185E0;" d="M225.959,451.396c-34.482,0-62.171-27.69-62.171-62.171v-17.241h31.347v17.241
	c0,17.241,13.584,30.824,30.824,30.824s30.824-13.584,30.824-30.824v-17.241h31.347v17.241
	C288.131,423.706,260.441,451.396,225.959,451.396z"/>
<path style="fill:#4DCFE0;" d="M400.457,387.657H50.939c-8.882,0-15.673-6.792-15.673-15.673v-73.143
	c0-8.882,6.792-15.673,15.673-15.673h349.518c8.882,0,15.673,6.792,15.673,15.673v73.143
	C416.131,380.865,409.339,387.657,400.457,387.657z M66.612,356.31h318.171v-41.796H66.612V356.31z"/>
<g>
</g>
<g>
</g>
<g>
</g>
<g>
</g>
<g>
</g>
<g>
</g>
<g>
</g>
<g>
</g>
<g>
</g>
<g>
</g>
<g>
</g>
<g>
</g>
<g>
</g>
<g>
</g>
<g>
</g>
</svg>

