<?xml version="1.0" encoding="iso-8859-1"?>
<!-- Generator: Adobe Illustrator 19.0.0, SVG Export Plug-In . SVG Version: 6.00 Build 0)  -->
<svg version="1.1" id="Capa_1" xmlns="http://www.w3.org/2000/svg" xmlns:xlink="http://www.w3.org/1999/xlink" x="0px" y="0px"
	 viewBox="0 0 506.776 506.776" style="enable-background:new 0 0 506.776 506.776;" xml:space="preserve">
<g>
	<rect x="77.845" y="252.343" style="fill:#4DCFE0;" width="79.412" height="31.347"/>
	<rect x="77.845" y="309.812" style="fill:#4DCFE0;" width="79.412" height="31.347"/>
	<path style="fill:#4DCFE0;" d="M164.571,475.429h-31.347V405.42h-31.347v70.008H70.531v-85.682c0-8.882,6.792-15.673,15.673-15.673
		h62.694c8.882,0,15.673,6.792,15.673,15.673V475.429z"/>
	<rect x="350.041" y="170.318" style="fill:#4DCFE0;" width="125.388" height="31.347"/>
	<rect x="350.041" y="65.829" style="fill:#4DCFE0;" width="125.388" height="31.347"/>
	<rect x="350.041" y="274.808" style="fill:#4DCFE0;" width="125.388" height="31.347"/>
	<rect x="350.041" y="379.298" style="fill:#4DCFE0;" width="125.388" height="31.347"/>
</g>
<g>
	<rect x="350.041" y="222.563" style="fill:#1185E0;" width="125.388" height="31.347"/>
	<rect x="350.041" y="118.073" style="fill:#1185E0;" width="125.388" height="31.347"/>
	<rect x="350.041" y="327.053" style="fill:#1185E0;" width="125.388" height="31.347"/>
	<path style="fill:#1185E0;" d="M491.102,459.755V31.347c0-8.882-6.792-15.673-15.673-15.673H350.041
		c-8.882,0-15.673,6.792-15.673,15.673v272.718H219.429v-100.31c0-8.882-6.792-15.673-15.673-15.673h-18.286V151.51
		c0-8.882-6.792-15.673-15.673-15.673h-36.571v-16.718c20.376-6.792,35.527-26.122,35.527-48.588c0-28.212-22.988-51.2-51.2-51.2
		s-51.2,22.988-51.2,51.2c0,22.988,15.151,42.318,35.527,48.588v16.718H65.306c-8.882,0-15.673,6.792-15.673,15.673v36.571H31.347
		c-8.882,0-15.673,6.792-15.673,15.673v256C6.792,459.755,0,466.547,0,475.429s6.792,15.673,15.673,15.673h475.429
		c8.882,0,15.673-6.792,15.673-15.673S499.984,459.755,491.102,459.755z M117.551,50.678c10.971,0,19.853,8.882,19.853,19.853
		s-8.882,19.853-19.853,19.853s-19.853-8.882-19.853-19.853S106.58,50.678,117.551,50.678z M459.755,47.02v412.735h-94.041V47.02
		H459.755z M334.367,335.412v124.343h-15.673v-36.571c0-8.882-6.792-15.673-15.673-15.673h-52.767
		c-8.882,0-15.673,6.792-15.673,15.673v36.571h-15.151V335.412H334.367z M287.347,459.755h-21.42v-20.898h21.42V459.755z
		 M80.98,167.184h73.143v20.898H80.98V167.184z M47.02,219.429h141.061v240.327H47.02V219.429z"/>
</g>
<g>
</g>
<g>
</g>
<g>
</g>
<g>
</g>
<g>
</g>
<g>
</g>
<g>
</g>
<g>
</g>
<g>
</g>
<g>
</g>
<g>
</g>
<g>
</g>
<g>
</g>
<g>
</g>
<g>
</g>
</svg>
