<?xml version="1.0" encoding="iso-8859-1"?>
<!-- Generator: Adobe Illustrator 19.0.0, SVG Export Plug-In . SVG Version: 6.00 Build 0)  -->
<svg version="1.1" id="Capa_1" xmlns="http://www.w3.org/2000/svg" xmlns:xlink="http://www.w3.org/1999/xlink" x="0px" y="0px"
	 viewBox="0 0 392.882 392.882" style="enable-background:new 0 0 392.882 392.882;" xml:space="preserve">
<g>
	<g>
		<path style="fill:#1185E0;" d="M345.6,392.882H47.282c-8.882,0-15.673-6.792-15.673-15.673V78.89
			c0-8.882,6.792-15.673,15.673-15.673H345.6c8.882,0,15.673,6.792,15.673,15.673v298.318
			C361.273,386.09,354.482,392.882,345.6,392.882z M62.955,361.535h266.971V94.563H62.955V361.535z"/>
		<path style="fill:#1185E0;" d="M287.086,31.347H106.318c-8.882,0-15.673-6.792-15.673-15.673S97.437,0,106.318,0h180.767
			c8.882,0,15.673,6.792,15.673,15.673S295.967,31.347,287.086,31.347z"/>
	</g>
	<path style="fill:#4DCFE0;" d="M268.8,203.233H124.604c-8.882,0-15.673-6.792-15.673-15.673v-27.167
		c0-8.882,6.792-15.673,15.673-15.673s15.673,6.792,15.673,15.673v11.494h112.849v-11.494c0-8.882,6.792-15.673,15.673-15.673
		c8.882,0,15.673,6.792,15.673,15.673v27.167C284.473,196.441,277.682,203.233,268.8,203.233z"/>
</g>
<g>
</g>
<g>
</g>
<g>
</g>
<g>
</g>
<g>
</g>
<g>
</g>
<g>
</g>
<g>
</g>
<g>
</g>
<g>
</g>
<g>
</g>
<g>
</g>
<g>
</g>
<g>
</g>
<g>
</g>
</svg>
