<?xml version="1.0" encoding="iso-8859-1"?>
<!-- Generator: Adobe Illustrator 19.0.0, SVG Export Plug-In . SVG Version: 6.00 Build 0)  -->
<svg version="1.1" id="Capa_1" xmlns="http://www.w3.org/2000/svg" xmlns:xlink="http://www.w3.org/1999/xlink" x="0px" y="0px"
	 viewBox="0 0 438.857 438.857" style="enable-background:new 0 0 438.857 438.857;" xml:space="preserve">
<path style="fill:#1185E0;" d="M422.139,50.155H384V15.673C384,6.792,377.208,0,368.327,0h-75.233
	c-8.882,0-15.673,6.792-15.673,15.673v34.482H161.437V15.673C161.437,6.792,154.645,0,145.763,0H70.531
	c-8.882,0-15.673,6.792-15.673,15.673v34.482H16.718c-8.882,0-15.673,6.792-15.673,15.673v357.355
	c0,8.882,6.792,15.673,15.673,15.673h405.42c8.882,0,15.673-6.792,15.673-15.673V65.829
	C437.812,56.947,431.02,50.155,422.139,50.155z M308.767,31.347h43.886v43.886h-43.886V31.347z M86.204,31.347h43.886v43.886H86.204
	V31.347z M54.857,81.502v9.404c0,8.882,6.792,15.673,15.673,15.673h75.233c8.882,0,15.673-6.792,15.673-15.673v-9.404H277.42v9.404
	c0,8.882,6.792,15.673,15.673,15.673h75.233c8.882,0,15.673-6.792,15.673-15.673v-9.404h22.465v49.11H32.392v-49.11H54.857z
	 M32.392,407.51V161.959h374.073V407.51H32.392z"/>
<path style="fill:#4DCFE0;" d="M354.743,195.918H84.114c-8.882,0-15.673,6.792-15.673,15.673v146.286
	c0,8.882,6.792,15.673,15.673,15.673h270.629c8.882,0,15.673-6.792,15.673-15.673V211.592
	C370.416,202.71,363.624,195.918,354.743,195.918z M339.069,269.061h-59.037v-41.796h59.037V269.061z M190.171,269.061v-41.796
	h58.514v41.796H190.171z M248.686,300.408v41.796h-58.514v-41.796H248.686z M158.825,227.265v41.796H99.788v-41.796H158.825z
	 M99.788,300.408h59.037v41.796H99.788V300.408z M280.033,342.204v-41.796h59.037v41.796H280.033z"/>
<g>
</g>
<g>
</g>
<g>
</g>
<g>
</g>
<g>
</g>
<g>
</g>
<g>
</g>
<g>
</g>
<g>
</g>
<g>
</g>
<g>
</g>
<g>
</g>
<g>
</g>
<g>
</g>
<g>
</g>
</svg>
