<?xml version="1.0" encoding="iso-8859-1"?>
<!-- Generator: Adobe Illustrator 19.0.0, SVG Export Plug-In . SVG Version: 6.00 Build 0)  -->
<svg version="1.1" id="Capa_1" xmlns="http://www.w3.org/2000/svg" xmlns:xlink="http://www.w3.org/1999/xlink" x="0px" y="0px"
	 viewBox="0 0 480.653 480.653" style="enable-background:new 0 0 480.653 480.653;" xml:space="preserve">
<path style="fill:#1185E0;" d="M454.531,161.959H26.122C11.494,161.959,0,173.453,0,188.082v235.102
	c0,14.629,11.494,26.122,26.122,26.122h428.408c14.629,0,26.122-11.494,26.122-26.122V188.082
	C480.653,173.453,469.159,161.959,454.531,161.959z M57.469,193.306c0,11.494-9.404,20.898-20.898,20.898h-5.224v-20.898H57.469z
	 M31.347,397.061h5.224c11.494,0,20.898,9.404,20.898,20.898H31.347V397.061z M449.306,417.959h-26.122
	c0-11.494,9.404-20.898,20.898-20.898h5.224V417.959z M449.306,365.714h-5.224c-28.735,0-52.245,23.51-52.245,52.245H88.816
	c0-28.735-23.51-52.245-52.245-52.245h-5.224V245.551h5.224c28.735,0,52.245-23.51,52.245-52.245h308.245
	c0,28.735,23.51,52.245,52.245,52.245V365.714z M449.306,214.204c-11.494,0-20.898-9.404-20.898-20.898h20.898V214.204z"/>
<g>
	<path style="fill:#4DCFE0;" d="M423.184,125.388H57.469c-8.882,0-15.673-6.792-15.673-15.673s6.792-15.673,15.673-15.673h365.714
		c8.882,0,15.673,6.792,15.673,15.673S432.065,125.388,423.184,125.388z"/>
	<path style="fill:#4DCFE0;" d="M376.163,62.694H104.49c-8.882,0-15.673-6.792-15.673-15.673s6.792-15.673,15.673-15.673h271.673
		c8.882,0,15.673,6.792,15.673,15.673S385.045,62.694,376.163,62.694z"/>
	<path style="fill:#4DCFE0;" d="M240.327,391.314c-47.543,0-86.204-38.661-86.204-86.204s38.661-86.204,86.204-86.204
		s86.204,38.661,86.204,86.204S287.869,391.314,240.327,391.314z M240.327,250.253c-30.302,0-54.857,24.555-54.857,54.857
		s24.555,54.857,54.857,54.857s54.857-24.555,54.857-54.857S270.629,250.253,240.327,250.253z"/>
</g>
<g>
</g>
<g>
</g>
<g>
</g>
<g>
</g>
<g>
</g>
<g>
</g>
<g>
</g>
<g>
</g>
<g>
</g>
<g>
</g>
<g>
</g>
<g>
</g>
<g>
</g>
<g>
</g>
<g>
</g>
</svg>
