<?xml version="1.0" encoding="iso-8859-1"?>
<!-- Generator: Adobe Illustrator 19.0.0, SVG Export Plug-In . SVG Version: 6.00 Build 0)  -->
<svg version="1.1" id="Capa_1" xmlns="http://www.w3.org/2000/svg" xmlns:xlink="http://www.w3.org/1999/xlink" x="0px" y="0px"
	 viewBox="0 0 468.525 468.525" style="enable-background:new 0 0 468.525 468.525;" xml:space="preserve">
<g>
	<path style="fill:#4DCFE0;" d="M79.935,401.365H48.588v-16.718c0-7.314-6.269-13.584-13.584-13.584H18.286v-31.347h16.718
		c24.555,0,44.931,20.376,44.931,44.931C79.935,384.647,79.935,401.365,79.935,401.365z"/>
	<path style="fill:#4DCFE0;" d="M347.951,401.365h-31.347v-16.718c0-24.555,20.376-44.931,44.931-44.931h16.718v31.347h-16.718
		c-7.314,0-13.584,6.269-13.584,13.584V401.365z"/>
	<path style="fill:#4DCFE0;" d="M35.004,257.692H18.286v-31.347h16.718c7.314,0,13.584-6.269,13.584-13.584v-16.718h31.347v16.718
		C79.935,237.316,59.559,257.692,35.004,257.692z"/>
	<path style="fill:#4DCFE0;" d="M200.62,372.108c-19.853,0-38.139-7.837-52.245-21.42c-13.584-13.584-21.42-32.392-21.42-52.245
		c0-19.853,7.837-38.139,21.42-52.245c28.735-28.735,75.233-28.735,103.967,0L230.4,268.141
		c-7.837-7.837-18.286-12.016-29.78-12.016s-21.943,4.18-29.78,12.016c-7.837,7.837-12.016,18.286-12.016,29.78
		c0,11.494,4.18,21.943,12.016,29.78c16.196,16.196,43.886,16.196,60.082,0c5.747-5.747,8.882-11.494,10.971-19.331
		c0-0.522,0.522-2.09,0.522-2.612h31.347c0,4.18-1.045,7.314-1.567,9.927c-3.657,13.584-9.927,24.555-19.331,33.959
		C238.759,364.794,219.951,372.108,200.62,372.108z"/>
</g>
<path style="fill:#1185E0;" d="M467.069,172.01l-51.2-113.371c-3.135-6.792-9.927-10.449-17.241-8.882L247.641,78.492
	c-3.657,0.522-7.314,2.612-9.404,5.747l-73.665,94.041H15.673C6.792,178.279,0,185.071,0,193.953v209.502
	c0,8.882,6.792,15.673,15.673,15.673h364.669c8.882,0,15.673-6.792,15.673-15.673V239.928l66.351-49.11
	C468.114,186.639,470.204,178.802,467.069,172.01z M364.669,387.782H31.347V209.626h234.58l-32.914,35.004
	c-16.718,18.286-16.718,45.453-0.522,63.216c9.404,10.971,22.465,16.196,35.527,16.196c9.927,0,19.331-3.135,27.69-9.404
	l68.963-51.2V387.782z M276.898,289.561c-6.269,4.702-15.673,3.657-21.42-2.612c-5.224-5.747-5.224-15.151,0.522-20.898
	l75.233-79.935c5.747-6.269,5.747-16.196-0.522-21.943c-6.269-5.747-16.196-5.747-21.943,0.522l-13.061,14.106H204.8l54.857-70.531
	l132.702-25.6l40.751,90.384L276.898,289.561z"/>
<g>
</g>
<g>
</g>
<g>
</g>
<g>
</g>
<g>
</g>
<g>
</g>
<g>
</g>
<g>
</g>
<g>
</g>
<g>
</g>
<g>
</g>
<g>
</g>
<g>
</g>
<g>
</g>
<g>
</g>
</svg>
