<?xml version="1.0" encoding="iso-8859-1"?>
<!-- Generator: Adobe Illustrator 19.0.0, SVG Export Plug-In . SVG Version: 6.00 Build 0)  -->
<svg version="1.1" id="Capa_1" xmlns="http://www.w3.org/2000/svg" xmlns:xlink="http://www.w3.org/1999/xlink" x="0px" y="0px"
	 viewBox="0 0 472.049 472.049" style="enable-background:new 0 0 472.049 472.049;" xml:space="preserve">
<g>
	<rect x="162.359" y="222.041" style="fill:#4DCFE0;" width="147.331" height="31.347"/>
	<rect x="162.359" y="157.78" style="fill:#4DCFE0;" width="147.331" height="31.347"/>
</g>
<path style="fill:#1185E0;" d="M390.147,102.4L286.18,4.18C283.045,1.567,279.388,0,275.208,0H92.873
	C83.992,0,77.2,6.792,77.2,15.673v369.371c0,8.882,6.792,15.673,15.673,15.673h87.771v55.902c0,5.747,3.135,10.971,8.359,13.584
	s11.494,2.612,16.196-1.045l30.824-20.898l30.824,20.898c2.612,1.567,5.747,2.612,8.882,2.612c2.612,0,5.224-0.522,7.314-2.09
	c5.224-2.612,8.359-7.837,8.359-13.584v-55.38h87.771c8.882,0,15.673-6.792,15.673-15.673V113.894
	C394.849,109.714,393.282,105.535,390.147,102.4z M290.882,52.245l49.11,45.976h-49.11V52.245z M260.057,427.363l-15.151-10.449
	c-5.224-3.657-12.016-3.657-17.241,0l-15.151,10.449v-37.094c7.314,3.135,15.673,4.702,24.033,4.702
	c8.359,0,16.718-1.567,24.033-4.702v37.094H260.057z M236.025,363.624c-17.241,0-30.824-13.584-30.824-30.824
	c0-17.241,13.584-30.824,30.824-30.824s30.824,13.584,30.824,30.824C266.849,350.041,253.265,363.624,236.025,363.624z
	 M291.404,369.371v-8.359c4.18-8.359,6.792-17.763,6.792-28.212c0-34.482-27.69-62.171-62.171-62.171s-62.171,27.69-62.171,62.171
	c0,9.927,2.612,19.853,6.792,28.212v8.359h-72.098V31.347h150.988v82.547c0,8.882,6.792,15.673,15.673,15.673h88.294v239.804
	H291.404z"/>
<g>
</g>
<g>
</g>
<g>
</g>
<g>
</g>
<g>
</g>
<g>
</g>
<g>
</g>
<g>
</g>
<g>
</g>
<g>
</g>
<g>
</g>
<g>
</g>
<g>
</g>
<g>
</g>
<g>
</g>
</svg>
