<?xml version="1.0" encoding="iso-8859-1"?>
<!-- Generator: Adobe Illustrator 19.0.0, SVG Export Plug-In . SVG Version: 6.00 Build 0)  -->
<svg version="1.1" id="Capa_1" xmlns="http://www.w3.org/2000/svg" xmlns:xlink="http://www.w3.org/1999/xlink" x="0px" y="0px"
	 viewBox="0 0 497.47 497.47" style="enable-background:new 0 0 497.47 497.47;" xml:space="preserve">
<path style="fill:#1185E0;" d="M476.473,167.531h-31.347v-50.678h-52.767V85.506H460.8c8.882,0,15.673,6.792,15.673,15.673V167.531z
	 M52.245,167.531H20.898V46.322c0-8.882,6.792-15.673,15.673-15.673h98.743c3.657,0,7.314,1.567,9.927,3.657l60.082,51.2h41.796
	v31.347h-47.543c-3.657,0-7.314-1.567-9.927-3.657l-60.082-51.2H52.245V167.531z"/>
<path style="fill:#4DCFE0;" d="M114.939,181.637l-13.584-28.212l258.09-121.731c3.657-2.09,8.359-2.09,12.016-0.522
	c3.657,1.567,7.314,4.18,8.882,7.837l57.992,123.298l-28.212,13.584l-51.2-109.192L114.939,181.637z"/>
<path style="fill:#1185E0;" d="M466.024,467.416H31.347c-8.359,0-15.151-6.269-15.673-14.629L0,168.575
	c0-4.18,1.045-8.359,4.18-11.494c3.135-3.135,7.314-4.702,11.494-4.702h466.024c4.18,0,8.359,1.567,11.494,4.702
	c3.135,3.135,4.702,7.314,4.18,11.494l-15.673,284.212C481.176,461.147,474.384,467.416,466.024,467.416z M45.976,436.069h404.898
	l14.106-252.865H32.392L45.976,436.069z"/>
<g>
</g>
<g>
</g>
<g>
</g>
<g>
</g>
<g>
</g>
<g>
</g>
<g>
</g>
<g>
</g>
<g>
</g>
<g>
</g>
<g>
</g>
<g>
</g>
<g>
</g>
<g>
</g>
<g>
</g>
</svg>
