<?xml version="1.0" encoding="iso-8859-1"?>
<!-- Generator: Adobe Illustrator 19.0.0, SVG Export Plug-In . SVG Version: 6.00 Build 0)  -->
<svg version="1.1" id="Capa_1" xmlns="http://www.w3.org/2000/svg" xmlns:xlink="http://www.w3.org/1999/xlink" x="0px" y="0px"
	 viewBox="0 0 496.327 496.327" style="enable-background:new 0 0 496.327 496.327;" xml:space="preserve">
<g>
	<path style="fill:#1185E0;" d="M435.722,463.151h-99.265c-8.359,0-15.151-6.269-15.673-14.629l-7.837-102.4l31.347-2.612
		l6.792,87.771h70.008l9.404-119.118c0.522-8.359,7.314-14.629,15.673-14.629h18.286v-83.069c0-26.122-20.898-47.02-47.02-47.02
		h-62.171c-17.763,0-33.959,9.927-41.796,25.6l-27.69-14.629c13.584-26.122,40.229-42.318,70.008-42.318h62.171
		c43.363,0,78.367,35.004,78.367,78.367v98.743c0,8.882-6.792,15.673-15.673,15.673h-19.331l-9.927,119.641
		C450.873,456.882,444.082,463.151,435.722,463.151z"/>
	<path style="fill:#1185E0;" d="M386.09,127.739c-34.482,0-62.694-28.212-62.694-62.694S351.608,2.351,386.09,2.351
		s62.694,28.212,62.694,62.694S420.571,127.739,386.09,127.739z M386.09,33.698c-17.241,0-31.347,14.106-31.347,31.347
		s14.106,31.347,31.347,31.347c17.241,0,31.347-14.106,31.347-31.347S403.331,33.698,386.09,33.698z"/>
	<path style="fill:#1185E0;" d="M158.824,463.151H59.559c-8.359,0-15.151-6.269-15.673-14.629l-9.404-119.641H15.673
		C6.792,328.882,0,322.09,0,313.208v-98.22c0-43.363,35.004-78.367,78.367-78.367h62.171c29.257,0,55.902,16.196,70.008,42.318
		l-27.69,14.629c-8.359-15.673-24.555-25.6-41.796-25.6H78.367c-26.122,0-47.02,20.898-47.02,47.02v82.547H49.11
		c8.359,0,15.151,6.269,15.673,14.629l9.404,119.641h70.008l6.792-88.816l31.347,2.612l-7.837,102.922
		C173.976,456.882,167.184,463.151,158.824,463.151z"/>
	<path style="fill:#1185E0;" d="M109.192,127.739c-34.482,0-62.694-28.212-62.694-62.694S74.71,2.351,109.192,2.351
		s62.694,28.212,62.694,62.694S143.673,127.739,109.192,127.739z M109.192,33.698c-17.241,0-31.347,14.106-31.347,31.347
		s14.106,31.347,31.347,31.347s31.347-14.106,31.347-31.347S126.433,33.698,109.192,33.698z"/>
</g>
<g>
	<path style="fill:#4DCFE0;" d="M297.796,493.975h-99.265c-8.359,0-15.151-6.269-15.673-14.629l-9.927-119.641h-18.808
		c-8.882,0-15.673-6.792-15.673-15.673V245.29c0-43.363,35.004-78.367,78.367-78.367h62.171c43.363,0,78.367,35.004,78.367,78.367
		v98.743c0,8.882-6.792,15.673-15.673,15.673h-18.808l-9.404,119.641C312.947,487.706,306.155,493.975,297.796,493.975z
		 M213.159,462.629h70.531l9.404-119.641c0.522-8.359,7.314-14.629,15.673-14.629h17.241V245.29c0-26.122-20.898-47.02-47.02-47.02
		h-62.171c-26.122,0-47.02,20.898-47.02,47.02v83.069h17.763c8.359,0,15.151,6.269,15.673,14.629L213.159,462.629z"/>
	<path style="fill:#4DCFE0;" d="M247.641,158.041c-34.482,0-62.694-28.212-62.694-62.694s28.212-62.694,62.694-62.694
		s62.694,28.212,62.694,62.694S282.122,158.041,247.641,158.041z M247.641,64c-17.241,0-31.347,14.106-31.347,31.347
		s14.106,31.347,31.347,31.347s31.347-14.106,31.347-31.347S264.882,64,247.641,64z"/>
</g>
<g>
</g>
<g>
</g>
<g>
</g>
<g>
</g>
<g>
</g>
<g>
</g>
<g>
</g>
<g>
</g>
<g>
</g>
<g>
</g>
<g>
</g>
<g>
</g>
<g>
</g>
<g>
</g>
<g>
</g>
</svg>
