<?xml version="1.0" encoding="iso-8859-1"?>
<!-- Generator: Adobe Illustrator 19.0.0, SVG Export Plug-In . SVG Version: 6.00 Build 0)  -->
<svg version="1.1" id="Capa_1" xmlns="http://www.w3.org/2000/svg" xmlns:xlink="http://www.w3.org/1999/xlink" x="0px" y="0px"
	 viewBox="0 0 432.065 432.065" style="enable-background:new 0 0 432.065 432.065;" xml:space="preserve">
<path style="fill:#1185E0;" d="M215.771,413.975c-2.612,0-5.224-0.522-7.314-2.09L8.359,302.694C3.135,300.082,0,294.857,0,289.11
	c0-5.747,3.135-10.971,8.359-13.584l66.351-36.571l15.151,27.69L48.065,289.11l167.706,91.429l167.706-91.429l-41.273-22.988
	l15.151-27.69l66.351,36.571c5.224,2.612,8.359,7.837,8.359,13.584c0,5.747-3.135,10.971-8.359,13.584l-200.62,109.714
	C220.996,413.453,218.384,413.975,215.771,413.975z"/>
<path style="fill:#4DCFE0;" d="M215.771,340.833c-2.612,0-5.224-0.522-7.314-2.09L8.359,229.551C3.135,226.939,0,221.714,0,215.967
	c0-5.747,3.135-10.971,8.359-13.584l66.873-36.571l15.151,27.69l-41.796,22.465l167.184,91.429l167.184-91.429l-41.796-22.988
	l15.151-27.69l66.873,36.571c5.224,2.612,8.359,7.837,8.359,13.584c0,5.747-3.135,10.971-8.359,13.584L223.086,338.743
	C220.996,340.31,218.384,340.833,215.771,340.833z"/>
<path style="fill:#1185E0;" d="M215.771,267.69c-2.612,0-5.224-0.522-7.314-2.09L8.359,156.408C3.135,153.796,0,148.571,0,142.824
	s3.135-10.971,8.359-13.584L208.457,20.049c4.702-2.612,10.449-2.612,15.151,0l200.098,109.192
	c5.224,2.612,8.359,7.837,8.359,13.584s-3.135,10.971-8.359,13.584L223.086,265.6C220.996,267.167,218.384,267.69,215.771,267.69z
	 M48.588,142.824l167.184,91.429l167.184-91.429L215.771,51.396L48.588,142.824z"/>
<g>
</g>
<g>
</g>
<g>
</g>
<g>
</g>
<g>
</g>
<g>
</g>
<g>
</g>
<g>
</g>
<g>
</g>
<g>
</g>
<g>
</g>
<g>
</g>
<g>
</g>
<g>
</g>
<g>
</g>
</svg>
