<svg xmlns="http://www.w3.org/2000/svg" xmlns:xlink="http://www.w3.org/1999/xlink" width="653.506" height="405" viewBox="0 0 653.506 405"><defs><linearGradient id="a" x1="0.5" x2="0.5" y2="1" gradientUnits="objectBoundingBox"><stop offset="0" stop-color="#0069aa"/><stop offset="1" stop-color="#0069aa" stop-opacity="0.6"/></linearGradient><clipPath id="c"><path d="M2.55,105.62v17.524c0,6.092,27.271,11.077,60.923,11.077S124.4,129.3,124.4,123.144V105.62Z" transform="translate(-2.55 -105.62)" fill="none"/></clipPath><clipPath id="d"><path d="M4.8,96.63v17.524c0,6.07,27.293,11.077,60.945,11.077s60.923-4.94,60.923-11.077V96.63Z" transform="translate(-4.8 -96.63)" fill="none"/></clipPath><clipPath id="e"><path d="M0,86.78V104.3c0,6.07,27.271,11.077,60.923,11.077s60.923-4.94,60.923-11.077V86.78Z" transform="translate(0 -86.78)" fill="none"/></clipPath><clipPath id="f"><path d="M2.55,77.79V95.314c0,6.07,27.271,11.077,60.923,11.077S124.4,101.472,124.4,95.314V77.79Z" transform="translate(-2.55 -77.79)" fill="none"/></clipPath><clipPath id="g"><path d="M3.72,68.79V86.314c0,6.092,27.271,11.077,60.923,11.077s60.923-4.918,60.923-11.077V68.79Z" transform="translate(-3.72 -68.79)" fill="none"/></clipPath><clipPath id="h"><path d="M6.44,59.66V77.184c0,6.092,27.271,11.077,60.923,11.077s60.923-4.918,60.923-11.077V59.66Z" transform="translate(-6.44 -59.66)" fill="none"/></clipPath><clipPath id="i"><path d="M5.77,51.07V68.638c0,6.07,27.271,11.077,60.923,11.077s60.923-4.94,60.923-11.077V51.07Z" transform="translate(-5.77 -51.07)" fill="none"/></clipPath><clipPath id="j"><path d="M8,42.08V59.626C8,65.7,35.293,70.7,68.945,70.7s60.9-5.029,60.9-11.077V42.08Z" transform="translate(-8 -42.08)" fill="none"/></clipPath><clipPath id="k"><path d="M3.22,32.23V49.754c0,6.07,27.271,11.077,60.923,11.077s60.923-4.94,60.923-11.077V32.23Z" transform="translate(-3.22 -32.23)" fill="none"/></clipPath><clipPath id="l"><path d="M5.77,23.24V40.764c0,6.07,27.271,11.077,60.923,11.077s60.923-4.918,60.923-11.077V23.24Z" transform="translate(-5.77 -23.24)" fill="none"/></clipPath><clipPath id="m"><path d="M6.94,14.24V31.764c0,6.092,27.271,11.077,60.923,11.077s60.923-4.918,60.923-11.077V14.24Z" transform="translate(-6.94 -14.24)" fill="none"/></clipPath><clipPath id="n"><path d="M9.66,5.11V22.589c0,6.092,27.271,11.077,60.923,11.077s60.923-4.918,60.923-11.077V5.11Z" transform="translate(-9.66 -5.11)" fill="none"/></clipPath><clipPath id="o"><path d="M58.84,108.79v17.524c0,6.07,27.271,11.077,60.923,11.077s60.923-4.918,60.923-11.077V108.79Z" transform="translate(-58.84 -108.79)" fill="none"/></clipPath><clipPath id="p"><path d="M55.52,98.39v17.524c0,6.07,27.293,11.077,60.923,11.077s60.945-4.918,60.945-11.077V98.39Z" transform="translate(-55.52 -98.39)" fill="none"/></clipPath><clipPath id="q"><path d="M58.44,89.4v17.524c0,6.07,27.293,11.077,60.923,11.077s60.945-4.918,60.945-11.077V89.4Z" transform="translate(-58.44 -89.4)" fill="none"/></clipPath><clipPath id="r"><path d="M54.32,79.64V97.164c0,6.07,27.271,11.077,60.923,11.077s60.923-4.918,60.923-11.077V79.64Z" transform="translate(-54.32 -79.64)" fill="none"/></clipPath><clipPath id="s"><path d="M56.33,70V87.524c0,6.07,27.271,11.077,60.923,11.077s60.923-4.918,60.923-11.077V70Z" transform="translate(-56.33 -70)" fill="none"/></clipPath><clipPath id="t"><path d="M53.18,61V78.524c0,6.092,27.293,11.077,60.945,11.077s60.923-4.918,60.923-11.077V61Z" transform="translate(-53.18 -61)" fill="none"/></clipPath><clipPath id="u"><path d="M55.86,52V69.524c0,6.07,27.271,11.077,60.923,11.077s60.923-4.94,60.923-11.077V52Z" transform="translate(-55.86 -52)" fill="none"/></clipPath><clipPath id="v"><path d="M53.18,42.14V59.664c0,6.07,27.293,11.077,60.945,11.077s60.923-4.94,60.923-11.077V42.14Z" transform="translate(-53.18 -42.14)" fill="none"/></clipPath><clipPath id="w"><path d="M58.44,33.46V50.984c0,6.07,27.293,11.077,60.923,11.077s60.945-4.94,60.945-11.077V33.46Z" transform="translate(-58.44 -33.46)" fill="none"/></clipPath><clipPath id="x"><path d="M55.42,23.91V41.434c0,6.07,27.271,11.077,60.923,11.077s60.923-4.94,60.923-11.077V23.91Z" transform="translate(-55.42 -23.91)" fill="none"/></clipPath><clipPath id="y"><path d="M58.44,14.92V32.444c0,6.07,27.293,11.077,60.923,11.077s60.945-4.918,60.945-11.077V14.92Z" transform="translate(-58.44 -14.92)" fill="none"/></clipPath><clipPath id="z"><path d="M101.24,78.544,90.828,73.67,40.76,177.793l10.191,5.1c27.471,13.071,60.7.443,74.658-28.357S128.711,91.615,101.24,78.544Z" transform="translate(-40.76 -73.67)" fill="none"/></clipPath><clipPath id="aa"><path d="M133.188,73.828,144.93,71.17l29.908,129.821-11.742,2.88c-31.458,7.311-63.581-15.951-71.778-51.84S101.818,80.918,133.188,73.828Z" transform="translate(-89.39 -71.17)" fill="none"/></clipPath></defs><g transform="translate(-895.494 -10554)"><g transform="translate(895.55 10652.399)"><g transform="translate(0 0)"><g transform="translate(0 0)"><path d="M42.093,64.947,29.12,42.725,16.207,64.947H-.008l20.54-32.972L.713-.037h16.1L28.94,21.344,41.312-.037H57.528L37.649,31.974l20.54,32.972Z" transform="translate(185.444 152.138)" fill="url(#a)"/><path d="M4.031,215.2V190.821L74.84,113.589Q90.169,96.507,96.666,85.046a46.248,46.248,0,0,0,6.5-22.994q0-15.183-8.54-24.528t-23-9.344q-17.227,0-26.717,10.512T35.42,67.454H-.057A69.526,69.526,0,0,1,8.777,32.488,60.819,60.819,0,0,1,34.034,8.325Q50.459-.288,71.92-.288q30.951,0,48.836,15.548t17.884,43q0,15.914-8.978,33.36t-29.418,39.638L48.268,186.879h98.694V215.2Z" transform="translate(0 0)" fill="url(#a)"/></g></g></g><circle cx="202.5" cy="202.5" r="202.5" transform="translate(1144 10554)" fill="#f5f6fa"/><g transform="translate(1181.265 10615.329)"><path d="M83.48,81.1V97.826c0,5.782,27.2,10.479,60.746,10.479s60.724-4.7,60.724-10.479V81.1Z" transform="translate(101.46 98.567)" fill="#e79e28"/><path d="M204.949,86.761c0,5.782-27.183,10.479-60.724,10.479S83.48,92.454,83.48,86.761s27.2-10.5,60.746-10.5S204.949,80.868,204.949,86.761Z" transform="translate(101.46 92.685)" fill="#ebc437"/><path d="M185.668,83.134c0,2.681-21.622,4.874-48.273,4.874s-48.3-2.215-48.3-4.874,21.622-4.874,48.3-4.874S185.668,80.453,185.668,83.134Z" transform="translate(108.29 95.116)" fill="#e69d25"/><path d="M91.142,84.552c6.026-1.994,24.369-3.456,46.213-3.456s40.165,1.462,46.191,3.456c1.351-.443,2.082-.93,2.082-1.418,0-2.681-21.622-4.874-48.273-4.874s-48.3,2.215-48.3,4.874C89.149,83.621,89.88,84.109,91.142,84.552Z" transform="translate(108.242 95.116)" fill="#cc8420"/><path d="M80.37,71.93v16.7c0,5.8,27.2,10.5,60.724,10.5s60.746-4.7,60.746-10.5V71.93Z" transform="translate(97.68 87.422)" fill="#e79e28"/><ellipse cx="60.724" cy="10.501" rx="60.724" ry="10.501" transform="translate(178.072 148.519)" fill="#ebc437"/><ellipse cx="48.273" cy="4.874" rx="48.273" ry="4.874" transform="translate(190.523 153.061)" fill="#e69d25"/><path d="M88.06,75.382c6.026-2.016,24.369-3.456,46.191-3.456s40.187,1.44,46.213,3.456c1.351-.465,2.082-.93,2.082-1.418,0-2.7-21.622-4.874-48.3-4.874S86,71.261,86,73.964C86,74.451,86.709,74.916,88.06,75.382Z" transform="translate(104.523 83.971)" fill="#cc8420"/><path d="M82.68,62.26v16.7c0,5.8,27.183,10.5,60.724,10.5s60.724-4.7,60.724-10.5V62.26Z" transform="translate(100.487 75.669)" fill="#e79e28"/><path d="M204.127,67.859c0,5.8-27.183,10.5-60.724,10.5s-60.724-4.7-60.724-10.5S109.973,57.38,143.4,57.38,204.127,62.077,204.127,67.859Z" transform="translate(100.487 69.738)" fill="#ebc437"/><path d="M184.846,64.294c0,2.681-21.6,4.852-48.273,4.852S88.3,66.93,88.3,64.294s21.6-4.874,48.273-4.874S184.846,61.591,184.846,64.294Z" transform="translate(107.318 72.218)" fill="#e69d25"/><path d="M90.382,65.712c6-2.016,24.369-3.456,46.191-3.456s40.187,1.44,46.191,3.456c1.351-.465,2.082-.93,2.082-1.418,0-2.7-21.6-4.874-48.273-4.874S88.3,61.635,88.3,64.294C88.3,64.781,89.031,65.246,90.382,65.712Z" transform="translate(107.318 72.218)" fill="#cc8420"/><path d="M80.7,52.78V69.506c0,5.782,27.183,10.479,60.724,10.479s60.724-4.7,60.724-10.479V52.78Z" transform="translate(98.081 64.148)" fill="#e79e28"/><path d="M202.147,58.389c0,5.8-27.183,10.5-60.724,10.5S80.7,64.193,80.7,58.389,107.949,47.91,141.424,47.91,202.147,52.54,202.147,58.389Z" transform="translate(98.081 58.229)" fill="#ebc437"/><path d="M182.866,54.741c0,2.7-21.6,4.874-48.273,4.874S86.32,57.4,86.32,54.741,107.942,50,134.593,50,182.866,52.06,182.866,54.741Z" transform="translate(104.911 60.769)" fill="#e69d25"/><path d="M88.4,56.22c6-1.994,24.369-3.456,46.191-3.456s40.187,1.462,46.191,3.456c1.351-.443,2.082-.908,2.082-1.418,0-2.681-21.6-4.852-48.273-4.852S86.32,52.165,86.32,54.8C86.32,55.311,87.051,55.776,88.4,56.22Z" transform="translate(104.911 60.708)" fill="#cc8420"/><path d="M83,43.93V60.656c0,5.8,27.183,10.5,60.724,10.5s60.724-4.7,60.724-10.5V43.93Z" transform="translate(100.876 53.392)" fill="#e79e28"/><path d="M204.469,49.539c0,5.8-27.183,10.5-60.724,10.5S83,55.343,83,49.539,110.183,39.06,143.724,39.06,204.469,43.757,204.469,49.539Z" transform="translate(100.876 47.473)" fill="#ebc437"/><path d="M185.176,45.952c0,2.7-21.6,4.874-48.273,4.874S88.63,48.61,88.63,45.952,110.252,41.1,136.9,41.1,185.176,43.271,185.176,45.952Z" transform="translate(107.719 49.952)" fill="#e69d25"/><path d="M90.712,47.37c6-1.994,24.369-3.456,46.191-3.456s40.187,1.462,46.191,3.456c1.351-.443,2.082-.908,2.082-1.418,0-2.681-21.6-4.852-48.273-4.852S88.63,43.315,88.63,45.952C88.63,46.461,89.45,46.926,90.712,47.37Z" transform="translate(107.719 49.952)" fill="#cc8420"/><path d="M80.34,34.993,80.5,51.808c0,5.8,27.293,10.235,60.812,9.925s60.7-5.295,60.635-11.077l-.155-16.726Z" transform="translate(97.644 41.238)" fill="#e79e28"/><path d="M201.787,39.2c0,5.8-27.094,10.767-60.635,11.077S80.384,46.161,80.34,40.356s27.094-10.745,60.635-11.077S201.743,33.422,201.787,39.2Z" transform="translate(97.643 35.565)" fill="#ebc437"/><path d="M182.458,35.74c0,2.681-21.578,5.073-48.229,5.317S86,39.351,86,36.648s21.578-5.073,48.229-5.317S182.413,33.037,182.458,35.74Z" transform="translate(104.523 38.054)" fill="#e69d25"/><path d="M87.994,38.056c6-2.06,24.369-3.678,46.168-3.877s40.187,1.063,46.213,3.013c1.351-.465,2.082-.953,2.082-1.44,0-2.7-21.666-4.674-48.34-4.431S85.867,33.98,86,36.66C86,37.148,86.643,37.635,87.994,38.056Z" transform="translate(104.522 38.042)" fill="#cc8420"/><path d="M83,26.442l.155,16.726c0,5.782,27.271,10.235,60.812,9.9S204.646,47.8,204.6,41.994l-.155-16.7Z" transform="translate(100.876 30.737)" fill="#e79e28"/><path d="M204.491,30.6c0,5.782-27.094,10.745-60.635,11.077S83,37.539,83,31.756s27.094-10.745,60.635-11.077S204.425,24.8,204.491,30.6Z" transform="translate(100.876 25.112)" fill="#ebc437"/><path d="M185.176,27.144c0,2.7-21.556,5.073-48.229,5.339s-48.3-1.728-48.317-4.431,21.578-5.073,48.229-5.339S185.154,24.463,185.176,27.144Z" transform="translate(107.719 27.576)" fill="#e69d25"/><path d="M90.712,29.466c6-2.06,24.369-3.7,46.168-3.9s40.209,1.063,46.235,3.013c1.351-.465,2.06-.93,2.06-1.44,0-2.681-21.666-4.652-48.317-4.431S88.608,25.368,88.63,28.071C88.63,28.558,89.45,29.023,90.712,29.466Z" transform="translate(107.719 27.58)" fill="#cc8420"/><path d="M83,17.232l.155,16.7c0,5.8,27.271,10.235,60.812,9.925s60.679-5.273,60.635-11.077l-.155-16.7Z" transform="translate(100.876 19.543)" fill="#e79e28"/><path d="M204.491,21.393c0,5.782-27.094,10.745-60.635,11.077S83,28.327,83,22.545s27.094-10.767,60.635-11.077S204.425,15.589,204.491,21.393Z" transform="translate(100.876 13.92)" fill="#ebc437"/><path d="M185.176,17.934c0,2.7-21.556,5.073-48.229,5.339s-48.3-1.728-48.317-4.431,21.578-5.073,48.229-5.339S185.154,15.253,185.176,17.934Z" transform="translate(107.719 16.383)" fill="#e69d25"/><path d="M90.712,20.256c6-2.06,24.369-3.7,46.169-3.9s40.209,1.063,46.235,3.013c1.351-.465,2.06-.953,2.06-1.44,0-2.681-21.666-4.652-48.317-4.431S88.608,16.136,88.63,18.838C88.63,19.348,89.45,19.813,90.712,20.256Z" transform="translate(107.719 16.386)" fill="#cc8420"/><path d="M2.55,105.62v17.524c0,6.092,27.271,11.077,60.923,11.077S124.4,129.3,124.4,123.144V105.62Z" transform="translate(3.099 128.368)" fill="#edbb3c"/><g transform="translate(5.649 233.988)" clip-path="url(#c)"><rect width="2.88" height="40.165" transform="translate(1.329 -7.266)" fill="#eaa92a"/><rect width="2.88" height="40.165" transform="translate(8.795 -7.266)" fill="#eaa92a"/><rect width="2.88" height="40.165" transform="translate(17.346 -7.266)" fill="#eaa92a"/><rect width="2.88" height="40.165" transform="translate(28.002 -7.266)" fill="#eaa92a"/><rect width="2.88" height="40.165" transform="translate(39.7 -7.266)" fill="#eaa92a"/><rect width="2.88" height="40.165" transform="translate(52.482 -7.266)" fill="#eaa92a"/><rect width="2.88" height="40.165" transform="translate(117.614 -7.266)" fill="#eaa92a"/><rect width="2.88" height="40.165" transform="translate(110.149 -7.266)" fill="#eaa92a"/><rect width="2.88" height="40.165" transform="translate(101.597 -7.266)" fill="#eaa92a"/><rect width="2.88" height="40.165" transform="translate(90.963 -7.266)" fill="#eaa92a"/><rect width="2.88" height="40.165" transform="translate(79.244 -7.266)" fill="#eaa92a"/><rect width="2.88" height="40.165" transform="translate(66.461 -7.266)" fill="#eaa92a"/></g><path d="M124.4,111.557c0,6.07-27.271,11.077-60.923,11.077S2.55,117.716,2.55,111.557,29.821,100.48,63.473,100.48,124.4,105.465,124.4,111.557Z" transform="translate(3.099 122.121)" fill="#f2d25e"/><path d="M105.059,107.8c0,2.836-21.689,5.118-48.428,5.118S8.18,110.7,8.18,107.8s21.689-5.1,48.45-5.1S105.059,104.871,105.059,107.8Z" transform="translate(9.942 124.819)" fill="#ebae39"/><path d="M10.285,109.23c6.026-2.082,24.369-3.611,46.346-3.611s40.3,1.529,46.346,3.611c1.351-.465,2.082-.953,2.082-1.484,0-2.814-21.689-5.1-48.428-5.1s-48.45,2.215-48.45,5.1C8.18,108.277,8.933,108.764,10.285,109.23Z" transform="translate(9.942 124.759)" fill="#cc8420"/><path d="M4.8,96.63v17.524c0,6.07,27.293,11.077,60.945,11.077s60.923-4.94,60.923-11.077V96.63Z" transform="translate(5.834 117.442)" fill="#edbb3c"/><g transform="translate(10.634 214.072)" clip-path="url(#d)"><rect width="2.88" height="40.165" transform="translate(1.351 -7.289)" fill="#eaa92a"/><rect width="2.88" height="40.165" transform="translate(8.817 -7.289)" fill="#eaa92a"/><rect width="2.88" height="40.165" transform="translate(17.369 -7.289)" fill="#eaa92a"/><rect width="2.88" height="40.165" transform="translate(28.002 -7.289)" fill="#eaa92a"/><rect width="2.88" height="40.165" transform="translate(39.722 -7.289)" fill="#eaa92a"/><rect width="2.88" height="40.165" transform="translate(52.504 -7.289)" fill="#eaa92a"/><rect width="2.88" height="40.165" transform="translate(117.637 -7.289)" fill="#eaa92a"/><rect width="2.88" height="40.165" transform="translate(110.171 -7.289)" fill="#eaa92a"/><rect width="2.88" height="40.165" transform="translate(101.619 -7.289)" fill="#eaa92a"/><rect width="2.88" height="40.165" transform="translate(90.963 -7.289)" fill="#eaa92a"/><rect width="2.88" height="40.165" transform="translate(79.266 -7.289)" fill="#eaa92a"/><rect width="2.88" height="40.165" transform="translate(66.484 -7.289)" fill="#eaa92a"/></g><path d="M126.668,102.557c0,6.07-27.293,11.077-60.923,11.077S4.8,108.627,4.8,102.557,32.093,91.48,65.745,91.48,126.668,96.487,126.668,102.557Z" transform="translate(5.834 111.183)" fill="#f2d25e"/><path d="M107.319,98.8c0,2.814-21.689,5.1-48.428,5.1s-48.45-2.215-48.45-5.1,21.689-5.1,48.45-5.1S107.319,95.893,107.319,98.8Z" transform="translate(12.689 113.881)" fill="#ebae39"/><path d="M12.522,100.24c6.048-2.1,24.5-3.611,46.368-3.611s40.3,1.506,46.346,3.611c1.351-.465,2.082-.975,2.082-1.484,0-2.814-21.689-5.1-48.428-5.1s-48.45,2.215-48.45,5.1C10.44,99.265,11.171,99.774,12.522,100.24Z" transform="translate(12.689 113.832)" fill="#cc8420"/><path d="M0,86.78V104.3c0,6.07,27.271,11.077,60.923,11.077s60.923-4.94,60.923-11.077V86.78Z" transform="translate(0 105.471)" fill="#edbb3c"/><g transform="translate(0 192.251)" clip-path="url(#e)"><rect width="2.88" height="40.165" transform="translate(1.329 -7.266)" fill="#eaa92a"/><rect width="2.88" height="40.165" transform="translate(8.817 -7.266)" fill="#eaa92a"/><rect width="2.88" height="40.165" transform="translate(17.346 -7.266)" fill="#eaa92a"/><rect width="2.88" height="40.165" transform="translate(28.002 -7.266)" fill="#eaa92a"/><rect width="2.88" height="40.165" transform="translate(39.722 -7.266)" fill="#eaa92a"/><rect width="2.88" height="40.165" transform="translate(52.482 -7.266)" fill="#eaa92a"/><rect width="2.88" height="40.165" transform="translate(117.637 -7.266)" fill="#eaa92a"/><rect width="2.88" height="40.165" transform="translate(110.149 -7.266)" fill="#eaa92a"/><rect width="2.88" height="40.165" transform="translate(101.619 -7.266)" fill="#eaa92a"/><rect width="2.88" height="40.165" transform="translate(90.963 -7.266)" fill="#eaa92a"/><rect width="2.88" height="40.165" transform="translate(79.244 -7.266)" fill="#eaa92a"/><rect width="2.88" height="40.165" transform="translate(66.484 -7.266)" fill="#eaa92a"/></g><path d="M121.846,92.707c0,6.092-27.271,11.077-60.923,11.077S0,98.8,0,92.707,27.271,81.63,60.923,81.63,121.846,86.637,121.846,92.707Z" transform="translate(0 99.211)" fill="#f2d25e"/><path d="M102.5,88.905c0,2.814-21.666,5.118-48.428,5.118S5.64,91.808,5.64,88.905s21.689-5.1,48.428-5.1S102.5,86.092,102.5,88.905Z" transform="translate(6.855 101.861)" fill="#ebae39"/><path d="M7.722,90.39c6.026-2.082,24.5-3.611,46.346-3.611s40.32,1.529,46.346,3.611c1.351-.465,2.082-.953,2.082-1.484,0-2.814-21.666-5.1-48.428-5.1S5.64,86.025,5.64,88.905C5.64,89.437,6.438,89.924,7.722,90.39Z" transform="translate(6.855 101.861)" fill="#cc8420"/><path d="M2.55,77.79V95.314c0,6.07,27.271,11.077,60.923,11.077S124.4,101.472,124.4,95.314V77.79Z" transform="translate(3.099 94.544)" fill="#edbb3c"/><g transform="translate(5.649 172.334)" clip-path="url(#f)"><rect width="2.88" height="40.165" transform="translate(1.329 -7.289)" fill="#eaa92a"/><rect width="2.88" height="40.165" transform="translate(8.795 -7.289)" fill="#eaa92a"/><rect width="2.88" height="40.165" transform="translate(17.346 -7.289)" fill="#eaa92a"/><rect width="2.88" height="40.165" transform="translate(28.002 -7.289)" fill="#eaa92a"/><rect width="2.88" height="40.165" transform="translate(39.7 -7.289)" fill="#eaa92a"/><rect width="2.88" height="40.165" transform="translate(52.482 -7.289)" fill="#eaa92a"/><rect width="2.88" height="40.165" transform="translate(117.614 -7.289)" fill="#eaa92a"/><rect width="2.88" height="40.165" transform="translate(110.149 -7.289)" fill="#eaa92a"/><rect width="2.88" height="40.165" transform="translate(101.597 -7.289)" fill="#eaa92a"/><rect width="2.88" height="40.165" transform="translate(90.963 -7.289)" fill="#eaa92a"/><rect width="2.88" height="40.165" transform="translate(79.244 -7.289)" fill="#eaa92a"/><rect width="2.88" height="40.165" transform="translate(66.461 -7.289)" fill="#eaa92a"/></g><path d="M124.4,83.717c0,6.07-27.271,11.077-60.923,11.077S2.55,89.854,2.55,83.717,29.821,72.64,63.473,72.64,124.4,77.647,124.4,83.717Z" transform="translate(3.099 88.285)" fill="#f2d25e"/><path d="M105.059,79.928c0,2.814-21.689,5.1-48.428,5.1s-48.45-2.215-48.45-5.1S29.935,74.81,56.63,74.81,105.059,77.114,105.059,79.928Z" transform="translate(9.942 90.922)" fill="#ebae39"/><path d="M10.285,81.412C16.31,79.2,34.654,77.779,56.63,77.779s40.3,1.529,46.346,3.633c1.351-.465,2.082-.975,2.082-1.484,0-2.814-21.689-5.118-48.428-5.118S8.18,77.025,8.18,79.928C8.18,80.437,8.933,80.947,10.285,81.412Z" transform="translate(9.942 90.922)" fill="#cc8420"/><path d="M3.72,68.79V86.314c0,6.092,27.271,11.077,60.923,11.077s60.923-4.918,60.923-11.077V68.79Z" transform="translate(4.521 83.606)" fill="#edbb3c"/><g transform="translate(8.241 152.396)" clip-path="url(#g)"><rect width="2.88" height="40.165" transform="translate(1.329 -7.266)" fill="#eaa92a"/><rect width="2.88" height="40.165" transform="translate(8.817 -7.266)" fill="#eaa92a"/><rect width="2.88" height="40.165" transform="translate(17.346 -7.266)" fill="#eaa92a"/><rect width="2.88" height="40.165" transform="translate(28.002 -7.266)" fill="#eaa92a"/><rect width="2.88" height="40.165" transform="translate(39.722 -7.266)" fill="#eaa92a"/><rect width="2.88" height="40.165" transform="translate(52.482 -7.266)" fill="#eaa92a"/><rect width="2.88" height="40.165" transform="translate(117.637 -7.266)" fill="#eaa92a"/><rect width="2.88" height="40.165" transform="translate(110.149 -7.266)" fill="#eaa92a"/><rect width="2.88" height="40.165" transform="translate(101.619 -7.266)" fill="#eaa92a"/><rect width="2.88" height="40.165" transform="translate(90.963 -7.266)" fill="#eaa92a"/><rect width="2.88" height="40.165" transform="translate(79.244 -7.266)" fill="#eaa92a"/><rect width="2.88" height="40.165" transform="translate(66.484 -7.266)" fill="#eaa92a"/></g><path d="M125.566,74.727c0,6.07-27.271,11.077-60.923,11.077S3.72,80.886,3.72,74.727,30.991,63.65,64.643,63.65,125.566,68.635,125.566,74.727Z" transform="translate(4.521 77.359)" fill="#f2d25e"/><path d="M106.216,70.915c0,2.836-21.666,5.118-48.428,5.118S9.36,73.818,9.36,70.915s21.689-5.1,48.428-5.1S106.216,68.1,106.216,70.915Z" transform="translate(11.376 79.996)" fill="#ebae39"/><path d="M11.442,72.4c6.026-2.082,24.5-3.611,46.346-3.611s40.32,1.529,46.346,3.611c1.351-.465,2.082-.953,2.082-1.484,0-2.814-21.666-5.1-48.428-5.1S9.36,68.035,9.36,70.915C9.36,71.447,10.091,71.934,11.442,72.4Z" transform="translate(11.376 79.996)" fill="#cc8420"/><path d="M6.44,59.66V77.184c0,6.092,27.271,11.077,60.923,11.077s60.923-4.918,60.923-11.077V59.66Z" transform="translate(7.827 72.509)" fill="#edbb3c"/><g transform="translate(14.267 132.169)" clip-path="url(#h)"><rect width="2.88" height="40.165" transform="translate(1.329 -7.266)" fill="#eaa92a"/><rect width="2.88" height="40.165" transform="translate(8.817 -7.266)" fill="#eaa92a"/><rect width="2.88" height="40.165" transform="translate(17.346 -7.266)" fill="#eaa92a"/><rect width="2.88" height="40.165" transform="translate(28.002 -7.266)" fill="#eaa92a"/><rect width="2.88" height="40.165" transform="translate(39.722 -7.266)" fill="#eaa92a"/><rect width="2.88" height="40.165" transform="translate(52.482 -7.266)" fill="#eaa92a"/><rect width="2.88" height="40.165" transform="translate(117.637 -7.266)" fill="#eaa92a"/><rect width="2.88" height="40.165" transform="translate(110.149 -7.266)" fill="#eaa92a"/><rect width="2.88" height="40.165" transform="translate(101.619 -7.266)" fill="#eaa92a"/><rect width="2.88" height="40.165" transform="translate(90.963 -7.266)" fill="#eaa92a"/><rect width="2.88" height="40.165" transform="translate(79.244 -7.266)" fill="#eaa92a"/><rect width="2.88" height="40.165" transform="translate(66.484 -7.266)" fill="#eaa92a"/></g><path d="M128.286,65.6c0,6.07-27.271,11.077-60.923,11.077S6.44,71.756,6.44,65.6,33.711,54.52,67.363,54.52,128.286,59.5,128.286,65.6Z" transform="translate(7.827 66.262)" fill="#f2d25e"/><path d="M108.936,61.8c0,2.836-21.689,5.118-48.428,5.118S12.08,64.7,12.08,61.8s21.689-5.1,48.428-5.1S108.936,58.96,108.936,61.8Z" transform="translate(14.682 68.912)" fill="#ebae39"/><path d="M14.118,63.306c6.07-2.082,24.546-3.678,46.39-3.678s40.32,1.529,46.346,3.611c1.351-.465,2.082-.953,2.082-1.484,0-2.814-21.689-5.1-48.428-5.1s-48.428,2.215-48.428,5.1C12.08,62.354,12.811,62.841,14.118,63.306Z" transform="translate(14.682 68.863)" fill="#cc8420"/><path d="M5.77,51.07V68.638c0,6.07,27.271,11.077,60.923,11.077s60.923-4.94,60.923-11.077V51.07Z" transform="translate(7.013 62.069)" fill="#edbb3c"/><g transform="translate(12.783 113.139)" clip-path="url(#i)"><rect width="2.88" height="40.165" transform="translate(1.329 -7.266)" fill="#eaa92a"/><rect width="2.88" height="40.165" transform="translate(8.795 -7.266)" fill="#eaa92a"/><rect width="2.88" height="40.165" transform="translate(17.346 -7.266)" fill="#eaa92a"/><rect width="2.88" height="40.165" transform="translate(28.002 -7.266)" fill="#eaa92a"/><rect width="2.88" height="40.165" transform="translate(39.7 -7.266)" fill="#eaa92a"/><rect width="2.88" height="40.165" transform="translate(52.482 -7.266)" fill="#eaa92a"/><rect width="2.88" height="40.165" transform="translate(117.614 -7.266)" fill="#eaa92a"/><rect width="2.88" height="40.165" transform="translate(110.149 -7.266)" fill="#eaa92a"/><rect width="2.88" height="40.165" transform="translate(101.597 -7.266)" fill="#eaa92a"/><rect width="2.88" height="40.165" transform="translate(90.963 -7.266)" fill="#eaa92a"/><rect width="2.88" height="40.165" transform="translate(79.244 -7.266)" fill="#eaa92a"/><rect width="2.88" height="40.165" transform="translate(66.461 -7.266)" fill="#eaa92a"/></g><path d="M127.616,57c0,6.092-27.271,11.077-60.923,11.077S5.77,63.156,5.77,57,33.041,45.92,66.693,45.92,127.616,50.927,127.616,57Z" transform="translate(7.013 55.81)" fill="#f2d25e"/><path d="M108.279,53.2c0,2.836-21.689,5.118-48.428,5.118S11.4,56.1,11.4,53.2s21.689-5.1,48.45-5.1S108.279,50.382,108.279,53.2Z" transform="translate(13.855 58.46)" fill="#ebae39"/><path d="M13.5,54.68C19.53,52.6,37.874,51.069,59.85,51.069s40.3,1.529,46.346,3.611c1.351-.465,2.082-.953,2.082-1.484,0-2.814-21.689-5.1-48.428-5.1S11.4,50.315,11.4,53.2C11.4,53.727,12.153,54.214,13.5,54.68Z" transform="translate(13.855 58.46)" fill="#cc8420"/><path d="M8,42.08V59.626C8,65.7,35.293,70.7,68.945,70.7s60.9-5.029,60.9-11.077V42.08Z" transform="translate(9.723 51.143)" fill="#edbb3c"/><g transform="translate(17.723 93.223)" clip-path="url(#j)"><rect width="2.88" height="40.165" transform="translate(1.396 -7.289)" fill="#eaa92a"/><rect width="2.88" height="40.165" transform="translate(8.862 -7.289)" fill="#eaa92a"/><rect width="2.88" height="40.165" transform="translate(17.413 -7.289)" fill="#eaa92a"/><rect width="2.88" height="40.165" transform="translate(28.047 -7.289)" fill="#eaa92a"/><rect width="2.88" height="40.165" transform="translate(39.766 -7.289)" fill="#eaa92a"/><rect width="2.88" height="40.165" transform="translate(52.549 -7.289)" fill="#eaa92a"/><rect width="2.88" height="40.165" transform="translate(117.681 -7.289)" fill="#eaa92a"/><rect width="2.88" height="40.165" transform="translate(110.215 -7.289)" fill="#eaa92a"/><rect width="2.88" height="40.165" transform="translate(101.664 -7.289)" fill="#eaa92a"/><rect width="2.88" height="40.165" transform="translate(91.008 -7.289)" fill="#eaa92a"/><rect width="2.88" height="40.165" transform="translate(79.311 -7.289)" fill="#eaa92a"/><rect width="2.88" height="40.165" transform="translate(66.528 -7.289)" fill="#eaa92a"/></g><path d="M129.846,48.007c0,6.07-27.293,11.077-60.923,11.077S8,54.077,8,48.007,35.293,36.93,68.945,36.93,129.846,41.937,129.846,48.007Z" transform="translate(9.723 44.884)" fill="#f2d25e"/><path d="M110.539,44.218c0,2.814-21.689,5.1-48.428,5.1s-48.45-2.215-48.45-5.1S35.349,39.1,62.11,39.1,110.539,41.4,110.539,44.218Z" transform="translate(16.602 47.521)" fill="#ebae39"/><path d="M15.742,45.7c6.048-2.1,24.5-3.633,46.368-3.633s40.3,1.529,46.346,3.633c1.351-.465,2.082-.975,2.082-1.484,0-2.814-21.689-5.118-48.428-5.118s-48.45,2.215-48.45,5.118C13.66,44.727,14.413,45.237,15.742,45.7Z" transform="translate(16.602 47.521)" fill="#cc8420"/><path d="M3.22,32.23V49.754c0,6.07,27.271,11.077,60.923,11.077s60.923-4.94,60.923-11.077V32.23Z" transform="translate(3.914 39.172)" fill="#edbb3c"/><g transform="translate(7.134 71.402)" clip-path="url(#k)"><rect width="2.88" height="40.165" transform="translate(1.329 -7.266)" fill="#eaa92a"/><rect width="2.88" height="40.165" transform="translate(8.817 -7.266)" fill="#eaa92a"/><rect width="2.88" height="40.165" transform="translate(17.346 -7.266)" fill="#eaa92a"/><rect width="2.88" height="40.165" transform="translate(28.002 -7.266)" fill="#eaa92a"/><rect width="2.88" height="40.165" transform="translate(39.722 -7.266)" fill="#eaa92a"/><rect width="2.88" height="40.165" transform="translate(52.482 -7.266)" fill="#eaa92a"/><rect width="2.88" height="40.165" transform="translate(117.637 -7.266)" fill="#eaa92a"/><rect width="2.88" height="40.165" transform="translate(110.149 -7.266)" fill="#eaa92a"/><rect width="2.88" height="40.165" transform="translate(101.619 -7.266)" fill="#eaa92a"/><rect width="2.88" height="40.165" transform="translate(90.963 -7.266)" fill="#eaa92a"/><rect width="2.88" height="40.165" transform="translate(79.244 -7.266)" fill="#eaa92a"/><rect width="2.88" height="40.165" transform="translate(66.484 -7.266)" fill="#eaa92a"/></g><path d="M125.066,38.157c0,6.092-27.271,11.077-60.923,11.077S3.22,44.316,3.22,38.157,30.491,27.08,64.143,27.08,125.066,32.087,125.066,38.157Z" transform="translate(3.914 32.912)" fill="#f2d25e"/><path d="M105.716,34.355c0,2.814-21.666,5.118-48.428,5.118S8.86,37.258,8.86,34.355s21.689-5.1,48.428-5.1S105.716,31.542,105.716,34.355Z" transform="translate(10.768 35.562)" fill="#ebae39"/><path d="M10.942,35.84c6.026-2.082,24.5-3.611,46.346-3.611s40.32,1.529,46.346,3.611c1.351-.465,2.082-.975,2.082-1.484,0-2.814-21.666-5.1-48.428-5.1S8.86,31.475,8.86,34.355C8.86,34.865,9.591,35.33,10.942,35.84Z" transform="translate(10.768 35.562)" fill="#cc8420"/><path d="M5.77,23.24V40.764c0,6.07,27.271,11.077,60.923,11.077s60.923-4.918,60.923-11.077V23.24Z" transform="translate(7.013 28.245)" fill="#edbb3c"/><g transform="translate(12.783 51.485)" clip-path="url(#l)"><rect width="2.88" height="40.165" transform="translate(1.329 -7.289)" fill="#eaa92a"/><rect width="2.88" height="40.165" transform="translate(8.795 -7.289)" fill="#eaa92a"/><rect width="2.88" height="40.165" transform="translate(17.346 -7.289)" fill="#eaa92a"/><rect width="2.88" height="40.165" transform="translate(28.002 -7.289)" fill="#eaa92a"/><rect width="2.88" height="40.165" transform="translate(39.7 -7.289)" fill="#eaa92a"/><rect width="2.88" height="40.165" transform="translate(52.482 -7.289)" fill="#eaa92a"/><rect width="2.88" height="40.165" transform="translate(117.614 -7.289)" fill="#eaa92a"/><rect width="2.88" height="40.165" transform="translate(110.149 -7.289)" fill="#eaa92a"/><rect width="2.88" height="40.165" transform="translate(101.597 -7.289)" fill="#eaa92a"/><rect width="2.88" height="40.165" transform="translate(90.963 -7.289)" fill="#eaa92a"/><rect width="2.88" height="40.165" transform="translate(79.244 -7.289)" fill="#eaa92a"/><rect width="2.88" height="40.165" transform="translate(66.461 -7.289)" fill="#eaa92a"/></g><path d="M127.616,29.167c0,6.07-27.271,11.077-60.923,11.077S5.77,35.326,5.77,29.167,33.041,18.09,66.693,18.09,127.616,23.1,127.616,29.167Z" transform="translate(7.013 21.986)" fill="#f2d25e"/><path d="M108.279,25.378c0,2.814-21.689,5.1-48.428,5.1s-48.45-2.215-48.45-5.1S33.089,20.26,59.85,20.26,108.279,22.542,108.279,25.378Z" transform="translate(13.855 24.624)" fill="#ebae39"/><path d="M13.5,26.862c6.026-2.1,24.369-3.633,46.346-3.633s40.3,1.529,46.346,3.633c1.351-.487,2.082-.975,2.082-1.484,0-2.836-21.689-5.118-48.428-5.118S11.4,22.475,11.4,25.378C11.4,25.887,12.153,26.33,13.5,26.862Z" transform="translate(13.855 24.624)" fill="#cc8420"/><path d="M6.94,14.24V31.764c0,6.092,27.271,11.077,60.923,11.077s60.923-4.918,60.923-11.077V14.24Z" transform="translate(8.435 17.307)" fill="#edbb3c"/><g transform="translate(15.375 31.547)" clip-path="url(#m)"><rect width="2.88" height="40.165" transform="translate(1.329 -7.266)" fill="#eaa92a"/><rect width="2.88" height="40.165" transform="translate(8.817 -7.266)" fill="#eaa92a"/><rect width="2.88" height="40.165" transform="translate(17.346 -7.266)" fill="#eaa92a"/><rect width="2.88" height="40.165" transform="translate(28.002 -7.266)" fill="#eaa92a"/><rect width="2.88" height="40.165" transform="translate(39.722 -7.266)" fill="#eaa92a"/><rect width="2.88" height="40.165" transform="translate(52.482 -7.266)" fill="#eaa92a"/><rect width="2.88" height="40.165" transform="translate(117.637 -7.266)" fill="#eaa92a"/><rect width="2.88" height="40.165" transform="translate(110.149 -7.266)" fill="#eaa92a"/><rect width="2.88" height="40.165" transform="translate(101.619 -7.266)" fill="#eaa92a"/><rect width="2.88" height="40.165" transform="translate(90.963 -7.266)" fill="#eaa92a"/><rect width="2.88" height="40.165" transform="translate(79.244 -7.266)" fill="#eaa92a"/><rect width="2.88" height="40.165" transform="translate(66.484 -7.266)" fill="#eaa92a"/></g><path d="M128.786,20.177c0,6.07-27.271,11.077-60.923,11.077S6.94,26.336,6.94,20.177,34.211,9.1,67.863,9.1,128.786,14.085,128.786,20.177Z" transform="translate(8.435 11.06)" fill="#f2d25e"/><path d="M109.436,16.365c0,2.836-21.666,5.118-48.428,5.118S12.58,19.268,12.58,16.365s21.689-5.1,48.428-5.1S109.436,13.552,109.436,16.365Z" transform="translate(15.289 13.697)" fill="#ebae39"/><path d="M14.662,17.85c6.026-2.082,24.5-3.611,46.346-3.611s40.32,1.529,46.346,3.611c1.351-.465,2.082-.953,2.082-1.484,0-2.814-21.666-5.1-48.428-5.1s-48.428,2.215-48.428,5.1C12.58,16.9,13.311,17.318,14.662,17.85Z" transform="translate(15.289 13.697)" fill="#cc8420"/><path d="M9.66,5.11V22.589c0,6.092,27.271,11.077,60.923,11.077s60.923-4.918,60.923-11.077V5.11Z" transform="translate(11.741 6.211)" fill="#edbb3c"/><g transform="translate(21.401 11.321)" clip-path="url(#n)"><rect width="2.88" height="40.165" transform="translate(1.329 -7.266)" fill="#eaa92a"/><rect width="2.88" height="40.165" transform="translate(8.817 -7.266)" fill="#eaa92a"/><rect width="2.88" height="40.165" transform="translate(17.346 -7.266)" fill="#eaa92a"/><rect width="2.88" height="40.165" transform="translate(28.002 -7.266)" fill="#eaa92a"/><rect width="2.88" height="40.165" transform="translate(39.722 -7.266)" fill="#eaa92a"/><rect width="2.88" height="40.165" transform="translate(52.482 -7.266)" fill="#eaa92a"/><rect width="2.88" height="40.165" transform="translate(117.637 -7.266)" fill="#eaa92a"/><rect width="2.88" height="40.165" transform="translate(110.149 -7.266)" fill="#eaa92a"/><rect width="2.88" height="40.165" transform="translate(101.619 -7.266)" fill="#eaa92a"/><rect width="2.88" height="40.165" transform="translate(90.963 -7.266)" fill="#eaa92a"/><rect width="2.88" height="40.165" transform="translate(79.244 -7.266)" fill="#eaa92a"/><rect width="2.88" height="40.165" transform="translate(66.484 -7.266)" fill="#eaa92a"/></g><path d="M131.506,11.077c0,6.07-27.271,11.077-60.923,11.077S9.66,17.081,9.66,11.077,37,0,70.583,0,131.506,4.918,131.506,11.077Z" transform="translate(11.741)" fill="#f2d25e"/><path d="M112.112,7.235c0,2.836-21.689,5.118-48.428,5.118S15.3,10.071,15.3,7.235s21.689-5.1,48.428-5.1S112.112,4.422,112.112,7.235Z" transform="translate(18.595 2.601)" fill="#ebae39"/><path d="M17.382,8.72c6.114-2.082,24.5-3.611,46.346-3.611s40.32,1.529,46.346,3.611c1.351-.465,2.082-.953,2.082-1.484,0-2.814-21.689-5.1-48.428-5.1S15.3,4.355,15.3,7.235C15.3,7.767,16.031,8.254,17.382,8.72Z" transform="translate(18.595 2.601)" fill="#cc8420"/><path d="M58.84,108.79v17.524c0,6.07,27.271,11.077,60.923,11.077s60.923-4.918,60.923-11.077V108.79Z" transform="translate(71.513 132.221)" fill="#edbb3c"/><g transform="translate(130.353 241.011)" clip-path="url(#o)"><rect width="2.88" height="40.165" transform="translate(1.329 -7.289)" fill="#eaa92a"/><rect width="2.88" height="40.165" transform="translate(8.817 -7.289)" fill="#eaa92a"/><rect width="2.88" height="40.165" transform="translate(17.346 -7.289)" fill="#eaa92a"/><rect width="2.88" height="40.165" transform="translate(28.002 -7.289)" fill="#eaa92a"/><rect width="2.88" height="40.165" transform="translate(39.722 -7.289)" fill="#eaa92a"/><rect width="2.88" height="40.165" transform="translate(52.482 -7.289)" fill="#eaa92a"/><rect width="2.88" height="40.165" transform="translate(117.637 -7.289)" fill="#eaa92a"/><rect width="2.88" height="40.165" transform="translate(110.149 -7.289)" fill="#eaa92a"/><rect width="2.88" height="40.165" transform="translate(101.619 -7.289)" fill="#eaa92a"/><rect width="2.88" height="40.165" transform="translate(90.963 -7.289)" fill="#eaa92a"/><rect width="2.88" height="40.165" transform="translate(79.244 -7.289)" fill="#eaa92a"/><rect width="2.88" height="40.165" transform="translate(66.484 -7.289)" fill="#eaa92a"/></g><path d="M180.686,114.717c0,6.07-27.271,11.077-60.923,11.077S58.84,120.876,58.84,114.717s27.271-11.077,60.923-11.077S180.686,108.647,180.686,114.717Z" transform="translate(71.513 125.962)" fill="#f2d25e"/><path d="M161.336,110.928c0,2.814-21.689,5.1-48.428,5.1s-48.428-2.215-48.428-5.1,21.689-5.118,48.428-5.118S161.336,108.092,161.336,110.928Z" transform="translate(78.368 128.599)" fill="#ebae39"/><path d="M66.562,112.412c6.026-2.215,24.5-3.633,46.346-3.633s40.32,1.529,46.346,3.633c1.351-.487,2.082-.975,2.082-1.484,0-2.836-21.689-5.118-48.428-5.118s-48.428,2.215-48.428,5.118C64.48,111.437,65.211,111.924,66.562,112.412Z" transform="translate(78.368 128.599)" fill="#cc8420"/><path d="M55.52,98.39v17.524c0,6.07,27.293,11.077,60.923,11.077s60.945-4.918,60.945-11.077V98.39Z" transform="translate(67.478 119.581)" fill="#edbb3c"/><g transform="translate(122.998 217.971)" clip-path="url(#p)"><rect width="2.88" height="40.165" transform="translate(1.329 -7.289)" fill="#eaa92a"/><rect width="2.88" height="40.165" transform="translate(8.817 -7.289)" fill="#eaa92a"/><rect width="2.88" height="40.165" transform="translate(17.346 -7.289)" fill="#eaa92a"/><rect width="2.88" height="40.165" transform="translate(28.002 -7.289)" fill="#eaa92a"/><rect width="2.88" height="40.165" transform="translate(39.722 -7.289)" fill="#eaa92a"/><rect width="2.88" height="40.165" transform="translate(52.482 -7.289)" fill="#eaa92a"/><rect width="2.88" height="40.165" transform="translate(117.637 -7.289)" fill="#eaa92a"/><rect width="2.88" height="40.165" transform="translate(110.171 -7.289)" fill="#eaa92a"/><rect width="2.88" height="40.165" transform="translate(101.619 -7.289)" fill="#eaa92a"/><rect width="2.88" height="40.165" transform="translate(90.963 -7.289)" fill="#eaa92a"/><rect width="2.88" height="40.165" transform="translate(79.266 -7.289)" fill="#eaa92a"/><rect width="2.88" height="40.165" transform="translate(66.484 -7.289)" fill="#eaa92a"/></g><path d="M177.388,104.317c0,6.07-27.293,11.077-60.945,11.077s-60.923-4.94-60.923-11.077S82.813,93.24,116.443,93.24,177.388,98.247,177.388,104.317Z" transform="translate(67.478 113.322)" fill="#f2d25e"/><path d="M158.063,100.515c0,2.836-21.689,5.051-48.495,5.051s-48.428-2.215-48.428-5.1,21.844-5.051,48.428-5.051S158.063,97.7,158.063,100.515Z" transform="translate(74.308 115.971)" fill="#ebae39"/><path d="M63.188,102c6.048-2.215,24.5-3.611,46.346-3.611S149.853,99.9,155.879,102c1.374-.465,2.215-.975,2.215-1.484,0-2.814-21.689-5.1-48.45-5.1s-48.428,2.215-48.428,5.1C61.105,101.136,61.836,101.534,63.188,102Z" transform="translate(74.387 115.971)" fill="#cc8420"/><path d="M58.44,89.4v17.524c0,6.07,27.293,11.077,60.923,11.077s60.945-4.918,60.945-11.077V89.4Z" transform="translate(71.027 108.655)" fill="#edbb3c"/><g transform="translate(129.467 198.055)" clip-path="url(#q)"><rect width="2.88" height="40.165" transform="translate(1.329 -7.289)" fill="#eaa92a"/><rect width="2.88" height="40.165" transform="translate(8.817 -7.289)" fill="#eaa92a"/><rect width="2.88" height="40.165" transform="translate(17.346 -7.289)" fill="#eaa92a"/><rect width="2.88" height="40.165" transform="translate(28.002 -7.289)" fill="#eaa92a"/><rect width="2.88" height="40.165" transform="translate(39.722 -7.289)" fill="#eaa92a"/><rect width="2.88" height="40.165" transform="translate(52.482 -7.289)" fill="#eaa92a"/><rect width="2.88" height="40.165" transform="translate(117.637 -7.289)" fill="#eaa92a"/><rect width="2.88" height="40.165" transform="translate(110.171 -7.289)" fill="#eaa92a"/><rect width="2.88" height="40.165" transform="translate(101.619 -7.289)" fill="#eaa92a"/><rect width="2.88" height="40.165" transform="translate(90.963 -7.289)" fill="#eaa92a"/><rect width="2.88" height="40.165" transform="translate(79.266 -7.289)" fill="#eaa92a"/><rect width="2.88" height="40.165" transform="translate(66.484 -7.289)" fill="#eaa92a"/></g><path d="M180.308,95.327c0,6.07-27.293,11.077-60.945,11.077S58.44,101.486,58.44,95.327,85.733,84.25,119.363,84.25,180.308,89.257,180.308,95.327Z" transform="translate(71.027 102.396)" fill="#f2d25e"/><path d="M160.958,91.574c0,2.814-21.733,5.029-48.45,5.029s-48.428-2.215-48.428-5.1,21.689-5.118,48.428-5.118S160.958,88.738,160.958,91.574Z" transform="translate(77.881 104.997)" fill="#ebae39"/><path d="M66.084,93.022c6.048-2.215,24.5-3.633,46.346-3.633s40.32,1.529,46.346,3.633c1.374-.487,2.215-.975,2.215-1.484,0-2.836-21.689-5.118-48.45-5.118s-48.428,2.215-48.428,5.118C64.046,92.136,64.777,92.534,66.084,93.022Z" transform="translate(77.916 105.033)" fill="#cc8420"/><path d="M54.32,79.64V97.164c0,6.07,27.271,11.077,60.923,11.077s60.923-4.918,60.923-11.077V79.64Z" transform="translate(66.019 96.793)" fill="#edbb3c"/><g transform="translate(120.339 176.433)" clip-path="url(#r)"><rect width="2.88" height="40.165" transform="translate(1.329 -7.289)" fill="#eaa92a"/><rect width="2.88" height="40.165" transform="translate(8.817 -7.289)" fill="#eaa92a"/><rect width="2.88" height="40.165" transform="translate(17.346 -7.289)" fill="#eaa92a"/><rect width="2.88" height="40.165" transform="translate(28.002 -7.289)" fill="#eaa92a"/><rect width="2.88" height="40.165" transform="translate(39.722 -7.289)" fill="#eaa92a"/><rect width="2.88" height="40.165" transform="translate(52.482 -7.289)" fill="#eaa92a"/><rect width="2.88" height="40.165" transform="translate(117.637 -7.289)" fill="#eaa92a"/><rect width="2.88" height="40.165" transform="translate(110.149 -7.289)" fill="#eaa92a"/><rect width="2.88" height="40.165" transform="translate(101.619 -7.289)" fill="#eaa92a"/><rect width="2.88" height="40.165" transform="translate(90.963 -7.289)" fill="#eaa92a"/><rect width="2.88" height="40.165" transform="translate(79.244 -7.289)" fill="#eaa92a"/><rect width="2.88" height="40.165" transform="translate(66.484 -7.289)" fill="#eaa92a"/></g><path d="M176.166,85.567c0,6.07-27.271,11.077-60.923,11.077S54.32,91.7,54.32,85.567,81.591,74.49,115.243,74.49,176.166,79.5,176.166,85.567Z" transform="translate(66.019 90.534)" fill="#f2d25e"/><ellipse cx="48.428" cy="5.095" rx="48.428" ry="5.095" transform="translate(132.834 169.853)" fill="#ebae39"/><path d="M61.994,83.262c6.048-2.1,24.591-3.633,46.346-3.633s40.32,1.529,46.346,3.633c1.351-.465,2.082-.975,2.082-1.484,0-2.814-21.666-5.118-48.428-5.118S60,78.964,60,81.844C60,82.287,60.642,82.8,61.994,83.262Z" transform="translate(72.923 93.171)" fill="#cc8420"/><path d="M56.33,70V87.524c0,6.07,27.271,11.077,60.923,11.077s60.923-4.918,60.923-11.077V70Z" transform="translate(68.462 85.077)" fill="#edbb3c"/><g transform="translate(124.792 155.077)" clip-path="url(#s)"><rect width="2.88" height="40.165" transform="translate(1.329 -7.355)" fill="#eaa92a"/><rect width="2.88" height="40.165" transform="translate(8.817 -7.355)" fill="#eaa92a"/><rect width="2.88" height="40.165" transform="translate(17.346 -7.355)" fill="#eaa92a"/><rect width="2.88" height="40.165" transform="translate(28.002 -7.355)" fill="#eaa92a"/><rect width="2.88" height="40.165" transform="translate(39.722 -7.355)" fill="#eaa92a"/><rect width="2.88" height="40.165" transform="translate(52.482 -7.355)" fill="#eaa92a"/><rect width="2.88" height="40.165" transform="translate(117.637 -7.355)" fill="#eaa92a"/><rect width="2.88" height="40.165" transform="translate(110.149 -7.355)" fill="#eaa92a"/><rect width="2.88" height="40.165" transform="translate(101.619 -7.355)" fill="#eaa92a"/><rect width="2.88" height="40.165" transform="translate(90.963 -7.355)" fill="#eaa92a"/><rect width="2.88" height="40.165" transform="translate(79.244 -7.355)" fill="#eaa92a"/><rect width="2.88" height="40.165" transform="translate(66.483 -7.355)" fill="#eaa92a"/></g><path d="M178.176,75.9c0,6.07-27.271,11.077-60.923,11.077S56.33,82.033,56.33,75.9,83.6,64.82,117.253,64.82,178.176,69.827,178.176,75.9Z" transform="translate(68.462 78.781)" fill="#f2d25e"/><path d="M158.79,72.1c0,2.814-21.689,5.1-48.428,5.1S62,74.909,62,72.1,83.622,67,110.362,67,158.79,69.215,158.79,72.1Z" transform="translate(75.353 81.43)" fill="#ebae39"/><path d="M64.016,73.646c6.026-2.215,24.5-3.633,46.346-3.633s40.253,1.418,46.346,3.633c1.351-.465,2.082-.975,2.082-1.484C158.79,69.215,137.1,67,110.362,67S62,69.215,62,72.1C62,72.6,62.665,73.114,64.016,73.646Z" transform="translate(75.353 81.43)" fill="#cc8420"/><path d="M53.18,61V78.524c0,6.092,27.293,11.077,60.945,11.077s60.923-4.918,60.923-11.077V61Z" transform="translate(64.634 74.138)" fill="#edbb3c"/><g transform="translate(117.814 135.138)" clip-path="url(#t)"><rect width="2.88" height="40.165" transform="translate(1.351 -7.333)" fill="#eaa92a"/><rect width="2.88" height="40.165" transform="translate(8.817 -7.333)" fill="#eaa92a"/><rect width="2.88" height="40.165" transform="translate(17.369 -7.333)" fill="#eaa92a"/><rect width="2.88" height="40.165" transform="translate(28.002 -7.333)" fill="#eaa92a"/><rect width="2.88" height="40.165" transform="translate(39.722 -7.333)" fill="#eaa92a"/><rect width="2.88" height="40.165" transform="translate(52.504 -7.333)" fill="#eaa92a"/><rect width="2.88" height="40.165" transform="translate(117.637 -7.333)" fill="#eaa92a"/><rect width="2.88" height="40.165" transform="translate(110.171 -7.333)" fill="#eaa92a"/><rect width="2.88" height="40.165" transform="translate(101.619 -7.333)" fill="#eaa92a"/><rect width="2.88" height="40.165" transform="translate(90.963 -7.333)" fill="#eaa92a"/><rect width="2.88" height="40.165" transform="translate(79.266 -7.333)" fill="#eaa92a"/><rect width="2.88" height="40.165" transform="translate(66.484 -7.333)" fill="#eaa92a"/></g><path d="M175.048,66.907c0,6.07-27.293,11.077-60.923,11.077S53.18,73.066,53.18,66.907,80.473,55.83,114.125,55.83,175.048,60.815,175.048,66.907Z" transform="translate(64.634 67.855)" fill="#f2d25e"/><path d="M155.7,63.1c0,2.836-21.689,5.118-48.428,5.118S58.82,66,58.82,63.1,80.509,58,107.27,58,155.7,60.215,155.7,63.1Z" transform="translate(71.489 70.492)" fill="#ebae39"/><path d="M60.9,64.61C66.95,62.527,85.4,61,107.27,61s40.3,1.4,46.346,3.611c1.351-.465,2.082-.953,2.082-1.484,0-2.814-21.689-5.1-48.428-5.1s-48.45,2.215-48.45,5.1C58.82,63.591,59.551,64.078,60.9,64.61Z" transform="translate(71.489 70.528)" fill="#cc8420"/><path d="M55.86,52V69.524c0,6.07,27.271,11.077,60.923,11.077s60.923-4.94,60.923-11.077V52Z" transform="translate(67.891 63.2)" fill="#edbb3c"/><g transform="translate(123.751 115.2)" clip-path="url(#u)"><rect width="2.88" height="40.165" transform="translate(1.329 -7.311)" fill="#eaa92a"/><rect width="2.88" height="40.165" transform="translate(8.817 -7.311)" fill="#eaa92a"/><rect width="2.88" height="40.165" transform="translate(17.346 -7.311)" fill="#eaa92a"/><rect width="2.88" height="40.165" transform="translate(28.002 -7.311)" fill="#eaa92a"/><rect width="2.88" height="40.165" transform="translate(39.722 -7.311)" fill="#eaa92a"/><rect width="2.88" height="40.165" transform="translate(52.482 -7.311)" fill="#eaa92a"/><rect width="2.88" height="40.165" transform="translate(117.637 -7.311)" fill="#eaa92a"/><rect width="2.88" height="40.165" transform="translate(110.149 -7.311)" fill="#eaa92a"/><rect width="2.88" height="40.165" transform="translate(101.619 -7.311)" fill="#eaa92a"/><rect width="2.88" height="40.165" transform="translate(90.963 -7.311)" fill="#eaa92a"/><rect width="2.88" height="40.165" transform="translate(79.244 -7.311)" fill="#eaa92a"/><rect width="2.88" height="40.165" transform="translate(66.484 -7.311)" fill="#eaa92a"/></g><path d="M177.706,57.907c0,6.092-27.271,11.077-60.923,11.077S55.86,64.066,55.86,57.907,83.131,46.83,116.783,46.83,177.706,51.837,177.706,57.907Z" transform="translate(67.891 56.916)" fill="#f2d25e"/><path d="M158.356,54.118c0,2.814-21.666,5.118-48.428,5.118S61.5,57.02,61.5,54.118,83.189,49,109.928,49,158.356,51.215,158.356,54.118Z" transform="translate(74.746 59.554)" fill="#ebae39"/><path d="M63.582,55.61c6.026-2.1,24.5-3.611,46.346-3.611s40.32,1.506,46.346,3.611c1.351-.465,2.082-.975,2.082-1.484,0-2.814-21.666-5.1-48.428-5.1S61.5,51.179,61.5,54.081C61.5,54.591,62.231,55.1,63.582,55.61Z" transform="translate(74.746 59.59)" fill="#cc8420"/><path d="M53.18,42.14V59.664c0,6.07,27.293,11.077,60.945,11.077s60.923-4.94,60.923-11.077V42.14Z" transform="translate(64.634 51.216)" fill="#edbb3c"/><g transform="translate(117.814 93.356)" clip-path="url(#v)"><rect width="2.88" height="40.165" transform="translate(1.351 -7.266)" fill="#eaa92a"/><rect width="2.88" height="40.165" transform="translate(8.817 -7.266)" fill="#eaa92a"/><rect width="2.88" height="40.165" transform="translate(17.369 -7.266)" fill="#eaa92a"/><rect width="2.88" height="40.165" transform="translate(28.002 -7.266)" fill="#eaa92a"/><rect width="2.88" height="40.165" transform="translate(39.722 -7.266)" fill="#eaa92a"/><rect width="2.88" height="40.165" transform="translate(52.504 -7.266)" fill="#eaa92a"/><rect width="2.88" height="40.165" transform="translate(117.637 -7.266)" fill="#eaa92a"/><rect width="2.88" height="40.165" transform="translate(110.171 -7.266)" fill="#eaa92a"/><rect width="2.88" height="40.165" transform="translate(101.619 -7.266)" fill="#eaa92a"/><rect width="2.88" height="40.165" transform="translate(90.963 -7.266)" fill="#eaa92a"/><rect width="2.88" height="40.165" transform="translate(79.266 -7.266)" fill="#eaa92a"/><rect width="2.88" height="40.165" transform="translate(66.484 -7.266)" fill="#eaa92a"/></g><path d="M175.048,48.077c0,6.092-27.293,11.077-60.923,11.077S53.18,54.236,53.18,48.077,80.473,37,114.125,37,175.048,41.985,175.048,48.077Z" transform="translate(64.634 44.969)" fill="#f2d25e"/><path d="M155.7,44.265c0,2.814-21.689,5.118-48.428,5.118s-48.45-2.215-48.45-5.118,21.689-5.1,48.45-5.1S155.7,41.452,155.7,44.265Z" transform="translate(71.489 47.606)" fill="#ebae39"/><path d="M60.9,45.75c6.048-2.082,24.5-3.611,46.368-3.611s40.3,1.529,46.346,3.611c1.351-.465,2.082-.975,2.082-1.484,0-2.814-21.689-5.1-48.428-5.1s-48.45,2.215-48.45,5.1C58.82,44.775,59.551,45.284,60.9,45.75Z" transform="translate(71.489 47.606)" fill="#cc8420"/><path d="M58.44,33.46V50.984c0,6.07,27.293,11.077,60.923,11.077s60.945-4.94,60.945-11.077V33.46Z" transform="translate(71.027 40.667)" fill="#edbb3c"/><g transform="translate(129.467 74.127)" clip-path="url(#w)"><rect width="2.88" height="40.165" transform="translate(1.329 -7.266)" fill="#eaa92a"/><rect width="2.88" height="40.165" transform="translate(8.817 -7.266)" fill="#eaa92a"/><rect width="2.88" height="40.165" transform="translate(17.346 -7.266)" fill="#eaa92a"/><rect width="2.88" height="40.165" transform="translate(28.002 -7.266)" fill="#eaa92a"/><rect width="2.88" height="40.165" transform="translate(39.722 -7.266)" fill="#eaa92a"/><rect width="2.88" height="40.165" transform="translate(52.482 -7.266)" fill="#eaa92a"/><rect width="2.88" height="40.165" transform="translate(117.637 -7.266)" fill="#eaa92a"/><rect width="2.88" height="40.165" transform="translate(110.171 -7.266)" fill="#eaa92a"/><rect width="2.88" height="40.165" transform="translate(101.619 -7.266)" fill="#eaa92a"/><rect width="2.88" height="40.165" transform="translate(90.963 -7.266)" fill="#eaa92a"/><rect width="2.88" height="40.165" transform="translate(79.266 -7.266)" fill="#eaa92a"/><rect width="2.88" height="40.165" transform="translate(66.484 -7.266)" fill="#eaa92a"/></g><path d="M180.308,39.387c0,6.092-27.293,11.077-60.945,11.077S58.44,45.546,58.44,39.387,85.733,28.31,119.363,28.31,180.308,33.317,180.308,39.387Z" transform="translate(71.027 34.407)" fill="#f2d25e"/><path d="M160.959,35.585c0,2.814-21.689,5.118-48.45,5.118S64.08,38.488,64.08,35.585s21.689-5.1,48.428-5.1S160.959,32.772,160.959,35.585Z" transform="translate(77.881 37.057)" fill="#ebae39"/><path d="M66.084,37.07c6.048-2.082,24.5-3.611,46.346-3.611s40.32,1.529,46.346,3.611c1.374-.465,2.215-.975,2.215-1.484,0-2.814-21.689-5.1-48.45-5.1s-48.428,2.215-48.428,5.1C64.046,36.051,64.777,36.6,66.084,37.07Z" transform="translate(77.916 37.057)" fill="#cc8420"/><path d="M55.42,23.91V41.434c0,6.07,27.271,11.077,60.923,11.077s60.923-4.94,60.923-11.077V23.91Z" transform="translate(67.356 29.06)" fill="#edbb3c"/><g transform="translate(122.776 52.97)" clip-path="url(#x)"><rect width="2.88" height="40.165" transform="translate(1.329 -7.266)" fill="#eaa92a"/><rect width="2.88" height="40.165" transform="translate(8.795 -7.266)" fill="#eaa92a"/><rect width="2.88" height="40.165" transform="translate(17.346 -7.266)" fill="#eaa92a"/><rect width="2.88" height="40.165" transform="translate(28.002 -7.266)" fill="#eaa92a"/><rect width="2.88" height="40.165" transform="translate(39.7 -7.266)" fill="#eaa92a"/><rect width="2.88" height="40.165" transform="translate(52.482 -7.266)" fill="#eaa92a"/><rect width="2.88" height="40.165" transform="translate(117.614 -7.266)" fill="#eaa92a"/><rect width="2.88" height="40.165" transform="translate(110.149 -7.266)" fill="#eaa92a"/><rect width="2.88" height="40.165" transform="translate(101.597 -7.266)" fill="#eaa92a"/><rect width="2.88" height="40.165" transform="translate(90.963 -7.266)" fill="#eaa92a"/><rect width="2.88" height="40.165" transform="translate(79.244 -7.266)" fill="#eaa92a"/><rect width="2.88" height="40.165" transform="translate(66.461 -7.266)" fill="#eaa92a"/></g><path d="M177.266,29.837c0,6.07-27.271,11.077-60.923,11.077S55.42,35.973,55.42,29.837,82.691,18.76,116.343,18.76,177.266,23.722,177.266,29.837Z" transform="translate(67.356 22.801)" fill="#f2d25e"/><path d="M157.929,26.035c0,2.814-21.689,5.1-48.428,5.1s-48.45-2.215-48.45-5.1,21.689-5.1,48.45-5.1S157.929,23.288,157.929,26.035Z" transform="translate(74.199 25.45)" fill="#ebae39"/><path d="M63.155,27.52c6.026-2.1,24.369-3.611,46.346-3.611s40.3,1.506,46.346,3.611c1.351-.465,2.082-.975,2.082-1.484,0-2.814-21.689-5.1-48.428-5.1s-48.45,2.215-48.45,5.1C61.05,26.545,61.8,27.054,63.155,27.52Z" transform="translate(74.199 25.45)" fill="#cc8420"/><path d="M58.44,14.92V32.444c0,6.07,27.293,11.077,60.923,11.077s60.945-4.918,60.945-11.077V14.92Z" transform="translate(71.027 18.133)" fill="#edbb3c"/><g transform="translate(129.467 33.053)" clip-path="url(#y)"><rect width="2.88" height="40.165" transform="translate(1.329 -7.289)" fill="#eaa92a"/><rect width="2.88" height="40.165" transform="translate(8.817 -7.289)" fill="#eaa92a"/><rect width="2.88" height="40.165" transform="translate(17.346 -7.289)" fill="#eaa92a"/><rect width="2.88" height="40.165" transform="translate(28.002 -7.289)" fill="#eaa92a"/><rect width="2.88" height="40.165" transform="translate(39.722 -7.289)" fill="#eaa92a"/><rect width="2.88" height="40.165" transform="translate(52.482 -7.289)" fill="#eaa92a"/><rect width="2.88" height="40.165" transform="translate(117.637 -7.289)" fill="#eaa92a"/><rect width="2.88" height="40.165" transform="translate(110.171 -7.289)" fill="#eaa92a"/><rect width="2.88" height="40.165" transform="translate(101.619 -7.289)" fill="#eaa92a"/><rect width="2.88" height="40.165" transform="translate(90.963 -7.289)" fill="#eaa92a"/><rect width="2.88" height="40.165" transform="translate(79.266 -7.289)" fill="#eaa92a"/><rect width="2.88" height="40.165" transform="translate(66.484 -7.289)" fill="#eaa92a"/></g><path d="M180.308,20.847c0,6.07-27.293,11.077-60.945,11.077S58.44,27.006,58.44,20.847,85.733,9.77,119.363,9.77,180.308,14.71,180.308,20.847Z" transform="translate(71.027 11.874)" fill="#f2d25e"/><path d="M160.959,17.058c0,2.814-21.689,5.1-48.45,5.1s-48.428-2.215-48.428-5.1,21.689-5.118,48.428-5.118S160.959,14.288,160.959,17.058Z" transform="translate(77.881 14.512)" fill="#ebae39"/><path d="M66.084,18.542c6.048-2.1,24.5-3.633,46.346-3.633s40.32,1.529,46.346,3.633c1.374-.487,2.215-.975,2.215-1.484,0-2.836-21.689-5.118-48.45-5.118s-48.428,2.215-48.428,5.118C64.046,17.567,64.777,18.054,66.084,18.542Z" transform="translate(77.916 14.512)" fill="#cc8420"/><path d="M198.069,72.27l-11.742,2.658a58.663,58.663,0,0,0-43.111,37,57.112,57.112,0,0,0-35.225-34.781V88S37.1,101.07,37.1,133.858s25.92,53.169,34.781,55.828,56.492-11.3,56.492-11.3a60.3,60.3,0,0,0,11.963-15.729c1.772,7.089,4.209,14.178,7.754,18.609,0,0,46.523,18.831,54.277,20.382s9.748-20.825,20.825-23.261Z" transform="translate(45.091 87.835)" fill="#b5905c" opacity="0.5"/><path d="M100.511,78.544,90.1,73.67,41.36,177.571l9.3,5.317c27.471,13.071,60.7.443,74.658-28.357S127.981,91.615,100.511,78.544Z" transform="translate(50.268 89.537)" fill="#ffbd29"/><g transform="translate(90.299 163.207)" clip-path="url(#z)"><path d="M108.408,155.373l1.329-2.658L42.168,120.37l-1.108,2.658Z" transform="translate(-40.395 -16.912)" fill="#e2a203"/><path d="M110.029,152.151l1.108-2.437L43.789,117.37l-1.329,2.658Z" transform="translate(-38.694 -20.558)" fill="#e2a203"/><path d="M111.508,148.873l1.329-2.658L45.268,113.87l-1.108,2.658Z" transform="translate(-36.628 -24.812)" fill="#e2a203"/><path d="M113.608,144.573l1.329-2.658L47.368,109.57l-1.108,2.658Z" transform="translate(-34.075 -30.038)" fill="#e2a203"/><path d="M116.029,139.651l1.108-2.658L49.789,104.87l-1.329,2.437Z" transform="translate(-31.402 -35.75)" fill="#e2a203"/><path d="M118.529,134.451l1.108-2.437L52.289,99.67l-1.329,2.658Z" transform="translate(-28.363 -42.07)" fill="#e2a203"/><path d="M63.66,75.928l67.348,32.345,1.329-2.658L64.768,73.27Z" transform="translate(-12.928 -74.156)" fill="#e2a203"/><path d="M129.729,111.151l1.108-2.658L63.489,76.37,62.16,78.807Z" transform="translate(-14.751 -70.388)" fill="#e2a203"/><path d="M127.908,114.551l1.329-2.437L61.668,79.77,60.56,82.428Z" transform="translate(-16.695 -66.256)" fill="#e2a203"/><path d="M125.808,119.073l1.329-2.658L59.789,84.07,58.46,86.728Z" transform="translate(-19.248 -61.03)" fill="#e2a203"/><path d="M123.729,123.651l1.108-2.658L57.489,88.87,56.16,91.307Z" transform="translate(-22.043 -55.196)" fill="#e2a203"/><path d="M121.229,128.973l1.108-2.658L54.989,93.97,53.66,96.628Z" transform="translate(-25.082 -48.998)" fill="#e2a203"/></g><path d="M133.768,152.964c-13.735,28.8-47.188,41.428-74.658,28.357s-38.326-46.966-24.591-75.766S81.707,64.127,109.177,77.2,147.5,124.164,133.768,152.964Z" transform="translate(34.734 87.56)" fill="#ffd454"/><path d="M35.585,108.166c13.957-28.8,47.188-41.428,74.658-28.357a52.726,52.726,0,0,1,25.034,25.477,52.7,52.7,0,0,0-26.053-27.914C81.754,64.08,48.3,76.707,34.566,105.507a58.53,58.53,0,0,0-.443,50.511A58.331,58.331,0,0,1,35.585,108.166Z" transform="translate(34.775 87.607)" fill="#fde571"/><path d="M57.128,163.281c-20.381-9.748-28.357-35.889-17.5-58.264S75.737,72.45,96.118,82.2s28.357,35.889,17.5,58.264S77.509,173.028,57.128,163.281Z" transform="translate(42.254 95.409)" fill="#fde571"/><path d="M57.128,162.681c-20.381-9.748-28.357-35.889-17.5-58.264S75.737,71.85,96.118,81.6s28.357,35.889,17.5,58.264S77.509,172.428,57.128,162.681Z" transform="translate(42.254 94.68)" fill="#ffb127"/><path d="M61.948,162.5c-20.381-9.748-28.357-35.889-17.5-58.264A46.39,46.39,0,0,1,80.114,77.872c-16.172-.222-32.566,9.748-40.541,26.585-10.634,22.375-2.88,48.517,17.5,58.264A37.662,37.662,0,0,0,77.9,166.044,37.108,37.108,0,0,1,61.948,162.5Z" transform="translate(42.308 94.64)" fill="#e38601"/><path d="M133.188,73.828,144.93,71.17l29.908,129.821-11.742,2.88c-31.458,7.311-63.581-15.951-71.778-51.84S101.818,80.918,133.188,73.828Z" transform="translate(108.643 86.498)" fill="#ffbd29"/><g transform="translate(198.033 157.669)" clip-path="url(#aa)"><rect width="79.311" height="3.323" transform="matrix(0.975, -0.224, 0.224, 0.975, 6.567, 146.304)" fill="#e2a203"/><rect width="79.311" height="3.323" transform="matrix(0.975, -0.224, 0.224, 0.975, 4.788, 137.86)" fill="#e2a203"/><rect width="79.311" height="3.323" transform="matrix(0.975, -0.224, 0.224, 0.975, 2.598, 128.337)" fill="#e2a203"/><rect width="79.311" height="3.323" transform="matrix(0.975, -0.224, 0.224, 0.975, -0.31, 116.419)" fill="#e2a203"/><rect width="79.311" height="3.323" transform="matrix(0.975, -0.224, 0.224, 0.975, -3.198, 103.308)" fill="#e2a203"/><rect width="79.311" height="3.323" transform="matrix(0.975, -0.224, 0.224, 0.975, -6.485, 89.144)" fill="#e2a203"/><rect width="79.311" height="3.323" transform="matrix(0.975, -0.224, 0.224, 0.975, -23.339, 16.279)" fill="#e2a203"/><rect width="79.311" height="3.323" transform="translate(-21.335 24.665) rotate(-12.96)" fill="#e2a203"/><rect width="79.311" height="3.323" transform="matrix(0.975, -0.224, 0.224, 0.975, -19.124, 34.176)" fill="#e2a203"/><rect width="79.311" height="3.323" transform="matrix(0.975, -0.224, 0.224, 0.975, -16.462, 46.169)" fill="#e2a203"/><rect width="79.311" height="3.323" transform="matrix(0.975, -0.224, 0.224, 0.975, -13.373, 59.21)" fill="#e2a203"/><rect width="79.311" height="3.323" transform="translate(-10.049 73.377) rotate(-12.96)" fill="#e2a203"/></g><path d="M97.813,149.588c8.2,35.889,40.32,59.151,71.778,51.84s50.068-42.092,41.871-77.981S170.92,64.3,139.683,71.607,89.616,113.7,97.813,149.588Z" transform="translate(116.547 85.397)" fill="#ffd454"/><path d="M204.018,126.105c-8.2-35.889-40.32-59.151-71.778-51.84a53.723,53.723,0,0,0-31.68,21.489,54.72,54.72,0,0,1,33.452-24.148c31.458-7.311,63.581,15.951,71.778,51.84A70.427,70.427,0,0,1,195.6,179.939a71.69,71.69,0,0,0,8.418-53.834Z" transform="translate(122.218 85.397)" fill="#fde571"/><path d="M157.852,179.415c23.261-5.317,37.218-32.345,30.794-60.258s-30.572-46.08-53.834-40.541-37.218,32.345-30.794,60.258S134.68,184.954,157.852,179.415Z" transform="translate(124.52 94.339)" fill="#fde571"/><path d="M158.174,178.928c23.261-5.317,37.218-32.345,30.794-60.258s-30.794-46.08-54.055-40.763-37.218,32.345-30.794,60.258S134.691,184.179,158.174,178.928Z" transform="translate(124.641 93.563)" fill="#ffb127"/><path d="M134.618,176.719c23.262-5.317,37.218-32.345,30.794-60.258C161.2,97.63,148.575,83.23,133.954,77.47c17.058,4.209,31.9,19.717,36.775,40.541,6.425,27.914-7.311,54.941-30.794,60.258A38.548,38.548,0,0,1,117.56,176.5,36.953,36.953,0,0,0,134.618,176.719Z" transform="translate(142.88 94.155)" fill="#e38601"/><g transform="translate(93.66 185.913)"><path d="M143.191,122.775a18.565,18.565,0,1,0-13.58-34.538l-17.28,6.779a2.038,2.038,0,0,0-.886,2.37l8.862,22.685-3.655,1.44a1.662,1.662,0,0,0-.953,2.215l2.747,6.978a1.639,1.639,0,0,0,2.215.93l3.678-1.44,1.44,3.678-3.678,1.44a1.684,1.684,0,0,0-.953,2.215l2.747,6.978a1.706,1.706,0,0,0,2.215.953l3.655-1.44,2.06,5.228a1.706,1.706,0,0,0,2.215.953l6.978-2.747a1.684,1.684,0,0,0,.953-2.215l-2.06-5.228,10.545-3.943a1.684,1.684,0,0,0,.953-2.215l-2.747-6.978a1.706,1.706,0,0,0-2.215-.953l-10.479,4.121-1.44-3.655ZM124.936,101.95l8.729-3.434a7.5,7.5,0,1,1,5.472,13.957L130.519,116Z" transform="translate(41.667 -80.504)" fill="#e38601"/><path d="M144.136,122.475a18.565,18.565,0,1,0-13.58-34.538l-17.28,6.779a2.215,2.215,0,0,0-1.063,2.437l8.862,22.685-3.5,1.374a1.684,1.684,0,0,0-.953,2.215l2.747,6.978a1.684,1.684,0,0,0,2.215.953l3.478-1.374,1.462,3.678-3.5,1.374a1.684,1.684,0,0,0-.953,2.215l2.747,6.978a1.684,1.684,0,0,0,2.215.953l3.478-1.374,2.06,5.228a1.706,1.706,0,0,0,2.215.953l6.978-2.747a1.706,1.706,0,0,0,.953-2.215l-2.1-5.273,10.457-4.121a1.662,1.662,0,0,0,.953-2.215l-2.747-6.978a1.684,1.684,0,0,0-2.215-.953l-10.479,4.121-1.44-3.655ZM125.882,101.65l8.706-3.434a7.51,7.51,0,0,1,5.494,13.957l-8.729,3.434Z" transform="translate(42.649 -80.869)" fill="#ffd454"/><path d="M70.995,124.75A18.608,18.608,0,1,0,81.54,89.06l-17.723-5.1A1.861,1.861,0,0,0,61.6,85.339l-6.956,23.284-3.921-1.108a1.6,1.6,0,0,0-2.06,1.2l-2.215,7.067a1.639,1.639,0,0,0,1.218,2.06l3.921,1.086-1.108,3.921-3.855-1.086a1.617,1.617,0,0,0-2.06,1.2L42.35,130a1.617,1.617,0,0,0,1.2,2.06l3.921,1.108-1.706,5.406a1.639,1.639,0,0,0,1.218,2.06l7.045,2.215a1.617,1.617,0,0,0,2.06-1.2l1.706-5.406,10.789,3.079a1.617,1.617,0,0,0,2.06-1.2l2.215-7.045a1.6,1.6,0,0,0-1.2-2.06l-10.789-3.1L61.956,122C61.823,122.092,70.995,124.75,70.995,124.75ZM69.311,97.014l8.862,2.7a7.51,7.51,0,1,1-4.231,14.4l-8.862-2.681Z" transform="translate(-42.277 -83.919)" fill="#e38601"/><path d="M71.752,125.082A18.609,18.609,0,0,0,82.187,89.37L64.663,84.12c-.93,0-2.215.576-2.37,1.241l-6.934,23.261-3.655-1.13a1.617,1.617,0,0,0-2.06,1.2l-2.215,7.045a1.617,1.617,0,0,0,1.2,2.06l3.611,1.152-1.086,3.921-3.611-1.152a1.639,1.639,0,0,0-2.06,1.218L43.2,130.377a1.639,1.639,0,0,0,1.218,2.06l3.611,1.13-1.706,5.406a1.639,1.639,0,0,0,1.2,2.083l7.045,2.215a1.617,1.617,0,0,0,2.06-1.218L58.5,136.78l10.789,3.1a1.617,1.617,0,0,0,2.06-1.218l2.215-7.045a1.617,1.617,0,0,0-1.218-2.06l-10.789-3.079,1.086-3.921Zm-1.506-27.6,8.862,2.7a7.51,7.51,0,1,1-4.231,14.4l-8.862-2.7Z" transform="translate(-41.24 -83.676)" fill="#ffd454"/></g></g></g></svg>