<?xml version="1.0" encoding="iso-8859-1"?>
<!-- Generator: Adobe Illustrator 19.0.0, SVG Export Plug-In . SVG Version: 6.00 Build 0)  -->
<svg version="1.1" id="Capa_1" xmlns="http://www.w3.org/2000/svg" xmlns:xlink="http://www.w3.org/1999/xlink" x="0px" y="0px"
	 viewBox="0 0 460.969 460.969" style="enable-background:new 0 0 460.969 460.969;" xml:space="preserve">
<g>
	<path style="fill:#4DCFE0;" d="M117.551,255.562H15.673C6.792,255.562,0,248.77,0,239.889s6.792-15.673,15.673-15.673h101.878
		c8.882,0,15.673,6.792,15.673,15.673S126.433,255.562,117.551,255.562z"/>
	<path style="fill:#4DCFE0;" d="M368.327,255.562H259.135c-8.882,0-15.673-6.792-15.673-15.673s6.792-15.673,15.673-15.673h103.967
		l72.62-57.469c6.792-5.224,16.718-4.18,21.943,2.612c5.225,6.792,4.18,16.718-2.612,21.943l-76.8,61.127
		C375.118,254.517,371.984,255.562,368.327,255.562z"/>
	<path style="fill:#4DCFE0;" d="M117.551,316.689H15.673C6.792,316.689,0,309.897,0,301.015s6.792-15.673,15.673-15.673h101.878
		c8.882,0,15.673,6.792,15.673,15.673S126.433,316.689,117.551,316.689z"/>
	<path style="fill:#4DCFE0;" d="M368.327,316.689H260.18c-8.882,0-15.673-6.792-15.673-15.673s6.792-15.673,15.673-15.673h102.922
		l72.62-52.245c6.792-5.224,16.718-3.657,21.943,3.657c5.225,6.792,3.657,16.718-3.657,21.943l-76.278,54.857
		C374.596,315.644,371.461,316.689,368.327,316.689z"/>
</g>
<path style="fill:#1185E0;" d="M458.188,303.105c-4.702-7.314-14.629-9.404-21.943-4.702l-73.143,47.543h-89.861V194.958h95.086
	c4.18,0,7.837-1.567,10.449-4.18l76.8-71.053c4.702-4.18,6.269-10.971,4.18-17.241c-2.612-5.747-8.359-9.927-14.629-9.927H354.22
	c-2.612-5.224-7.837-8.882-14.106-8.882H203.233c-4.18,0-7.837,1.567-10.449,4.18l-5.224,4.702H92.473
	c-4.18,0-7.837,1.567-10.449,4.18l-76.8,71.053c-4.702,4.18-6.269,10.971-4.18,17.241c2.612,5.747,8.359,9.927,14.629,9.927h89.339
	v150.988H15.673C6.792,345.946,0,352.738,0,361.619s6.792,15.673,15.673,15.673h352.653c3.135,0,6.269-1.045,8.359-2.612
	l76.8-50.155C460.8,319.823,462.89,309.897,458.188,303.105z M404.898,123.905l-42.841,39.706h-67.918l42.841-39.706H404.898z
	 M55.902,163.611l42.841-39.706h55.38l-42.841,39.706H55.902z M136.359,182.942l73.143-67.918h90.906l-53.29,49.633
	c-3.135,3.135-5.224,7.314-5.224,11.494v169.796H136.359V182.942z"/>
<g>
</g>
<g>
</g>
<g>
</g>
<g>
</g>
<g>
</g>
<g>
</g>
<g>
</g>
<g>
</g>
<g>
</g>
<g>
</g>
<g>
</g>
<g>
</g>
<g>
</g>
<g>
</g>
<g>
</g>
</svg>
