<?xml version="1.0" encoding="iso-8859-1"?>
<!-- Generator: Adobe Illustrator 19.0.0, SVG Export Plug-In . SVG Version: 6.00 Build 0)  -->
<svg version="1.1" id="Capa_1" xmlns="http://www.w3.org/2000/svg" xmlns:xlink="http://www.w3.org/1999/xlink" x="0px" y="0px"
	 viewBox="0 0 424.229 424.229" style="enable-background:new 0 0 424.229 424.229;" xml:space="preserve">
<g>
	<path style="fill:#4DCFE0;" d="M184.947,277.943c-34.482,0-62.694-28.212-62.694-62.694s28.212-62.694,62.694-62.694
		s62.694,28.212,62.694,62.694S219.429,277.943,184.947,277.943z M184.947,183.902c-17.241,0-31.347,14.106-31.347,31.347
		s14.106,31.347,31.347,31.347s31.347-14.106,31.347-31.347S202.188,183.902,184.947,183.902z"/>
	<path style="fill:#4DCFE0;" d="M318.171,85.159H47.02c-8.882,0-15.673-6.792-15.673-15.673c0-8.882,6.792-15.673,15.673-15.673
		h271.151c8.882,0,15.673,6.792,15.673,15.673C333.845,78.367,327.053,85.159,318.171,85.159z"/>
	<path style="fill:#4DCFE0;" d="M286.824,32.914H78.367c-8.882,0-15.673-6.792-15.673-15.673S69.486,1.567,78.367,1.567h208.457
		c8.882,0,15.673,6.792,15.673,15.673S295.706,32.914,286.824,32.914z"/>
</g>
<path style="fill:#1185E0;" d="M365.192,231.445V121.731c0-8.882-6.792-15.673-15.673-15.673H15.673
	C6.792,106.057,0,112.849,0,121.731V309.29c0,8.882,6.792,15.673,15.673,15.673h245.551v57.992
	c0,27.167,40.751,39.706,81.502,39.706s81.502-12.016,81.502-39.706V270.106C424.229,247.641,397.061,235.624,365.192,231.445z
	 M392.882,323.396c-4.702,4.18-22.988,10.449-50.155,10.449c-27.69,0-45.453-6.269-50.155-10.449v-20.898
	c14.629,5.224,32.392,7.314,50.155,7.314s35.527-2.612,50.155-7.314V323.396z M342.727,278.465c-22.988,0-39.184-4.702-46.498-8.359
	c7.314-3.657,24.033-8.359,46.498-8.359c22.465,0,39.184,4.702,46.498,8.359C381.91,273.763,365.714,278.465,342.727,278.465z
	 M31.347,293.616V137.404h302.498V230.4c-37.616,1.567-72.62,14.106-72.62,39.706v23.51H31.347z M342.727,391.314
	c-27.167,0-45.453-6.792-50.155-10.449v-22.988c14.629,5.224,32.392,7.314,50.155,7.314s35.527-2.612,50.155-7.314v22.988
	C388.18,385.045,370.416,391.314,342.727,391.314z"/>
<g>
</g>
<g>
</g>
<g>
</g>
<g>
</g>
<g>
</g>
<g>
</g>
<g>
</g>
<g>
</g>
<g>
</g>
<g>
</g>
<g>
</g>
<g>
</g>
<g>
</g>
<g>
</g>
<g>
</g>
</svg>
