<?xml version="1.0" encoding="UTF-8"?><svg id="_Слой_1" xmlns="http://www.w3.org/2000/svg" xmlns:xlink="http://www.w3.org/1999/xlink" viewBox="0 0 477.34 418"><defs><style>.cls-1{fill:#0069aa;}.cls-2,.cls-3{fill:#fff;}.cls-3,.cls-4,.cls-5{stroke:#2a2a2a;stroke-width:5px;}.cls-6{fill:#32a5a5;}.cls-7,.cls-8{fill:#2a2a2a;}.cls-9,.cls-8{isolation:isolate;}.cls-9,.cls-4,.cls-5{fill:none;}.cls-10{fill:url(#_Безымянный_градиент_11);}.cls-8{font-family:Roboto-Medium, 'Roboto Medium';font-size:49px;font-weight:500;}.cls-4{stroke-linecap:round;}.cls-11{fill:#ffd012;}</style><linearGradient id="_Безымянный_градиент_11" x1="-1450.63" y1="676.82" x2="-1450.63" y2="675.82" gradientTransform="translate(214886.34 282909.02) scale(148 -418)" gradientUnits="userSpaceOnUse"><stop offset="0" stop-color="#60a1ca"/><stop offset="1" stop-color="#f5f6fa"/></linearGradient></defs><g id="npf_rectangle"><rect id="Rectangle_769" class="cls-10" x="119.34" y="0" width="148" height="418"/><g id="npf"><g id="Rectangle_764"><rect class="cls-2" x="69.34" y="107" width="391" height="210"/><rect class="cls-5" x="71.84" y="109.5" width="386" height="205"/></g><path id="Path_230" class="cls-3" d="m178.29,316.79V51.6l125.24,35.89v229.3h-125.24Z"/><g id="Rectangle_765"><rect class="cls-11" x="300.34" y="128" width="177" height="72"/><rect class="cls-5" x="302.84" y="130.5" width="172" height="67"/></g><path id="Path_231" class="cls-4" d="m127.74,133.88v46.27"/><line id="Line_7" class="cls-4" x1="127.74" y1="234.28" x2="127.74" y2="280.56"/><line id="Line_8" class="cls-4" x1="334.46" y1="234.28" x2="334.46" y2="280.56"/><line id="Line_11" class="cls-4" x1="216.33" y1="107.68" x2="216.33" y2="153.96"/><line id="Line_13" class="cls-4" x1="216.33" y1="180.15" x2="216.33" y2="226.42"/><line id="Line_12" class="cls-4" x1="265.55" y1="107.68" x2="265.55" y2="153.96"/><line id="Line_14" class="cls-4" x1="265.55" y1="180.15" x2="265.55" y2="226.42"/><line id="Line_9" class="cls-4" x1="385.08" y1="234.28" x2="385.08" y2="280.56"/><line id="Line_10" class="cls-4" x1="435.7" y1="234.28" x2="435.7" y2="280.56"/><g id="_НПФ" class="cls-9"><text class="cls-8" transform="translate(334.34 181)"><tspan x="0" y="0">НПФ</tspan></text></g><g id="Rectangle_766"><rect class="cls-1" x="208.34" y="259" width="63" height="60"/><rect class="cls-5" x="210.84" y="261.5" width="58" height="55"/></g><g id="Subtraction_1"><path class="cls-6" d="m206.74,316.04H27.65c2.33-4.96,5.76-9.7,10.24-14.13,5.45-5.39,12.28-10.17,20.3-14.21,8.15-4.1,17.27-7.29,27.1-9.49,10.21-2.29,20.94-3.45,31.9-3.45s21.69,1.16,31.9,3.45c9.84,2.2,18.96,5.4,27.1,9.49,8.02,4.03,14.85,8.81,20.3,14.21,4.48,4.43,7.91,9.17,10.24,14.13Z"/><path class="cls-7" d="m202.58,313.54c-2.04-3.41-4.66-6.71-7.83-9.85-5.26-5.21-11.88-9.84-19.67-13.75-7.96-4-16.89-7.13-26.53-9.29-10.03-2.25-20.58-3.38-31.35-3.38s-21.32,1.14-31.35,3.38c-9.64,2.16-18.56,5.28-26.53,9.29-7.79,3.92-14.41,8.54-19.67,13.75-3.17,3.14-5.79,6.44-7.83,9.85h170.77m7.91,5H23.91c2.37-6.53,6.48-12.72,12.22-18.4,5.64-5.58,12.68-10.51,20.94-14.67,8.33-4.19,17.64-7.45,27.68-9.7,10.39-2.33,21.3-3.51,32.45-3.51s22.06,1.18,32.45,3.51c10.04,2.25,19.35,5.51,27.68,9.7,8.26,4.15,15.3,9.09,20.94,14.67,5.74,5.68,9.85,11.88,12.22,18.4h0Z"/></g><g id="Subtraction_2"><path class="cls-6" d="m105.34,316.04H3.89c1.26-2.26,2.94-4.43,5.02-6.49,3.11-3.08,7.02-5.81,11.62-8.12,4.69-2.36,9.95-4.2,15.63-5.47,5.9-1.32,12.11-1.99,18.45-1.99s12.55.67,18.45,1.99c5.68,1.27,10.94,3.11,15.63,5.47,4.6,2.31,8.51,5.04,11.62,8.12,2.08,2.06,3.76,4.23,5.02,6.49Z"/><path class="cls-7" d="m100.59,313.54c-.62-.75-1.3-1.49-2.03-2.21-2.93-2.89-6.62-5.47-10.99-7.66-4.51-2.27-9.58-4.04-15.05-5.26-5.73-1.28-11.75-1.93-17.91-1.93s-12.18.65-17.9,1.93c-5.48,1.23-10.54,3-15.05,5.26-4.36,2.19-8.06,4.77-10.99,7.66-.73.72-1.41,1.46-2.03,2.21h91.95m8.64,5H0c1.39-3.82,3.79-7.44,7.16-10.76,3.3-3.26,7.42-6.15,12.26-8.58,4.88-2.45,10.33-4.36,16.21-5.67,6.08-1.36,12.47-2.05,19-2.05s12.92.69,19,2.05c5.88,1.32,11.33,3.22,16.21,5.67,4.83,2.43,8.96,5.31,12.26,8.58,3.36,3.32,5.77,6.95,7.16,10.76h0Z"/></g><line id="Line_15" class="cls-5" x1="171.33" y1="342.55" x2="406.17" y2="342.55"/><line id="Line_16" class="cls-5" x1="86.96" y1="366.99" x2="210.71" y2="366.99"/></g></g></svg>