<svg xmlns="http://www.w3.org/2000/svg" xmlns:xlink="http://www.w3.org/1999/xlink" width="347.38" height="307.881" viewBox="0 0 347.38 307.881"><defs><linearGradient id="a" x1="0.5" x2="0.5" y2="1" gradientUnits="objectBoundingBox"><stop offset="0" stop-color="#0069aa"/><stop offset="1" stop-color="#0069aa" stop-opacity="0.6"/></linearGradient></defs><g transform="translate(-1271.62 -907.541)"><g transform="translate(-214.226 -3213)"><path d="M63.228,113.569q-6.889-6.727-6.889-17.765V89.924q0-10.8,7.009-17.483t17.886-6.687q10.958,0,17.926,6.687t6.969,18.047v5.72q0,10.473-6.727,17.282T81.4,120.3Q70.116,120.3,63.228,113.569Zm9.91-32.75q-3.1,3.384-3.1,9.346v5.963a12.85,12.85,0,0,0,3.182,8.983,10.546,10.546,0,0,0,8.177,3.5,10.222,10.222,0,0,0,8.1-3.343q2.94-3.344,2.94-9.386V89.842a12.736,12.736,0,0,0-3.142-9.023,11.33,11.33,0,0,0-16.153,0ZM18.876,104.1,76.159,12.418l10.07,5.8L28.947,109.9ZM6.992,47.586Q-.058,40.938-.058,29.66v-5.72q0-10.634,6.848-17.442T24.757-.311q11.279,0,18.087,6.809t6.808,17.845v5.8q0,10.554-6.808,17.322T24.918,54.232Q14.041,54.232,6.992,47.586Zm9.668-32.7a13.69,13.69,0,0,0-3.021,9.249V30.11a12.92,12.92,0,0,0,3.1,9.007,10.491,10.491,0,0,0,8.177,3.433,10.276,10.276,0,0,0,8.057-3.433q3.062-3.433,3.061-9.329v-5.9a13.071,13.071,0,0,0-3.1-9.048,10.437,10.437,0,0,0-8.177-3.473A10.14,10.14,0,0,0,16.66,14.884Z" transform="translate(1727.097 4126.75)" fill="url(#a)"/></g><g transform="translate(239.774 -3523.766)"><path d="M-290.624,259.206q-25.553-22.125-25.552-59.523a72.455,72.455,0,0,1,12.139-41.118q12.141-18.209,34.069-28a74.269,74.269,0,0,1-29.076-25.748q-10.672-16.35-10.671-37.3,0-36.419,23.5-57.761t63.439-21.342q40.14,0,63.635,21.342t23.5,57.761q0,20.951-10.769,37.3a74.7,74.7,0,0,1-29.37,25.748q22.321,10.377,34.363,28.391a71.618,71.618,0,0,1,12.042,40.727q0,37.593-25.455,59.621t-67.747,22.027Q-265.071,281.332-290.624,259.206Zm34.461-96.138Q-268.6,175.991-268.6,197.333q0,20.951,12.237,33.482t33.776,12.532q21.538,0,33.58-12.139t12.041-33.874q0-21.146-12.629-34.167t-33.384-13.021Q-243.729,150.145-256.163,163.068Zm4.6-125.019q-10.573,11.455-10.573,31.23,0,19.58,10.671,31.133t28.881,11.552q18.209,0,28.88-11.552t10.671-31.133q0-18.6-10.769-30.642T-222.779,26.6Q-240.988,26.6-251.562,38.049Z" transform="translate(1348.021 4442.893)" fill="url(#a)"/></g><g transform="translate(270.774 -3421)"><path d="M-135.172,192.721a34.451,34.451,0,0,0,3.882-7.739,23.076,23.076,0,0,0,1.1-6.714V169.04H-119.5l-.049,8.545a23.811,23.811,0,0,1-2.612,10.376,25.772,25.772,0,0,1-6.617,8.569Zm32.056-16.747q-6.372-5.519-6.373-14.845a18.073,18.073,0,0,1,3.028-10.254,19.45,19.45,0,0,1,8.5-6.982,18.518,18.518,0,0,1-7.25-6.421,16.634,16.634,0,0,1-2.661-9.3q0-9.081,5.859-14.4t15.82-5.323q10.01,0,15.87,5.323t5.859,14.4a16.524,16.524,0,0,1-2.686,9.3,18.625,18.625,0,0,1-7.324,6.421,20.293,20.293,0,0,1,8.57,7.08,17.86,17.86,0,0,1,3,10.156q0,9.376-6.348,14.869t-16.894,5.493Q-96.744,181.49-103.116,175.973ZM-94.522,152a11.8,11.8,0,0,0-3.1,8.545,11.436,11.436,0,0,0,3.052,8.35q3.051,3.125,8.423,3.125t8.374-3.028q3-3.027,3-8.447a11.719,11.719,0,0,0-3.15-8.52,11.07,11.07,0,0,0-8.325-3.247A10.954,10.954,0,0,0-94.522,152Zm1.147-31.177a11.039,11.039,0,0,0-2.637,7.789,10.993,10.993,0,0,0,2.661,7.763,9.326,9.326,0,0,0,7.2,2.881,9.325,9.325,0,0,0,7.2-2.881,10.993,10.993,0,0,0,2.661-7.763,11.034,11.034,0,0,0-2.686-7.642,9.213,9.213,0,0,0-7.227-3A9.288,9.288,0,0,0-93.375,120.821Z" transform="translate(1352.021 4439.893)" fill="url(#a)"/><path d="M-124.21,173.629q-6.616-7.861-6.616-20.605v-4.053q0-18.7,9.106-29.3t26.2-10.6h1.22v9.814h-1.464q-9.962.147-15.918,5.469t-7.08,15.088a19.266,19.266,0,0,1,14.6-6.006q9.424,0,14.868,6.64t5.445,17.139q0,10.84-6.373,17.554t-16.723,6.714A21.484,21.484,0,0,1-124.21,173.629Zm10.01-28.417a12.849,12.849,0,0,0-4.761,5.859v3.613q0,7.91,3.321,12.573a10.125,10.125,0,0,0,8.593,4.664,10.017,10.017,0,0,0,8.35-3.955q3.075-3.956,3.075-10.4t-3.125-10.5a9.962,9.962,0,0,0-8.3-4.053A12.49,12.49,0,0,0-114.2,145.211Z" transform="translate(1430.021 4439.893)" fill="url(#a)"/></g><text transform="translate(1512 1058)" fill="#2a2a2a" font-size="23" font-family="Roboto-Bold, Roboto" font-weight="700"><tspan x="0" y="0">годовых</tspan></text></g></svg>