<svg xmlns="http://www.w3.org/2000/svg" xmlns:xlink="http://www.w3.org/1999/xlink" width="347.428" height="306.287" viewBox="0 0 347.428 306.287"><defs><linearGradient id="a" x1="0.5" x2="0.5" y2="1" gradientUnits="objectBoundingBox"><stop offset="0" stop-color="#0069aa"/><stop offset="1" stop-color="#0069aa" stop-opacity="0.6"/></linearGradient></defs><g transform="translate(-1262.166 -912.172)"><g transform="translate(1503.407 913.439)"><path d="M63.285,113.881Q56.4,107.154,56.4,96.116V90.235q0-10.8,7.009-17.483t17.886-6.687q10.958,0,17.926,6.687T106.187,90.8v5.72q0,10.473-6.727,17.282t-18.007,6.808Q70.173,120.608,63.285,113.881Zm9.91-32.75q-3.1,3.384-3.1,9.346v5.962a12.85,12.85,0,0,0,3.182,8.983,10.546,10.546,0,0,0,8.177,3.5,10.222,10.222,0,0,0,8.1-3.343q2.94-3.344,2.94-9.386V90.154a12.732,12.732,0,0,0-3.142-9.023,11.33,11.33,0,0,0-16.153,0ZM18.933,104.414,76.216,12.73l10.07,5.8L29,110.215ZM7.05,47.9Q0,41.25,0,29.971V24.25Q0,13.617,6.848,6.809T24.815,0Q36.094,0,42.9,6.809T49.71,24.654v5.8q0,10.554-6.808,17.322T24.976,54.544Q14.1,54.544,7.05,47.9Zm9.668-32.7A13.69,13.69,0,0,0,13.7,24.445v5.977a12.92,12.92,0,0,0,3.1,9.007,10.491,10.491,0,0,0,8.177,3.433,10.276,10.276,0,0,0,8.057-3.433Q36.095,36,36.094,30.1V24.2a13.071,13.071,0,0,0-3.1-9.048,10.437,10.437,0,0,0-8.177-3.473A10.14,10.14,0,0,0,16.718,15.2Z" fill="url(#a)"/></g><g transform="translate(1252.767 914.564)"><path d="M35.93,256.456Q9.4,224.932,9.4,173.828V157.577Q9.4,82.585,45.915,40.1T150.962-2.392h4.9V36.964h-5.874q-39.944.587-63.831,21.929T57.761,119.4q22.908-24.084,58.544-24.084,37.791,0,59.621,26.629t21.832,68.726q0,43.469-25.552,70.391T105.145,287.98Q62.461,287.98,35.93,256.456ZM76.069,142.5A51.5,51.5,0,0,0,56.978,166v14.489q0,31.72,13.315,50.419t34.461,18.7q21.146,0,33.482-15.86t12.335-41.706q0-25.846-12.532-42.1t-33.286-16.252A50.1,50.1,0,0,0,76.069,142.5Z" transform="translate(0 0)" fill="url(#a)"/></g><g transform="translate(1478.217 1131.349)"><path d="M0,83.3a34.45,34.45,0,0,0,3.882-7.739,23.076,23.076,0,0,0,1.1-6.714V59.62H15.674l-.049,8.545A23.811,23.811,0,0,1,13.013,78.54,25.771,25.771,0,0,1,6.4,87.109ZM31.714,64.478q-5.835-7.594-5.981-22.486v-12.3q0-15.332,5.737-23t17.5-7.666q11.671,0,17.408,7.471t5.883,22.363v12.3q0,15.332-5.737,23.12T49.073,72.07Q37.549,72.07,31.714,64.478ZM40.43,12.964q-2.734,4.42-2.881,13.794V42.872q0,9.96,2.784,14.844a9.347,9.347,0,0,0,8.74,4.882,9.186,9.186,0,0,0,8.447-4.516q2.734-4.517,2.881-14.136V27.881q0-10.01-2.734-14.673T48.974,8.545Q43.164,8.545,40.43,12.964Z" fill="url(#a)"/><path d="M8.57,64.478Q2.735,56.884,2.588,41.992v-12.3q0-15.332,5.737-23T25.83-.977q11.671,0,17.408,7.471t5.883,22.363v12.3q0,15.332-5.737,23.12T25.928,72.07Q14.4,72.07,8.57,64.478Zm8.716-51.514q-2.734,4.42-2.881,13.794V42.872q0,9.96,2.783,14.844A9.349,9.349,0,0,0,25.928,62.6a9.186,9.186,0,0,0,8.447-4.516q2.734-4.517,2.881-14.136V27.881q0-10.01-2.735-14.673T25.83,8.545Q20.02,8.545,17.285,12.964Z" transform="translate(82.172)" fill="url(#a)"/></g><text transform="translate(1502.594 1059.358)" fill="#2a2a2a" font-size="23" font-family="Roboto, sans-serif" font-weight="700"><tspan x="0" y="0">годовых</tspan></text></g></svg>