<svg id="OBJECTS" xmlns="http://www.w3.org/2000/svg" viewBox="0 0 396.38 398"><path d="M396.07,319.35S475,196.41,438.61,117.79,315.46,38.73,285.46,71.58c-18.34,20.09-13,53.63-56.41,66.61-26.55,7.94-45.89-4.79-85.48-18.6S58,135.8,52.37,183.71C46,237.49,95,265.6,121.85,285s13.27,51.47,24.41,81.53S337.07,428.48,396.07,319.35Z" transform="translate(-51.81 -51)" style="fill:#d5faf6"/><path d="M435.11,183.71s6-69.48-39-104C357.33,50,318.6,64.38,306.41,77.44s1.15,28.8,34.82,26.55S426,125,435.11,183.71Z" transform="translate(-51.81 -51)" style="fill:#fff"/><ellipse cx="168.77" cy="388.72" rx="42.91" ry="9.28" style="fill:#d2edff"/><ellipse cx="321.01" cy="379.45" rx="42.91" ry="9.28" style="fill:#d2edff"/><ellipse cx="252.74" cy="370.17" rx="111.35" ry="9.28" style="fill:#d2edff"/><ellipse cx="117.56" cy="363.86" rx="111.35" ry="9.28" style="fill:#d2edff"/><circle cx="91.38" cy="181.61" r="70.72" style="fill:#acdaff"/><circle cx="91.38" cy="181.61" r="61.26" style="fill:#e6ffff"/><path d="M165.1,235c8.55-12.91,9.45-36.17,5.16-48.57A53.54,53.54,0,0,0,95,256a5.17,5.17,0,0,1,1.25.18C115.85,264.36,149,259.27,165.1,235Z" transform="translate(-51.81 -51)" style="fill:#fffaff;opacity:0.5700000000000001"/><rect x="135.97" y="181.84" width="15.21" height="3.74" rx="1.87" transform="translate(-93.07 274.84) rotate(-89.55)" style="fill:#acdaff"/><rect x="135.2" y="279.63" width="15.21" height="3.74" rx="1.87" transform="translate(-191.62 371.1) rotate(-89.55)" style="fill:#acdaff"/><rect x="190.21" y="225.39" width="3.74" height="15.21" rx="1.87" transform="translate(-94.22 372.24) rotate(-89.55)" style="fill:#acdaff"/><rect x="92.42" y="224.62" width="3.74" height="15.21" rx="1.87" transform="translate(-190.48 273.69) rotate(-89.55)" style="fill:#acdaff"/><circle cx="116.85" cy="138.28" r="1.87" style="fill:#acdaff"/><circle cx="65.91" cy="224.94" r="1.87" style="fill:#acdaff"/><circle cx="135.1" cy="156.82" r="1.87" style="fill:#acdaff"/><circle cx="47.66" cy="206.4" r="1.87" style="fill:#acdaff"/><circle cx="134.71" cy="207.08" r="1.87" style="fill:#acdaff"/><circle cx="48.05" cy="156.14" r="1.87" style="fill:#acdaff"/><circle cx="116.17" cy="225.33" r="1.87" style="fill:#acdaff"/><circle cx="66.59" cy="137.89" r="1.87" style="fill:#acdaff"/><path d="M162.2,218.53c5.6-2.18,31.73-13.43,31.73-13.43l.1.18.19.36.09.18s-23.78,15.6-28.69,19.07-22.32,8.89-22.32,8.89l-.31-.59-.19-.35-.32-.59S156.6,220.71,162.2,218.53Z" transform="translate(-51.81 -51)" style="fill:#ffbc00"/><path d="M125.42,236.41c-4.28-.66-24.63-2.84-24.63-2.84v-.81s20.27-2.78,24.53-3.57,17.14,2.48,17.14,2.48v1.74S129.71,237.07,125.42,236.41Z" transform="translate(-51.81 -51)" style="fill:#ffbc00"/><circle cx="91.38" cy="181.61" r="3.74" style="fill:#acdaff"/><path d="M106,309.09,89.35,408.87a1.89,1.89,0,0,0,1.86,2.2h0a1.89,1.89,0,0,0,1.85-1.49l21.81-100.49Z" transform="translate(-51.81 -51)" style="fill:#acdaff"/><path d="M122.12,303.1,110.38,403.58a1.88,1.88,0,0,0,2,2.1h0a1.88,1.88,0,0,0,1.77-1.58L131,302.66Z" transform="translate(-51.81 -51)" style="fill:#acdaff"/><path d="M191,309.09l16.66,99.78a1.89,1.89,0,0,1-1.86,2.2h0a1.88,1.88,0,0,1-1.84-1.49L182.13,309.09Z" transform="translate(-51.81 -51)" style="fill:#acdaff"/><path d="M174.88,303.1l11.74,100.48a1.89,1.89,0,0,1-2,2.1h0a1.89,1.89,0,0,1-1.77-1.58L166,302.66Z" transform="translate(-51.81 -51)" style="fill:#acdaff"/><rect x="37.18" y="251.2" width="120.7" height="9.22" rx="4.61" style="fill:#2099ff"/><path d="M95,388.4l-.28-.1a46,46,0,0,0,1.43-20.73c-1.75-10.32-8.4-24.27-30.16-32.13l.1-.29c9.67,3.5,17.2,8.47,22.4,14.79a37,37,0,0,1,8,17.59A46.31,46.31,0,0,1,95,388.4Z" transform="translate(-51.81 -51)" style="fill:#6cb7d8"/><path d="M69,336.46s-5.72.86-8.67-1.77S62.42,330.78,69,336.46Z" transform="translate(-51.81 -51)" style="fill:#6cb7d8"/><path d="M74.94,339.27s-1.79-7.57-4.57-9.06S67.2,334.11,74.94,339.27Z" transform="translate(-51.81 -51)" style="fill:#6cb7d8"/><path d="M74,338.75s-7.7-1.1-10.1.94S66.41,344.07,74,338.75Z" transform="translate(-51.81 -51)" style="fill:#6cb7d8"/><path d="M78.77,341.65s-7.7-1.1-10.1,1S71.14,347,78.77,341.65Z" transform="translate(-51.81 -51)" style="fill:#6cb7d8"/><path d="M83.53,345s-7.7-1.1-10.1.95S75.9,350.34,83.53,345Z" transform="translate(-51.81 -51)" style="fill:#6cb7d8"/><path d="M88.14,349.66S80.55,348,78,349.8,80.11,354.36,88.14,349.66Z" transform="translate(-51.81 -51)" style="fill:#6cb7d8"/><path d="M92.36,355.83s-7-3.28-9.94-2S83.52,358.72,92.36,355.83Z" transform="translate(-51.81 -51)" style="fill:#6cb7d8"/><path d="M95.43,363.39s-5.64-5.36-8.78-5.09S86.12,363.3,95.43,363.39Z" transform="translate(-51.81 -51)" style="fill:#6cb7d8"/><path d="M96.76,372.23s-3.51-6.94-6.57-7.73S88,369,96.76,372.23Z" transform="translate(-51.81 -51)" style="fill:#6cb7d8"/><path d="M96.42,380.91s-1.82-7.56-4.61-9S88.66,375.79,96.42,380.91Z" transform="translate(-51.81 -51)" style="fill:#6cb7d8"/><path d="M80.24,342.56s.76-6.65-1.8-10.21-3.42.52-2.44,2.82A82.09,82.09,0,0,0,80.24,342.56Z" transform="translate(-51.81 -51)" style="fill:#6cb7d8"/><path d="M84.13,345.64s1.8-6.45-.17-10.36-3.46,0-2.85,2.39A80.39,80.39,0,0,0,84.13,345.64Z" transform="translate(-51.81 -51)" style="fill:#6cb7d8"/><path d="M87.74,349.27S91,343.42,90,339.15s-3.36-.83-3.33,1.67A79.49,79.49,0,0,0,87.74,349.27Z" transform="translate(-51.81 -51)" style="fill:#6cb7d8"/><path d="M91.26,354s3.25-5.86,2.24-10.13-3.36-.82-3.33,1.67A79.78,79.78,0,0,0,91.26,354Z" transform="translate(-51.81 -51)" style="fill:#6cb7d8"/><path d="M94.33,360.34s4-5.39,3.53-9.75-3.23-1.25-3.52,1.23A80.35,80.35,0,0,0,94.33,360.34Z" transform="translate(-51.81 -51)" style="fill:#6cb7d8"/><path d="M96.4,368.83s4.92-4.54,5.31-8.9-2.93-1.85-3.68.53A79.37,79.37,0,0,0,96.4,368.83Z" transform="translate(-51.81 -51)" style="fill:#6cb7d8"/><path d="M96.75,376.54s5.73-3.46,7-7.65-2.5-2.4-3.72-.22A79.52,79.52,0,0,0,96.75,376.54Z" transform="translate(-51.81 -51)" style="fill:#6cb7d8"/><path d="M131.91,373.52l.28-.1a45.86,45.86,0,0,1-1.43-20.73c1.75-10.32,8.4-24.27,30.16-32.13l-.11-.29c-9.66,3.5-17.2,8.47-22.39,14.79a37,37,0,0,0-8,17.59A46,46,0,0,0,131.91,373.52Z" transform="translate(-51.81 -51)" style="fill:#6cb7d8"/><path d="M157.86,321.58s5.72.86,8.67-1.77S164.45,315.9,157.86,321.58Z" transform="translate(-51.81 -51)" style="fill:#6cb7d8"/><path d="M151.93,324.39s1.79-7.57,4.57-9.06S159.67,319.23,151.93,324.39Z" transform="translate(-51.81 -51)" style="fill:#6cb7d8"/><path d="M152.84,323.87s7.7-1.1,10.1.94S160.47,329.19,152.84,323.87Z" transform="translate(-51.81 -51)" style="fill:#6cb7d8"/><path d="M148.11,326.77s7.7-1.1,10.1,1S155.74,332.09,148.11,326.77Z" transform="translate(-51.81 -51)" style="fill:#6cb7d8"/><path d="M143.35,330.13s7.69-1.1,10.1.95S151,335.46,143.35,330.13Z" transform="translate(-51.81 -51)" style="fill:#6cb7d8"/><path d="M138.74,334.78s7.58-1.71,10.14.14S146.76,339.48,138.74,334.78Z" transform="translate(-51.81 -51)" style="fill:#6cb7d8"/><path d="M134.52,341s7-3.28,9.94-2S143.36,343.84,134.52,341Z" transform="translate(-51.81 -51)" style="fill:#6cb7d8"/><path d="M131.45,348.51s5.63-5.36,8.77-5.09S140.75,348.42,131.45,348.51Z" transform="translate(-51.81 -51)" style="fill:#6cb7d8"/><path d="M130.11,357.35s3.52-6.93,6.57-7.73S138.85,354.16,130.11,357.35Z" transform="translate(-51.81 -51)" style="fill:#6cb7d8"/><path d="M130.45,366s1.83-7.56,4.62-9S138.22,360.91,130.45,366Z" transform="translate(-51.81 -51)" style="fill:#6cb7d8"/><path d="M146.63,327.68s-.76-6.65,1.8-10.21,3.43.52,2.44,2.82A79.65,79.65,0,0,1,146.63,327.68Z" transform="translate(-51.81 -51)" style="fill:#6cb7d8"/><path d="M142.75,330.76s-1.8-6.45.16-10.36,3.47,0,2.86,2.39A80.39,80.39,0,0,1,142.75,330.76Z" transform="translate(-51.81 -51)" style="fill:#6cb7d8"/><path d="M139.14,334.39s-3.25-5.85-2.25-10.12,3.37-.83,3.34,1.67A79.49,79.49,0,0,1,139.14,334.39Z" transform="translate(-51.81 -51)" style="fill:#6cb7d8"/><path d="M135.61,339.07s-3.24-5.86-2.24-10.13,3.37-.82,3.33,1.67A79.78,79.78,0,0,1,135.61,339.07Z" transform="translate(-51.81 -51)" style="fill:#6cb7d8"/><path d="M132.55,345.46s-4-5.39-3.53-9.75,3.23-1.25,3.52,1.23A80.35,80.35,0,0,1,132.55,345.46Z" transform="translate(-51.81 -51)" style="fill:#6cb7d8"/><path d="M130.48,354s-4.93-4.54-5.32-8.9,2.93-1.85,3.69.53A79.37,79.37,0,0,1,130.48,354Z" transform="translate(-51.81 -51)" style="fill:#6cb7d8"/><path d="M130.13,361.66s-5.74-3.46-7-7.65,2.5-2.4,3.72-.22A80.34,80.34,0,0,1,130.13,361.66Z" transform="translate(-51.81 -51)" style="fill:#6cb7d8"/><path d="M98.76,360.57s-6.68-19.79-.67-25.47-1.45-13.75.32-19,8.25-8.38,11.07,1.26,3.63,9.93,10.73,10.38,6.55,14.74,5.3,21.31,5.71-3.81,7.82,3.25-8.11,21.61-18.85,29.2-23.89-14-23-19.39S96.34,363.94,98.76,360.57Z" transform="translate(-51.81 -51)" style="fill:#82c4e8"/><path d="M99.71,333a8,8,0,0,1-1.62,2.13c-6,5.68.67,25.47.67,25.47-2.42,3.37-6.36-3.85-7.27,1.54s12.24,27,23,19.39c.58-.41,1.15-.84,1.72-1.28A97.24,97.24,0,0,0,99.71,333Z" transform="translate(-51.81 -51)" style="fill:#6cb7d8"/><path d="M110.82,383.38a.44.44,0,0,1-.44.14A.46.46,0,0,1,110,383c0-.27,5-27.34-7.51-66.58a.48.48,0,1,1,.91-.29c12.6,39.49,7.59,66.78,7.54,67A.51.51,0,0,1,110.82,383.38Z" transform="translate(-51.81 -51)" style="fill:#98cff4"/><path d="M106.25,328l-6.33-5.1a.48.48,0,0,1,.59-.75L106,326.6l2.89-4.84a.47.47,0,0,1,.65-.16.47.47,0,0,1,.17.65Z" transform="translate(-51.81 -51)" style="fill:#98cff4"/><path d="M121.73,331.91l0,0-12.32,11.27-9.79-6.65a.48.48,0,0,1-.12-.66.47.47,0,0,1,.66-.13l9.16,6.23,11.77-10.76a.47.47,0,0,1,.67,0A.48.48,0,0,1,121.73,331.91Z" transform="translate(-51.81 -51)" style="fill:#98cff4"/><path d="M124.4,347.62h0L111.33,360.8,98.44,350.52a.48.48,0,0,1-.07-.67.47.47,0,0,1,.66-.07l12.23,9.74L123.71,347a.48.48,0,0,1,.69.66Z" transform="translate(-51.81 -51)" style="fill:#98cff4"/><path d="M130,356.9h0l-18.64,18.94-16-11.17a.49.49,0,0,1-.11-.67.47.47,0,0,1,.66-.11l15.32,10.71,18.07-18.37a.49.49,0,0,1,.68,0A.48.48,0,0,1,130,356.9Z" transform="translate(-51.81 -51)" style="fill:#98cff4"/><path d="M95.75,386s-14.6-7.31-14.39-13.77S73,365.39,71.07,361.5s0-9.19,6.85-5.4,7.48,3.53,11.67-.14,11.75,4.58,14.68,8.92,1.07-5.26,6.13-2.5,7.4,16.47,5.61,26.6-21,5.38-23.44,1.88S96.26,389.21,95.75,386Z" transform="translate(-51.81 -51)" style="fill:#98cff4"/><path d="M81.08,370.15a6.17,6.17,0,0,1,.28,2.08C81.15,378.69,95.75,386,95.75,386c.51,3.21-5.65,1.37-3.18,4.86S114.21,399.11,116,389c.09-.55.17-1.1.25-1.67A76.27,76.27,0,0,0,81.08,370.15Z" transform="translate(-51.81 -51)" style="fill:#82c4e8"/><path d="M115,392a.38.38,0,0,1-.17.33.36.36,0,0,1-.51-.11c-.12-.17-12.27-17.93-40.83-32.84a.37.37,0,1,1,.34-.66c28.74,15,41,32.91,41.1,33.09A.44.44,0,0,1,115,392Z" transform="translate(-51.81 -51)" style="fill:#acdaff"/><path d="M82,363.81l-6.32.65a.37.37,0,1,1-.08-.74l5.48-.56L80,358.88a.37.37,0,0,1,.72-.18Z" transform="translate(-51.81 -51)" style="fill:#acdaff"/><path d="M92.73,357.44v0l-.64,13L83,372.21a.37.37,0,1,1-.14-.73l8.52-1.59L92,357.44a.37.37,0,0,1,.74,0Z" transform="translate(-51.81 -51)" style="fill:#acdaff"/><path d="M102.86,364.7h0v14.5L90,380.6a.37.37,0,1,1-.08-.74l12.15-1.32V364.71a.37.37,0,0,1,.37-.37A.37.37,0,0,1,102.86,364.7Z" transform="translate(-51.81 -51)" style="fill:#acdaff"/><path d="M111.09,366.76h0l.07,20.78-15,2.59a.37.37,0,1,1-.13-.73l14.41-2.48-.08-20.15a.38.38,0,0,1,.38-.38A.37.37,0,0,1,111.09,366.76Z" transform="translate(-51.81 -51)" style="fill:#acdaff"/><path d="M128.59,383.94s19.25-8.1,19.52-16.37,11.26-8,14-12.82.82-11.73-8.28-7.46S144,351.16,139,346.13,123.59,351,119.5,356.28s-.93-6.81-7.62-3.71S101.06,373,102.49,386s26.31,8.63,29.75,4.38S127.66,388,128.59,383.94Z" transform="translate(-51.81 -51)" style="fill:#acdaff"/><path d="M148.64,365a7.53,7.53,0,0,0-.53,2.62c-.27,8.27-19.52,16.37-19.52,16.37-.93,4.05,7.1,2.22,3.65,6.47s-28.31,8.7-29.75-4.38c-.08-.7-.13-1.41-.18-2.14A97.44,97.44,0,0,1,148.64,365Z" transform="translate(-51.81 -51)" style="fill:#98cff4"/><path d="M103.51,390a.47.47,0,0,0,.18.43.48.48,0,0,0,.67-.09c.16-.22,17.16-21.86,54.85-38.47a.49.49,0,0,0,.25-.63.48.48,0,0,0-.63-.24c-37.93,16.71-55.06,38.54-55.23,38.76A.5.5,0,0,0,103.51,390Z" transform="translate(-51.81 -51)" style="fill:#d2edff"/><path d="M148,356.78l8,1.37a.48.48,0,0,0,.16-.94L149.24,356l1.72-5.37a.48.48,0,1,0-.91-.29Z" transform="translate(-51.81 -51)" style="fill:#d2edff"/><path d="M134.84,347.75v.05l-.28,16.69L146,367.42a.48.48,0,0,0,.24-.93l-10.74-2.74.27-15.94a.47.47,0,0,0-.47-.48A.48.48,0,0,0,134.84,347.75Z" transform="translate(-51.81 -51)" style="fill:#d2edff"/><path d="M121.3,356.16v0l-1.21,18.5,16.23,2.85a.48.48,0,0,0,.17-.94l-15.4-2.7,1.16-17.65a.46.46,0,0,0-.44-.5A.48.48,0,0,0,121.3,356.16Z" transform="translate(-51.81 -51)" style="fill:#d2edff"/><path d="M110.63,358.1v0l-1.84,26.51,18.95,4.56a.47.47,0,0,0,.58-.35.48.48,0,0,0-.35-.57l-18.17-4.38,1.78-25.71a.46.46,0,0,0-.44-.5A.48.48,0,0,0,110.63,358.1Z" transform="translate(-51.81 -51)" style="fill:#d2edff"/><path d="M184.71,359.31s5.56-16.47.55-21.21,1.21-11.44-.26-15.82-6.87-7-9.22,1.06-3,8.27-8.93,8.64-5.46,12.27-4.41,17.74-4.76-3.17-6.52,2.71,6.75,18,15.7,24.31,19.89-11.65,19.14-16.14S186.72,362.12,184.71,359.31Z" transform="translate(-51.81 -51)" style="fill:#82c4e8"/><path d="M183.92,336.33a6.32,6.32,0,0,0,1.34,1.77c5,4.74-.55,21.21-.55,21.21,2,2.81,5.3-3.2,6,1.29s-10.19,22.46-19.14,16.14c-.48-.34-1-.7-1.43-1.07A81,81,0,0,1,183.92,336.33Z" transform="translate(-51.81 -51)" style="fill:#6cb7d8"/><path d="M174.66,378.3a.42.42,0,0,0,.37.13.4.4,0,0,0,.32-.47c0-.22-4.17-22.76,6.25-55.43a.39.39,0,1,0-.75-.24c-10.49,32.88-6.32,55.6-6.28,55.82A.38.38,0,0,0,174.66,378.3Z" transform="translate(-51.81 -51)" style="fill:#98cff4"/><path d="M178.47,332.22l5.28-4.25a.41.41,0,0,0,.06-.56.42.42,0,0,0-.56-.06L178.69,331l-2.41-4a.39.39,0,0,0-.54-.14.41.41,0,0,0-.14.55Z" transform="translate(-51.81 -51)" style="fill:#98cff4"/><path d="M165.58,335.45l0,0,10.26,9.38,8.15-5.54a.4.4,0,0,0,.1-.55.39.39,0,0,0-.55-.1l-7.63,5.18-9.8-9a.4.4,0,0,0-.56,0A.41.41,0,0,0,165.58,335.45Z" transform="translate(-51.81 -51)" style="fill:#98cff4"/><path d="M163.36,348.53h0l10.87,11L185,351a.4.4,0,1,0-.49-.62l-10.18,8.11L163.94,348a.4.4,0,0,0-.58.54Z" transform="translate(-51.81 -51)" style="fill:#98cff4"/><path d="M158.69,356.26h0L174.22,372l13.3-9.31a.4.4,0,0,0-.45-.65L174.31,371l-15.05-15.29a.4.4,0,0,0-.57.55Z" transform="translate(-51.81 -51)" style="fill:#98cff4"/><path d="M162.26,382.28S147.65,375,147.87,368.5s-8.38-6.83-10.29-10.72,0-9.2,6.85-5.4,7.48,3.52,11.67-.14,11.75,4.58,14.67,8.92,1.08-5.26,6.14-2.5,7.4,16.47,5.6,26.6-21,5.38-23.43,1.88S162.77,385.49,162.26,382.28Z" transform="translate(-51.81 -51)" style="fill:#98cff4"/><path d="M147.59,366.43a6.14,6.14,0,0,1,.28,2.07c-.22,6.47,14.39,13.78,14.39,13.78.51,3.21-5.65,1.37-3.18,4.86s21.64,8.24,23.43-1.88c.1-.55.18-1.1.26-1.67A76.17,76.17,0,0,0,147.59,366.43Z" transform="translate(-51.81 -51)" style="fill:#82c4e8"/><path d="M181.52,388.31a.42.42,0,0,1-.17.33.37.37,0,0,1-.51-.11c-.12-.17-12.27-17.94-40.83-32.84a.37.37,0,1,1,.34-.66c28.74,15,41,32.91,41.1,33.09A.44.44,0,0,1,181.52,388.31Z" transform="translate(-51.81 -51)" style="fill:#acdaff"/><path d="M148.5,360.09l-6.32.65a.37.37,0,0,1-.41-.33.38.38,0,0,1,.33-.41l5.48-.56-1.06-4.28a.37.37,0,1,1,.72-.18Z" transform="translate(-51.81 -51)" style="fill:#acdaff"/><path d="M159.24,353.72v0l-.64,13.05-9.09,1.69a.38.38,0,0,1-.44-.3.37.37,0,0,1,.3-.43l8.52-1.59.61-12.45a.37.37,0,0,1,.39-.36A.38.38,0,0,1,159.24,353.72Z" transform="translate(-51.81 -51)" style="fill:#acdaff"/><path d="M169.37,361h0v14.5l-12.82,1.39a.38.38,0,0,1-.41-.33.37.37,0,0,1,.33-.41l12.15-1.32V361a.37.37,0,0,1,.37-.37A.37.37,0,0,1,169.37,361Z" transform="translate(-51.81 -51)" style="fill:#acdaff"/><path d="M177.6,363h0l.07,20.78-15,2.59a.36.36,0,0,1-.43-.3.37.37,0,0,1,.3-.43l14.41-2.48-.08-20.15a.38.38,0,0,1,.37-.38A.38.38,0,0,1,177.6,363Z" transform="translate(-51.81 -51)" style="fill:#acdaff"/><path d="M142.23,386.41s-13.26-1.73-14.84-6.79-8.32-3-10.84-5.53-2.49-7.1,3.84-6,6.74.71,9-3.25,10.33.38,13.76,2.95-.59-4.36,4.07-3.58,10.15,10.74,11.49,19.06-14.78,9.8-17.63,7.76S143.49,388.75,142.23,386.41Z" transform="translate(-51.81 -51)" style="fill:#82c4e8"/><path d="M126.62,378.09a5,5,0,0,1,.77,1.53c1.58,5.06,14.84,6.79,14.84,6.79,1.26,2.34-4,2.57-1.16,4.61s19,.56,17.63-7.76c-.08-.45-.16-.9-.26-1.35A62.35,62.35,0,0,0,126.62,378.09Z" transform="translate(-51.81 -51)" style="fill:#6cb7d8"/><path d="M158.75,385.89a.35.35,0,0,1,0,.3.32.32,0,0,1-.43.06c-.14-.11-14.32-10.58-40.41-14.43a.3.3,0,0,1-.26-.34.31.31,0,0,1,.35-.26c26.26,3.87,40.54,14.44,40.69,14.54A.41.41,0,0,1,158.75,385.89Z" transform="translate(-51.81 -51)" style="fill:#98cff4"/><path d="M125.62,372.94l-4.72,2.21a.3.3,0,0,1-.4-.15.31.31,0,0,1,.14-.41l4.09-1.91-2-3a.29.29,0,0,1,.09-.42.31.31,0,0,1,.42.09Z" transform="translate(-51.81 -51)" style="fill:#98cff4"/><path d="M132.21,365.13v0l3,10.26-6.58,3.76a.3.3,0,0,1-.3-.53l6.16-3.52-2.87-9.79a.3.3,0,0,1,.2-.38A.3.3,0,0,1,132.21,365.13Z" transform="translate(-51.81 -51)" style="fill:#98cff4"/><path d="M142,368h0l3.89,11.21-9.54,4.52a.29.29,0,0,1-.4-.14.3.3,0,0,1,.14-.41l9.05-4.28-3.72-10.7a.3.3,0,0,1,.19-.39A.3.3,0,0,1,142,368Z" transform="translate(-51.81 -51)" style="fill:#98cff4"/><path d="M148.92,367.4h0l5.65,16-10.93,6.05a.3.3,0,0,1-.41-.12.31.31,0,0,1,.12-.42l10.47-5.79-5.47-15.57a.3.3,0,0,1,.18-.39A.32.32,0,0,1,148.92,367.4Z" transform="translate(-51.81 -51)" style="fill:#98cff4"/><path d="M195.09,383.94s19.26-8.1,19.53-16.37,11.26-8,14-12.82.81-11.73-8.28-7.46-9.84,3.87-14.88-1.16S190.1,351,186,356.28s-.93-6.81-7.62-3.71S167.57,373,169,386s26.3,8.63,29.75,4.38S194.17,388,195.09,383.94Z" transform="translate(-51.81 -51)" style="fill:#acdaff"/><path d="M215.15,365a7.53,7.53,0,0,0-.53,2.62c-.27,8.27-19.53,16.37-19.53,16.37-.92,4.05,7.1,2.22,3.66,6.47S170.44,399.11,169,386c-.08-.7-.13-1.41-.18-2.14A97.44,97.44,0,0,1,215.15,365Z" transform="translate(-51.81 -51)" style="fill:#98cff4"/><path d="M170,390a.47.47,0,0,0,.18.43.48.48,0,0,0,.67-.09c.16-.22,17.16-21.86,54.85-38.47a.49.49,0,0,0,.25-.63.48.48,0,0,0-.63-.24c-37.93,16.71-55.06,38.54-55.23,38.76A.5.5,0,0,0,170,390Z" transform="translate(-51.81 -51)" style="fill:#d2edff"/><path d="M214.51,356.78l8,1.37a.48.48,0,0,0,.16-.94L215.75,356l1.72-5.37a.48.48,0,0,0-.91-.29Z" transform="translate(-51.81 -51)" style="fill:#d2edff"/><path d="M201.35,347.75v.05l-.28,16.69,11.46,2.93a.48.48,0,0,0,.24-.93L202,363.75l.27-15.94a.48.48,0,0,0-1-.06Z" transform="translate(-51.81 -51)" style="fill:#d2edff"/><path d="M187.81,356.16v0l-1.21,18.5,16.23,2.85a.48.48,0,0,0,.17-.94l-15.4-2.7,1.16-17.65a.46.46,0,0,0-.44-.5A.48.48,0,0,0,187.81,356.16Z" transform="translate(-51.81 -51)" style="fill:#d2edff"/><path d="M177.14,358.1v0l-1.84,26.51,18.95,4.56a.47.47,0,0,0,.58-.35.48.48,0,0,0-.35-.57l-18.17-4.38,1.78-25.71a.46.46,0,0,0-.44-.5A.48.48,0,0,0,177.14,358.1Z" transform="translate(-51.81 -51)" style="fill:#d2edff"/><polygon points="172.62 363.86 29.22 363.86 25.62 331.11 176.22 331.11 172.62 363.86" style="fill:#f90"/><polygon points="173.66 354.34 28.17 354.34 28.44 356.82 173.39 356.82 173.66 354.34" style="fill:#ffbc00"/><polygon points="174.63 345.56 27.21 345.56 27.73 350.36 174.1 350.36 174.63 345.56" style="fill:#ffbc00"/><rect x="23.37" y="328.85" width="154.83" height="7.71" style="fill:#ffbc00"/><path d="M357.54,422.29H235.75c-8.62,0-22-6.48-21-15.1l37.2-258.91a18,18,0,0,1,17.41-15.61l114.33-4.45c13.91,0,22.25,11.44,21.25,20.06l-30,258.4A18,18,0,0,1,357.54,422.29Z" transform="translate(-51.81 -51)" style="fill:#144182"/><path d="M348.56,417.76H226.78A13.62,13.62,0,0,1,213,402.15l30-258.4a18,18,0,0,1,17.42-15.61H382.16A13.62,13.62,0,0,1,396,143.75l-30,258.4A18,18,0,0,1,348.56,417.76Z" transform="translate(-51.81 -51)" style="fill:#2099ff"/><path d="M348.53,412.34H228.07a10.37,10.37,0,0,1-10.5-11.88l29.69-255.91a13.7,13.7,0,0,1,13.25-11.88H381a10.37,10.37,0,0,1,10.5,11.88L361.79,400.46A13.71,13.71,0,0,1,348.53,412.34Z" transform="translate(-51.81 -51)" style="fill:#acdaff"/><path d="M299.24,405.9H274.13a4.62,4.62,0,0,1-4.67-5.28h0a6.12,6.12,0,0,1,5.9-5.29h25.11a4.62,4.62,0,0,1,4.67,5.29h0A6.12,6.12,0,0,1,299.24,405.9Z" transform="translate(-51.81 -51)" style="fill:#2099ff"/><ellipse cx="263.38" cy="142.16" rx="4.21" ry="3.75" transform="translate(-77.55 168.53) rotate(-43.34)" style="fill:#2099ff"/><ellipse cx="274.02" cy="142.16" rx="2.53" ry="2.26" transform="translate(-74.65 175.83) rotate(-43.34)" style="fill:#2099ff"/><polygon points="304.86 338.29 172.46 338.29 199.9 101.73 332.31 101.73 304.86 338.29" style="fill:#fff"/><path d="M365.79,189.23H261.69a5.05,5.05,0,0,1-5.12-5.79l2.11-18.12a6.67,6.67,0,0,1,6.46-5.79H369.23a5.05,5.05,0,0,1,5.12,5.79l-2.1,18.12A6.67,6.67,0,0,1,365.79,189.23Z" transform="translate(-51.81 -51)" style="fill:#0069aa"/><text transform="matrix(0.99, 0, -0.12, 0.99, 229.2, 126.07)" style="font-size:12px;fill:#acdaff;font-family:OpenSans-Regular, Open Sans">Записаться</text><polygon points="224.01 170.79 200.31 170.79 203.06 147.09 226.75 147.09 224.01 170.79" style="fill:#e6f2ff"/><polygon points="254.67 170.79 230.97 170.79 233.72 147.09 257.42 147.09 254.67 170.79" style="fill:#acdaff"/><polygon points="285.33 170.79 261.63 170.79 264.38 147.09 288.08 147.09 285.33 170.79" style="fill:#e6f2ff"/><polygon points="315.99 170.79 292.3 170.79 295.04 147.09 318.74 147.09 315.99 170.79" style="fill:#e6f2ff"/><polygon points="220.49 201.09 196.8 201.09 199.55 177.4 223.24 177.4 220.49 201.09" style="fill:#e6f2ff"/><polygon points="251.15 201.09 227.46 201.09 230.21 177.4 253.9 177.4 251.15 201.09" style="fill:#e6f2ff"/><polygon points="281.81 201.09 258.12 201.09 260.87 177.4 284.56 177.4 281.81 201.09" style="fill:#e6f2ff"/><polygon points="312.47 201.09 288.78 201.09 291.53 177.4 315.22 177.4 312.47 201.09" style="fill:#e6f2ff"/><polygon points="216.98 231.39 193.28 231.39 196.03 207.69 219.72 207.69 216.98 231.39" style="fill:#e6f2ff"/><polygon points="247.64 231.39 223.94 231.39 226.69 207.69 250.39 207.69 247.64 231.39" style="fill:#e6f2ff"/><polygon points="278.3 231.39 254.6 231.39 257.35 207.69 281.05 207.69 278.3 231.39" style="fill:#e6f2ff"/><polygon points="308.96 231.39 285.26 231.39 288.01 207.69 311.71 207.69 308.96 231.39" style="fill:#e6f2ff"/><polygon points="213.46 261.69 189.77 261.69 192.51 238 216.21 238 213.46 261.69" style="fill:#e6f2ff"/><polygon points="244.12 261.69 220.43 261.69 223.18 238 246.87 238 244.12 261.69" style="fill:#e6f2ff"/><polygon points="274.78 261.69 251.09 261.69 253.84 238 277.53 238 274.78 261.69" style="fill:#e6f2ff"/><polygon points="305.44 261.69 281.75 261.69 284.5 238 308.19 238 305.44 261.69" style="fill:#e6f2ff"/><path d="M259.44,361.69a3.88,3.88,0,0,1,3.76-3.36h21.41a5.55,5.55,0,0,0,4.86-3A4.63,4.63,0,0,0,289,350l-8.32-9.4a4.3,4.3,0,0,0-3.28-1.43h-26a2.91,2.91,0,0,1-2.92-2.26l-1.1-4.73a3.52,3.52,0,0,1,.79-3.07,3.77,3.77,0,0,1,2.91-1.41H287a3,3,0,0,1,2.25,1l13.45,15c.12-.66.25-1.32.39-2l-12.65-14.1a4.32,4.32,0,0,0-3.27-1.4H251.24a5.45,5.45,0,0,0-4.21,2.05,5.13,5.13,0,0,0-1.15,4.43L247,337.4a4.21,4.21,0,0,0,4.22,3.27h26a3,3,0,0,1,2.27,1l8.31,9.4a3.2,3.2,0,0,1,.31,3.67,3.84,3.84,0,0,1-3.36,2.09H263.37a5.62,5.62,0,0,0-5.44,4.87l-.58,5a4.26,4.26,0,0,0,4.32,4.88h23.65a3,3,0,0,1,3,3.43,3.88,3.88,0,0,1-3.76,3.37H237.21l-.17,1.51h47.32a5.65,5.65,0,0,0,5.45-4.94A4.26,4.26,0,0,0,285.5,370H261.84a3,3,0,0,1-3-3.37Z" transform="translate(-51.81 -51)" style="fill:#e6f2ff"/><path d="M311.49,331.5c-.45,3.85-8.61,14.08-8.61,14.08s-5.79-10.23-5.34-14.08a8.05,8.05,0,0,1,7.78-7A6.1,6.1,0,0,1,311.49,331.5Z" transform="translate(-51.81 -51)" style="fill:#acdaff"/><ellipse cx="304.55" cy="331.18" rx="3.97" ry="3.53" transform="matrix(0.73, -0.69, 0.69, 0.73, -196.05, 248.33)" style="fill:#fff"/><ellipse cx="240.18" cy="379.09" rx="6.2" ry="5.52" transform="translate(-246.5 217.22) rotate(-43.34)" style="fill:#acdaff"/><ellipse cx="240.18" cy="379.09" rx="3.2" ry="2.85" transform="translate(-246.5 217.22) rotate(-43.34)" style="fill:#fff"/><path d="M185.17,270.66s12.45-18.12,14.42-22.43,2.19-8-.9-10.22-8.8-4-13.84,3.1S170.5,270,170.12,276.85s30.47,27.48,33.22,28.81c3-.79,4.3-5.3,4.3-5.3S187.72,275.07,185.17,270.66Z" transform="translate(-51.81 -51)" style="fill:#f90"/><path d="M195.39,420.57s.62,3.58-1.43,9-2.15,7.1,0,8.29,3.7,1.54,9.72,0A75.66,75.66,0,0,0,216.41,433s-6.53-4.15-8.13-5.91-4.94-8.07-4.88-9S195.39,420.57,195.39,420.57Z" transform="translate(-51.81 -51)" style="fill:#f79e77"/><path d="M211.77,429.84c-2.43,1.62-4.74,3.38-7.85,2.94-2.49-.62-3.42-3.12-5-5a4.77,4.77,0,0,0-4.18-.69c-.21.76-.47,1.58-.8,2.45-2,5.39-2.15,7.1,0,8.29s3.7,1.54,9.72,0A75.66,75.66,0,0,0,216.41,433S214,431.43,211.77,429.84Z" transform="translate(-51.81 -51)" style="fill:#0c2c51"/><path d="M268.45,234.12l7.54,3.24c2.5-3.09,4.38-5.43,5.61-5.68,3.19.42,4.56-.93,5.42-2s-.22-1.71-.08-2.13c.88-1.3-.61-1.81-.37-2.12.92-1.08.75-1.66.19-2s-1.5-.57-1.33-1.12,2.47-2,4.47-2.93,4.19-2.47,3-3.26-12.55,4.65-14.67,7-1.57,4.79-4.23,7.35A32.63,32.63,0,0,1,268.45,234.12Z" transform="translate(-51.81 -51)" style="fill:#ffb797"/><path d="M203.26,419.47s.54,7.35-1.81,13.33-1.67,8.64,2.57,9.85,6.59-1.66,12.13-1.51,12.88-.46,14.77-5.53-6.95-2.81-12.3-4.4-3-11-3-11Z" transform="translate(-51.81 -51)" style="fill:#ffae83"/><path d="M218.77,431.1c-.48,1.61,3.88,3.31,2.59,4.17-4.67,3.43-10.27-2.49-15.57-4.36a5.57,5.57,0,0,0-3.62-.3,20.77,20.77,0,0,1-.72,2.19c-2.35,6-1.67,8.64,2.57,9.85s6.59-1.66,12.13-1.51,16-.9,17.88-6S224.14,432.6,218.77,431.1Z" transform="translate(-51.81 -51)" style="fill:#0f3163"/><path d="M233.38,432.74a3,3,0,0,1-.11.37c-1.89,5.08-12.36,6.12-17.89,6s-7.88,2.73-12.12,1.52a5.81,5.81,0,0,1-3.12-1.84c.18,2,1.44,3.2,3.88,3.89,4.25,1.22,6.59-1.66,12.12-1.51s16-.9,17.89-6A1.8,1.8,0,0,0,233.38,432.74Z" transform="translate(-51.81 -51)" style="fill:#0c2c51"/><path d="M212.21,325.22a13.45,13.45,0,0,1-6.11-5.67A17,17,0,0,1,204.7,307c1.37-4.09,6.82-14.39,6.82-14.39l-13.41-2.48A153.61,153.61,0,0,0,189,308.74c-3.07,8.18-.57,16.82.91,23.3s5.23,25,3.64,31.93-4.55,17.5-3.75,25.57,4.77,27.28,4.66,31.6a8.82,8.82,0,0,0,3.87.77,11.81,11.81,0,0,0,6.35-2.25s.91-33.07,4.32-47.62S215.84,330.44,212.21,325.22Z" transform="translate(-51.81 -51)" style="fill:#144182"/><path d="M212.21,325.22a13.45,13.45,0,0,1-6.11-5.67c-5.68-2.68-1.72-13.09-2.18-19.52-2.25,6.2-10.84,17.39.91,31.33,4.18,3.88.1,34.34-3.49,48.08-3.21,11.65-1.81,30.36-1.24,42.26a12,12,0,0,0,4.6-2s.91-33.07,4.32-47.62S215.84,330.44,212.21,325.22Z" transform="translate(-51.81 -51)" style="fill:#0f3163"/><path d="M233.65,292.49a106.41,106.41,0,0,1,2.72,31.06c-1.21,16.06-12,43-13.18,48.94S220.31,395.4,218.8,403s-2.28,14.76-1.44,16.73c-3.56,3.79-13,3.34-15.16,0,.76-15.61.38-29,3.34-39.55s1.13-13.26,2.35-19.85,2.42-27,3-29.39-5.46-3.64-7.66-7.58-6.74-13.41,5.84-32.73A116.67,116.67,0,0,1,233.65,292.49Z" transform="translate(-51.81 -51)" style="fill:#144182"/><path d="M233.65,292.49a116.67,116.67,0,0,0-24.55-1.82c-.25.38-.49.76-.73,1.14a115.64,115.64,0,0,1,19.54,1.87,106.41,106.41,0,0,1,2.72,31.06c-1.21,16.07-9.8,42.59-11,48.5s-1.69,22.13-3.21,29.77c-1.31,6.59-1.55,14.79-1,18.19a6.85,6.85,0,0,0,2-1.43c-.84-2-.08-9.09,1.44-16.73s3.18-24.64,4.39-30.55,12-32.88,13.18-48.94A106.41,106.41,0,0,0,233.65,292.49Z" transform="translate(-51.81 -51)" style="fill:#164e91"/><path d="M226.75,201.87s1.14,13.49-.38,17.65-3,7.2-3.86,8-4.85-.68-5.64,0-.72,8.49-.72,8.49L205,235.59s1.29-14.1,2.27-18S225.62,201.57,226.75,201.87Z" transform="translate(-51.81 -51)" style="fill:#ffae83"/><path d="M200.39,235.32s8.63-4.32,15.68-.91,18.07,17.73,19.77,20.46,2.85,8.86,0,14.43-1.81,21.94-.34,24.78c-11.93,3.52-30.45,1.25-39-2.5,4.77-6.94,7.28-9.55,3.87-17.16S192.88,245.21,200.39,235.32Z" transform="translate(-51.81 -51)" style="fill:#fa0"/><path d="M230.48,270.35c2.84-5.57,1.7-11.7,0-14.43s-12.73-17-19.78-20.46a14.56,14.56,0,0,0-7.44-1.25,21.4,21.4,0,0,0-2.87,1.11c-7.51,9.89-3.41,31.48,0,39.1s.9,10.22-3.87,17.16c7.17,3.15,21.43,5.26,32.88,3.75l.74-.2C228.66,292.29,227.64,275.92,230.48,270.35Z" transform="translate(-51.81 -51)" style="fill:#f90"/><path d="M243.91,251.8s-18-12.64-22.27-14.66-8-2.27-10.23.79-4.09,8.76,3,13.87,28.76,14.66,35.58,15.12,27.8-30.18,29.17-32.91c-.76-3-5.26-4.36-5.26-4.36S248.35,249.3,243.91,251.8Z" transform="translate(-51.81 -51)" style="fill:#ffbc00"/><path d="M214.36,251.8l-.66-.51Z" transform="translate(-51.81 -51)" style="fill:#ff69a6"/><path d="M211,240.9c2.27-3.07,5.94-2.81,10.23-.79s21.59,13.32,21.59,13.32c4.43-2.5,31.06-23.78,31.06-23.78s-25.5,19.65-29.94,22.15c0,0-18-12.64-22.27-14.66s-8-2.27-10.23.79a9.82,9.82,0,0,0-2,5.7A10.73,10.73,0,0,1,211,240.9Z" transform="translate(-51.81 -51)" style="fill:#ffd815"/><path d="M225.92,195.51c-5.15-5.16-14.7-7.13-14.7-7.13-8.1-2.75-14.4,4.85-16.21,11.67s-.93,14.76-3.72,23.72c-1.41,4.36-21.58,35.61,4.87,58.25,6.72,3.32,11.87,4.78,19.14-.82-7.66-18.21-5.24-35.68-3.7-40.92,1.5-5.07,4.57-5.25,7.38-4.21l.39.15c-.26-.51-.6-1.1-1-1.75-1.41-4.22-.08-13,2.82-16.08,3.41-3.64,5-9.55,5.57-13.87a13.19,13.19,0,0,1-2.27,10.12C229.37,210.89,231.07,200.66,225.92,195.51Z" transform="translate(-51.81 -51)" style="fill:#144182"/><path d="M193.48,263.26c-3-20.91,5.37-42.41,13.14-62.12,2.32-6,9-8.83,15.77-8.37a39.64,39.64,0,0,0-11.17-4.39c-8.1-2.75-14.4,4.85-16.21,11.67s-.93,14.76-3.72,23.72c-1.41,4.36-21.58,35.61,4.87,58.25,5.43,2.68,9.84,4.15,15.17,1.66a16.22,16.22,0,0,1-5.5-2.35C199.86,277.15,194.67,270.43,193.48,263.26Z" transform="translate(-51.81 -51)" style="fill:#0f3163"/><path d="M353.76,282.22s-11.46-33.92-1.14-43.66-2.49-23.56.54-32.57,14.14-14.35,19,2.17,6.21,17,18.38,17.79,11.24,25.26,9.08,36.53,9.8-6.53,13.42,5.57-13.9,37.05-32.32,50.05-40.94-24-39.39-33.23S349.61,288,353.76,282.22Z" transform="translate(-51.81 -51)" style="fill:#82c4e8"/><path d="M355.38,234.91a13.22,13.22,0,0,1-2.76,3.65c-10.32,9.74,1.14,43.66,1.14,43.66-4.15,5.79-10.91-6.6-12.45,2.65s21,46.24,39.39,33.23c1-.69,2-1.43,3-2.2A166.87,166.87,0,0,0,355.38,234.91Z" transform="translate(-51.81 -51)" style="fill:#6cb7d8"/><path d="M374.44,321.32a.82.82,0,0,1-1.41-.7c.09-.46,8.58-46.86-12.88-114.13a.82.82,0,0,1,1.56-.49c21.59,67.69,13,114.46,12.92,114.93A.72.72,0,0,1,374.44,321.32Z" transform="translate(-51.81 -51)" style="fill:#98cff4"/><path d="M366.59,226.44l-10.85-8.74a.81.81,0,0,1-.12-1.15.83.83,0,0,1,1.15-.12l9.39,7.56,4.94-8.29a.82.82,0,0,1,1.41.84Z" transform="translate(-51.81 -51)" style="fill:#98cff4"/><path d="M393.13,233.09l-.05.06L372,252.47l-16.77-11.4a.82.82,0,1,1,.92-1.35l15.7,10.67L392,231.94a.81.81,0,0,1,1.15.06A.8.8,0,0,1,393.13,233.09Z" transform="translate(-51.81 -51)" style="fill:#98cff4"/><path d="M397.71,260l0,0-22.37,22.57L353.21,265a.81.81,0,1,1,1-1.27l20.95,16.7,21.34-21.53a.82.82,0,0,1,1.19,1.13Z" transform="translate(-51.81 -51)" style="fill:#98cff4"/><path d="M407.33,275.93l0,0-31.95,32.46L348,289.26a.8.8,0,0,1-.2-1.13.82.82,0,0,1,1.14-.2l26.26,18.36,31-31.48a.81.81,0,0,1,1.18,1.12Z" transform="translate(-51.81 -51)" style="fill:#98cff4"/><path d="M349.05,357.54S324,345,324.38,333.93,310,322.21,306.75,315.54s-.05-15.76,11.73-9.25,12.83,6,20-.24,20.15,7.85,25.16,15.3,1.85-9,10.51-4.3,12.68,28.23,9.61,45.59-35.94,9.22-40.17,3.23S349.93,363,349.05,357.54Z" transform="translate(-51.81 -51)" style="fill:#98cff4"/><path d="M323.9,330.38a10.38,10.38,0,0,1,.48,3.55c-.37,11.09,24.67,23.61,24.67,23.61.88,5.5-9.7,2.35-5.46,8.33s37.1,14.13,40.17-3.23c.17-.93.31-1.88.43-2.85A130.38,130.38,0,0,0,323.9,330.38Z" transform="translate(-51.81 -51)" style="fill:#82c4e8"/><path d="M382.05,367.88a.62.62,0,0,1-.28.55.63.63,0,0,1-.88-.17c-.21-.3-21-30.75-70-56.29a.64.64,0,0,1,.59-1.13c49.25,25.7,70.24,56.4,70.45,56.71A.64.64,0,0,1,382.05,367.88Z" transform="translate(-51.81 -51)" style="fill:#acdaff"/><path d="M325.47,319.5l-10.85,1.12a.64.64,0,0,1-.7-.57.65.65,0,0,1,.57-.7l9.38-1-1.81-7.33a.63.63,0,0,1,.46-.77.64.64,0,0,1,.78.47Z" transform="translate(-51.81 -51)" style="fill:#acdaff"/><path d="M343.87,308.58v.06L342.77,331l-15.59,2.9a.64.64,0,0,1-.23-1.25l14.6-2.72,1-21.35a.64.64,0,0,1,1.28,0Z" transform="translate(-51.81 -51)" style="fill:#acdaff"/><path d="M361.23,321a0,0,0,0,1,0,0V345.9l-22,2.38a.63.63,0,1,1-.13-1.26L360,344.76V321.05a.64.64,0,0,1,1.27,0Z" transform="translate(-51.81 -51)" style="fill:#acdaff"/><path d="M375.34,324.56v0l.12,35.62-25.75,4.44a.64.64,0,0,1-.74-.52.65.65,0,0,1,.52-.74l24.69-4.25-.12-34.54a.64.64,0,0,1,.64-.64A.65.65,0,0,1,375.34,324.56Z" transform="translate(-51.81 -51)" style="fill:#acdaff"/><path d="M414.37,341.36S435.8,312.68,429,300.22s9.68-21.63,9.59-31.13-9-18-18.71-3.84-11.19,14.26-23,11.21-18.52,20.52-20,31.91-7.29-9.25-14.48,1.12,1.7,39.54,15.17,57.62S424,357,425.39,347.75,416.52,348.15,414.37,341.36Z" transform="translate(-51.81 -51)" style="fill:#acdaff"/><path d="M427.52,295.89a13.33,13.33,0,0,0,1.5,4.33c6.78,12.46-14.65,41.14-14.65,41.14,2.15,6.79,12.42-2.88,11,6.39s-34.3,37.44-47.77,19.36c-.72-1-1.43-2-2.12-3A166.79,166.79,0,0,1,427.52,295.89Z" transform="translate(-51.81 -51)" style="fill:#98cff4"/><path d="M382.58,372.11a.82.82,0,0,0,1.56-.23c.05-.46,6.39-47.21,47.67-104.48a.82.82,0,1,0-1.32-1c-41.55,57.64-47.91,104.77-48,105.24A.78.78,0,0,0,382.58,372.11Z" transform="translate(-51.81 -51)" style="fill:#d2edff"/><path d="M419.49,284.36l13-4.94a.82.82,0,0,0-.58-1.53l-11.28,4.28-2.13-9.42a.8.8,0,0,0-1-.62.82.82,0,0,0-.62,1Z" transform="translate(-51.81 -51)" style="fill:#d2edff"/><path d="M392.2,282.44a.25.25,0,0,0,0,.07l14.07,24.92,19.49-5.63a.8.8,0,0,0,.55-1,.82.82,0,0,0-1-.56L407.1,305.5l-13.44-23.79a.82.82,0,0,0-1.12-.31A.81.81,0,0,0,392.2,282.44Z" transform="translate(-51.81 -51)" style="fill:#d2edff"/><path d="M379.49,306.62l0,0,14.26,28.39,26.47-9.88a.82.82,0,0,0-.57-1.53L394.57,333,381,305.92a.83.83,0,0,0-1.1-.36A.82.82,0,0,0,379.49,306.62Z" transform="translate(-51.81 -51)" style="fill:#d2edff"/><path d="M365.4,318.75l0,0,20.29,40.78,32-9.7a.82.82,0,0,0-.47-1.57l-30.66,9.31-19.68-39.55a.82.82,0,0,0-1.1-.36A.81.81,0,0,0,365.4,318.75Z" transform="translate(-51.81 -51)" style="fill:#d2edff"/><polygon points="291.75 318.58 354.82 318.58 341.7 381.02 301.04 381.02 291.75 318.58" style="fill:#f90"/><polygon points="349.4 344.38 295.59 344.38 296.56 350.91 348.03 350.91 349.4 344.38" style="fill:#ffbc00"/><polygon points="347.44 353.73 296.98 353.73 297.47 357 346.75 357 347.44 353.73" style="fill:#ffbc00"/><rect x="289.86" y="317.55" width="66.74" height="8.87" style="fill:#ffbc00"/></svg>