<?xml version="1.0" encoding="iso-8859-1"?>
<!-- Generator: Adobe Illustrator 19.0.0, SVG Export Plug-In . SVG Version: 6.00 Build 0)  -->
<svg version="1.1" id="Capa_1" xmlns="http://www.w3.org/2000/svg" xmlns:xlink="http://www.w3.org/1999/xlink" x="0px" y="0px"
	 viewBox="0 0 426.318 426.318" style="enable-background:new 0 0 426.318 426.318;" xml:space="preserve">
<path style="fill:#1185E0;" d="M410.645,1.567H87.771c-8.359,0-15.673,6.792-15.673,15.673l-2.612,278.988H15.673
	C6.792,296.229,0,303.02,0,311.902v38.139c0,40.229,31.869,73.143,72.098,74.71l0,0h275.853l0,0c1.045,0,2.612,0,3.657,0
	c41.273,0,74.71-33.437,74.71-74.71v-332.8C426.318,8.359,419.527,1.567,410.645,1.567z M31.347,350.041v-22.465h245.551v22.465
	c0,16.196,5.224,31.347,14.106,43.363H74.71C50.678,393.404,31.347,374.073,31.347,350.041z M394.971,350.041
	c0,24.033-19.331,43.363-43.363,43.363s-43.363-19.331-43.363-43.363v-38.139c0-8.882-6.792-15.673-15.673-15.673H100.833
	l2.612-263.314h291.527V350.041z"/>
<g>
	<path style="fill:#4DCFE0;" d="M243.984,109.714h-80.98c-8.882,0-15.673-6.792-15.673-15.673s6.792-15.673,15.673-15.673h80.98
		c8.882,0,15.673,6.792,15.673,15.673S252.865,109.714,243.984,109.714z"/>
	<path style="fill:#4DCFE0;" d="M327.576,177.633H163.004c-8.882,0-15.673-6.792-15.673-15.673s6.792-15.673,15.673-15.673h164.571
		c8.882,0,15.673,6.792,15.673,15.673S336.457,177.633,327.576,177.633z"/>
	<path style="fill:#4DCFE0;" d="M327.576,245.551H163.004c-8.882,0-15.673-6.792-15.673-15.673s6.792-15.673,15.673-15.673h164.571
		c8.882,0,15.673,6.792,15.673,15.673S336.457,245.551,327.576,245.551z"/>
</g>
<g>
</g>
<g>
</g>
<g>
</g>
<g>
</g>
<g>
</g>
<g>
</g>
<g>
</g>
<g>
</g>
<g>
</g>
<g>
</g>
<g>
</g>
<g>
</g>
<g>
</g>
<g>
</g>
<g>
</g>
</svg>
