<svg xmlns="http://www.w3.org/2000/svg" viewBox="0 0 552.9 499.08"><defs><style>.cls-1,.cls-3,.cls-4,.cls-6{fill:#462b17;}.cls-2{fill:#fff;stroke:#462b17;}.cls-2,.cls-9{stroke-miterlimit:10;}.cls-3{opacity:0.38;}.cls-4{opacity:0.4;}.cls-5{fill:#32a5a5;}.cls-6{font-size:48px;font-family:CourierNewPS-BoldMT, Courier New;font-weight:700;}.cls-7{fill:#fdfaf3;}.cls-8{fill:#0069aa;}.cls-9{fill:none;stroke:#0069aa;}</style></defs><g id="Слой_2" data-name="Слой 2"><g id="Слой_1-2" data-name="Слой 1"><path class="cls-1" d="M552.9,5.77H265.26C191.48,10.68,191.81,92,191.81,92h0V480.32h288V92S481.17,10.41,552.9,5.77Z"/><path class="cls-2" d="M541.4.5c-71.73,4.64-73.09,86.18-73.09,86.18V475h-288V86.68S180,5.41,253.76.5Z"/><rect class="cls-3" x="217.18" y="68.18" width="205.72" height="19.67"/><rect class="cls-3" x="217.18" y="258.18" width="205.72" height="19.67"/><rect class="cls-3" x="218.18" y="294.18" width="205.72" height="19.67"/><rect class="cls-3" x="217.18" y="101.18" width="205.72" height="19.67"/><rect class="cls-3" x="217.18" y="174.18" width="205.72" height="9.67"/><rect class="cls-3" x="217.18" y="200.18" width="205.72" height="9.67"/><rect class="cls-3" x="217.18" y="228.18" width="205.72" height="9.67"/><rect class="cls-4" x="214.18" y="136.18" width="102.72" height="19.67"/><rect class="cls-3" x="326.18" y="136.18" width="96.72" height="19.67"/><rect class="cls-5" x="83.89" y="113.05" width="244.51" height="359.71" rx="26.77" transform="translate(-146.74 231.56) rotate(-45)"/><path class="cls-1" d="M246.88,499.08a38.81,38.81,0,0,1-27.61-11.44L11.42,279.79a39.08,39.08,0,0,1,0-55.22L137.81,98.18a39,39,0,0,1,55.21,0L400.88,306a39.1,39.1,0,0,1,0,55.22L274.49,487.64A38.82,38.82,0,0,1,246.88,499.08Zm-81.47-400a26.58,26.58,0,0,0-18.89,7.82L20.13,233.28a26.76,26.76,0,0,0,0,37.8L228,478.93a26.74,26.74,0,0,0,37.79,0L392.16,352.54a26.76,26.76,0,0,0,0-37.8L184.31,106.89A26.56,26.56,0,0,0,165.41,99.07Z"/><path class="cls-1" d="M186.89,353.6a80,80,0,1,1,56.56-23.39A79.75,79.75,0,0,1,186.89,353.6Zm0-147.58a67.63,67.63,0,1,0,47.84,19.79A67.44,67.44,0,0,0,186.89,206Z"/><path class="cls-1" d="M117.51,281.43l-3.7-11.75a105.84,105.84,0,0,0,69.11-69.11l11.75,3.7a118.05,118.05,0,0,1-77.16,77.16Z"/><path class="cls-1" d="M160.16,347.44l-1.87-12.18a107.75,107.75,0,0,0,90.21-90.21l12.17,1.87A120,120,0,0,1,160.16,347.44Z"/><path class="cls-1" d="M124.35,318.1l-1.13-12.27A105.92,105.92,0,0,0,219.07,210l12.27,1.13a118.24,118.24,0,0,1-107,107Z"/><path class="cls-1" d="M220.28,338.8c-19.26,0-43.88-11.89-65.27-33.27-31.71-31.72-42.55-70.56-24.68-88.44h0c17.88-17.87,56.72-7,88.43,24.68,14.64,14.64,25.43,31.51,30.39,47.51,5.37,17.35,3.34,31.88-5.7,40.93C237.63,336,229.58,338.8,220.28,338.8ZM139,225.81c-11.18,11.18-3.94,42.38,24.69,71s59.81,35.86,71,24.68c5.58-5.57,6.54-16,2.64-28.57-4.37-14.11-14.07-29.18-27.32-42.43-28.62-28.62-59.82-35.87-71-24.68Z"/><rect class="cls-1" x="180.73" y="199.83" width="12.32" height="147.65" transform="translate(-138.76 212.3) rotate(-45)"/><text class="cls-6" transform="translate(224.2 453.97) rotate(-45)">ПАСПОРТ</text><path class="cls-7" d="M79,304.11h0a6.16,6.16,0,0,1,8.72,0l73.18,73.18a6.15,6.15,0,0,1,0,8.71h0a6.15,6.15,0,0,1-8.71,0L79,312.82A6.17,6.17,0,0,1,79,304.11Z"/><path class="cls-7" d="M40.9,266h0a6.16,6.16,0,0,1,8.72,0l19.9,19.9a6.16,6.16,0,0,1,0,8.72h0a6.17,6.17,0,0,1-8.71,0L40.9,274.69A6.17,6.17,0,0,1,40.9,266Z"/><circle class="cls-8" cx="412.25" cy="425.83" r="18.98"/><circle class="cls-9" cx="412.25" cy="425.83" r="29.9"/><circle class="cls-9" cx="412.25" cy="425.83" r="35.65"/></g></g></svg>