<?xml version="1.0" encoding="iso-8859-1"?>
<!-- Generator: Adobe Illustrator 19.0.0, SVG Export Plug-In . SVG Version: 6.00 Build 0)  -->
<svg version="1.1" id="Capa_1" xmlns="http://www.w3.org/2000/svg" xmlns:xlink="http://www.w3.org/1999/xlink" x="0px" y="0px"
	 viewBox="0 0 450.09 450.09" style="enable-background:new 0 0 450.09 450.09;" xml:space="preserve">
<path style="fill:#1185E0;" d="M225.306,450.024c-3.135,0-6.269-1.045-8.882-2.612l-42.841-28.735l-51.722,2.612
	c-6.269,1.045-12.016-2.612-15.151-7.837L83.2,367.478l-45.976-23.51c-5.747-2.612-8.882-8.882-8.359-14.629l2.612-51.722
	L2.743,234.253c-3.657-5.224-3.657-12.016,0-17.241l28.735-43.363l-2.612-51.722c-0.522-6.269,3.135-12.016,8.359-15.151
	L83.2,83.265l23.51-45.976c2.612-5.747,8.359-8.882,14.629-8.359l51.722,2.612l43.363-28.735c5.224-3.657,12.016-3.657,17.241,0
	l43.363,28.735l51.722-2.612c6.269-0.522,12.016,3.135,14.629,8.359l23.51,45.976l45.976,23.51
	c5.747,2.612,8.882,8.882,8.359,14.629l-2.612,52.245l28.735,43.363c3.657,5.224,3.657,12.016,0,17.241l-28.735,42.841l2.612,51.722
	c0.522,6.269-3.135,12.016-8.359,14.629l-45.976,23.51l-22.988,46.498c-2.612,5.747-8.882,8.882-14.629,8.359l-52.245-3.135
	l-43.363,28.735C231.576,448.98,228.441,450.024,225.306,450.024z M177.763,387.331c3.135,0,6.269,1.045,8.882,2.612l38.661,25.6
	l38.661-25.6c2.612-2.09,6.269-2.612,9.404-2.612l46.498,2.612l20.898-41.273c1.567-3.135,4.18-5.224,6.792-6.792l41.273-20.898
	l-1.567-47.02c0-3.135,0.522-6.792,2.612-9.404l25.6-38.661l-25.6-38.661c-2.09-3.657-2.612-6.792-2.612-10.449l2.612-46.498
	l-41.273-20.898c-3.135-1.567-5.224-4.18-6.792-6.792l-20.898-41.273l-47.02,2.09c-3.135,0-6.792-0.522-9.404-2.612l-39.184-25.6
	l-38.661,25.6c-3.135,2.09-6.269,2.612-9.927,2.612L130.22,60.8l-20.898,41.273c-1.567,3.135-4.18,5.224-6.792,6.792l-41.273,20.898
	l2.612,46.498c0,3.135-0.522,6.792-2.612,9.404l-26.122,39.706l25.6,38.661c2.09,2.612,2.612,6.269,2.612,9.404l-2.612,46.498
	l41.273,20.898c3.135,1.567,5.224,4.18,6.792,6.792l20.898,41.273l46.498-2.612C177.241,387.331,177.241,387.331,177.763,387.331z"
	/>
<g>
	<path style="fill:#4DCFE0;" d="M160,220.147c-30.302,0-54.857-24.555-54.857-54.857s24.555-54.857,54.857-54.857
		s54.857,24.555,54.857,54.857S190.302,220.147,160,220.147z M160,141.78c-13.061,0-23.51,10.449-23.51,23.51
		c0,13.061,10.449,23.51,23.51,23.51c13.061,0,23.51-10.449,23.51-23.51C183.51,152.229,173.061,141.78,160,141.78z"/>
	<path style="fill:#4DCFE0;" d="M285.388,345.535c-30.302,0-54.857-24.555-54.857-54.857c0-30.302,24.555-54.857,54.857-54.857
		s54.857,24.555,54.857,54.857S315.69,345.535,285.388,345.535z M285.388,267.167c-13.061,0-23.51,10.449-23.51,23.51
		s10.449,23.51,23.51,23.51s23.51-10.449,23.51-23.51S298.449,267.167,285.388,267.167z"/>
	<path style="fill:#4DCFE0;" d="M135.967,330.384c-4.18,0-7.837-1.567-10.971-4.702c-6.269-6.269-6.269-16.196,0-21.943
		l178.678-178.678c6.269-6.269,16.196-6.269,21.943,0c6.269,6.269,6.269,16.196,0,21.943L146.939,325.682
		C143.804,328.816,140.147,330.384,135.967,330.384z"/>
</g>
<g>
</g>
<g>
</g>
<g>
</g>
<g>
</g>
<g>
</g>
<g>
</g>
<g>
</g>
<g>
</g>
<g>
</g>
<g>
</g>
<g>
</g>
<g>
</g>
<g>
</g>
<g>
</g>
<g>
</g>
</svg>
