<svg width="20" height="25" viewBox="0 0 20 25" fill="none" xmlns="http://www.w3.org/2000/svg">
<path d="M9.50299 25C9.37794 25 9.25289 24.9688 9.1279 24.9375L7.94003 24.4373C3.09475 22.3429 0 17.5914 0 12.3085V5.65022C0 5.30636 0.187577 4.99379 0.500145 4.83745L9.09654 0.117213C9.37788 -0.039071 9.72174 -0.039071 10.0031 0.117213L18.8496 4.83745C19.1621 4.99373 19.3497 5.30636 19.3497 5.65022V12.2147C19.381 17.5289 16.2237 22.3116 11.2847 24.3748L9.90926 24.9375C9.75303 24.9687 9.62804 25 9.50299 25ZM1.87559 6.21289V12.3086C1.87559 16.8412 4.56395 20.905 8.69022 22.6868L9.50299 23.0307L10.5033 22.6243C14.7546 20.8737 17.4742 16.7787 17.443 12.2147V6.21289L9.53422 1.9928L1.87559 6.21289Z" fill="#1185E0"/>
<path d="M8.76359 15.9638C8.46031 15.9638 8.1571 15.8488 7.96758 15.6186L4.85921 12.4346C4.40435 11.9743 4.40435 11.2454 4.85921 10.8234C5.31406 10.3631 6.03433 10.3631 6.45131 10.8234L8.76359 13.2019L13.7294 8.17653C14.1843 7.71622 14.9045 7.71622 15.3215 8.17653C15.7764 8.63683 15.7764 9.36573 15.3215 9.78771L9.55968 15.6186C9.37009 15.8488 9.06688 15.9638 8.76359 15.9638Z" fill="#4DCFE0"/>
</svg>

