<?xml version="1.0" encoding="iso-8859-1"?>
<!-- Generator: Adobe Illustrator 19.0.0, SVG Export Plug-In . SVG Version: 6.00 Build 0)  -->
<svg version="1.1" id="Capa_1" xmlns="http://www.w3.org/2000/svg" xmlns:xlink="http://www.w3.org/1999/xlink" x="0px" y="0px"
	 viewBox="0 0 483.788 483.788" style="enable-background:new 0 0 483.788 483.788;" xml:space="preserve">
<path style="fill:#1185E0;" d="M274.808,107.624C274.808,48.065,226.743,0,167.184,0S59.559,48.065,59.559,107.624
	c0,36.571,18.286,68.963,45.976,88.294c-60.082,24.555-102.4,83.592-102.4,152.033v77.845c0,8.882,6.792,15.673,15.673,15.673
	h221.518v-31.347H34.482v-62.171c0-73.143,59.559-132.702,132.702-132.702c31.347,0,60.082,10.449,84.114,30.302l19.853-24.033
	c-13.061-10.971-27.167-19.331-42.318-25.6C256.522,176.065,274.808,144.196,274.808,107.624z M90.906,107.624
	c0-42.318,33.959-76.278,76.278-76.278s76.278,33.959,76.278,76.278s-33.959,76.278-76.278,76.278S90.906,149.943,90.906,107.624z"
	/>
<g>
	<path style="fill:#4DCFE0;" d="M336.457,483.788c-79.412,0-144.196-64.784-144.196-144.196s64.784-144.196,144.196-144.196
		s144.196,64.784,144.196,144.196S415.869,483.788,336.457,483.788z M336.457,226.743c-62.171,0-112.849,50.678-112.849,112.849
		s50.678,112.849,112.849,112.849s112.849-50.678,112.849-112.849S398.629,226.743,336.457,226.743z"/>
	<path style="fill:#4DCFE0;" d="M383.478,365.192h-53.812c-8.882,0-15.673-6.792-15.673-15.673v-71.053
		c0-8.882,6.792-15.673,15.673-15.673s15.673,6.792,15.673,15.673v55.38h38.139c8.882,0,15.673,6.792,15.673,15.673
		C399.151,358.4,392.359,365.192,383.478,365.192z"/>
</g>
<g>
</g>
<g>
</g>
<g>
</g>
<g>
</g>
<g>
</g>
<g>
</g>
<g>
</g>
<g>
</g>
<g>
</g>
<g>
</g>
<g>
</g>
<g>
</g>
<g>
</g>
<g>
</g>
<g>
</g>
</svg>
